<svg width="32" height="32" viewBox="0 0 32 32" fill="none" xmlns="http://www.w3.org/2000/svg">
<path d="M12.596 0.679552C9.18594 1.07492 6.41217 3.71279 5.89324 7.05491C5.83764 7.40704 5.78204 7.75299 5.76969 7.82712C5.75115 7.91979 5.63996 8.01863 5.42991 8.12983C5.02219 8.33369 4.62064 8.7476 4.40442 9.19239C4.23762 9.52598 4.23145 9.58158 4.23145 10.4403C4.23145 11.3052 4.23762 11.3484 4.4106 11.7067C4.65771 12.2009 5.09632 12.6272 5.60289 12.8619C5.95502 13.0287 6.10328 13.0596 6.63456 13.0843C7.19055 13.109 7.27704 13.0967 7.41295 12.9855L7.56739 12.8619L7.58592 10.5082L7.60446 8.15454L7.45001 8.0001C7.33264 7.8889 7.22762 7.84566 7.04229 7.84566C6.74576 7.84566 6.75194 7.86419 6.91873 7.05491C7.43148 4.5406 9.28478 2.55756 11.7497 1.87802C12.4663 1.68034 13.7636 1.61238 14.4987 1.72976C17.4702 2.20544 19.8177 4.60855 20.1204 7.475L20.1575 7.84566H19.9413C19.7065 7.84566 19.4841 8.01245 19.4285 8.23485C19.41 8.30898 19.3976 9.36537 19.41 10.5824L19.4285 12.8002L19.6015 12.9484C19.7189 13.0534 19.8486 13.0967 20.0216 13.0967H20.2625V13.455C20.2625 13.6527 20.2316 13.8442 20.1884 13.8874C20.139 13.9368 19.8424 13.9616 19.2556 13.9616C18.4525 13.9616 18.403 13.9554 18.4401 13.8504C18.6316 13.2264 18.6563 12.7322 18.6563 9.11826C18.6563 5.10895 18.6563 5.09041 18.2918 4.58384C18.0262 4.22554 17.6308 4.02167 16.8154 3.81781C14.6223 3.28653 12.213 3.29271 10.0385 3.83634C9.21683 4.04638 8.72262 4.4294 8.48786 5.04099C8.37667 5.32516 8.37049 5.56609 8.37049 9.29741V13.2511L8.54346 13.7948C8.83381 14.7214 9.16123 15.2836 9.81607 15.9569C11.5149 17.7176 14.159 18.0821 16.1667 16.828C16.7289 16.482 17.3652 15.8705 17.6988 15.3639L17.9335 15.0118H18.9899C20.1637 15.0056 20.5034 14.9562 20.8062 14.7214C21.1274 14.4743 21.2448 14.1531 21.2509 13.4982L21.2571 12.9422L21.4981 12.831C22.1714 12.5222 22.6903 11.7808 22.8077 10.9468C22.993 9.66189 22.4803 8.53138 21.5042 8.08659L21.2077 7.95685L21.1089 7.23407C20.9791 6.32595 20.7691 5.63405 20.3799 4.84948C19.3482 2.76143 17.2972 1.22319 14.9435 0.772217C14.3072 0.65484 13.2076 0.611597 12.596 0.679552ZM15.1474 4.5406C16.1544 4.67033 17.149 4.92979 17.359 5.10895C17.6185 5.32516 17.6679 5.58463 17.6679 6.68425V7.66033L17.4084 7.6665C16.6424 7.68504 16.2779 7.6109 15.9999 7.37615L15.8146 7.21553L16.1049 6.86958C16.2717 6.67808 16.4509 6.47421 16.5127 6.41244C16.6424 6.27653 16.6486 5.94293 16.5188 5.7576C16.4447 5.65258 16.3644 5.62169 16.1358 5.62169C15.8455 5.62169 15.8331 5.62787 15.3574 6.1468C15.0918 6.43715 14.7211 6.7831 14.5296 6.91283C13.4918 7.6109 12.1018 8.07423 10.4091 8.27809C10.1064 8.31516 9.74811 8.3584 9.62456 8.37076L9.38981 8.40165V6.94989C9.38981 5.33752 9.40834 5.23868 9.77282 5.01628C9.99522 4.88655 10.8107 4.68269 11.552 4.57767C11.8053 4.5406 12.0833 4.49736 12.1698 4.485C12.5898 4.42322 14.5543 4.46029 15.1474 4.5406ZM15.7775 8.43871C16.1729 8.61787 16.8092 8.72906 17.2911 8.69818L17.6679 8.67964V10.5144C17.6679 12.4048 17.6185 13.0411 17.427 13.6033L17.3158 13.9307L16.0864 13.9492L14.857 13.9616L14.7026 13.7144C14.2393 12.9608 13.2138 12.8125 12.5342 13.3994C12.2006 13.6836 12.0462 14.0172 12.0462 14.4867C12.0462 14.9562 12.2006 15.2898 12.5342 15.5739C13.2138 16.1608 14.1775 16.0249 14.6779 15.2774L14.857 15.0118H15.7837H16.7042L16.4015 15.3268C15.5428 16.1979 14.4926 16.6118 13.325 16.5376C11.5335 16.4264 9.99522 15.1847 9.51954 13.4673C9.40216 13.0473 9.38981 12.8372 9.38981 11.2063V9.40243L9.90255 9.35919C10.7242 9.29123 12.0895 9.03795 12.8184 8.82173C13.1953 8.71053 13.8316 8.45725 14.2393 8.24721L14.9806 7.87654L15.2215 8.08041C15.3513 8.19778 15.6045 8.3584 15.7775 8.43871ZM6.60985 10.4712V12.1021L6.41217 12.065C5.89942 11.9723 5.39903 11.5337 5.26312 11.0642C5.17045 10.7615 5.17045 10.119 5.25694 9.81634C5.3496 9.52598 5.63378 9.17386 5.88706 9.03795C6.05386 8.95146 6.29479 8.88351 6.56661 8.84026C6.59132 8.84026 6.60985 9.56923 6.60985 10.4712ZM21.0533 9.01324C21.5907 9.29123 21.8069 9.69896 21.8069 10.4526C21.8008 11.3299 21.4054 11.8797 20.6517 12.0527L20.4478 12.0959V10.4959V8.89586H20.6332C20.7382 8.89586 20.9235 8.95146 21.0533 9.01324ZM13.7945 14.221C14.0292 14.4928 13.8316 14.9067 13.4671 14.9067C13.3312 14.9067 13.2261 14.8635 13.1458 14.7708C12.7814 14.3137 13.4115 13.7762 13.7945 14.221Z" fill="#E3E4E5"/>
<path d="M21.6529 15.3021C21.3687 15.4503 21.2452 15.5801 21.1216 15.8457C21.0228 16.0619 21.0042 16.2658 21.0042 17.526V18.9592L20.6706 18.848C20.0405 18.6257 19.6698 18.5701 19.466 18.6565C19.3115 18.7183 19.2374 18.8357 18.9965 19.4102C18.527 20.5284 17.9339 21.7886 17.4335 22.7029C16.9764 23.5554 16.1856 24.8589 16.1547 24.8219C16.1486 24.8095 15.9941 24.1732 15.8212 23.3948L15.4999 21.9925L15.6235 21.8319C15.747 21.6774 15.7532 21.5909 15.7532 20.2504V18.8357L15.5988 18.6874L15.4505 18.533H13.5663C12.2999 18.533 11.6327 18.5577 11.5277 18.6009C11.262 18.7245 11.2373 18.9036 11.2558 20.3678C11.2744 21.6095 11.2867 21.7454 11.3918 21.8628C11.5091 21.9925 11.5091 22.011 11.2064 23.3269C11.0396 24.0558 10.879 24.6551 10.8419 24.6612C10.6566 24.6736 8.95775 21.4674 8.17937 19.6203C7.74075 18.5886 7.68515 18.5392 7.14769 18.6504C6.56081 18.7739 5.53532 19.126 4.89284 19.4287C2.90363 20.3739 1.58161 21.8751 1.01326 23.8458C0.74762 24.7601 0.661133 25.4582 0.661133 26.6257C0.661133 27.3794 0.692021 27.8427 0.766153 28.164C1.08739 29.6713 2.20555 30.7154 3.74997 30.9501C4.03414 30.9934 7.2836 31.0119 13.8072 30.9995L23.4444 30.981L23.846 30.8451C24.6676 30.5609 25.3286 30.0544 25.7549 29.381C26.2491 28.5902 26.4159 27.7439 26.3603 26.2921C26.3047 24.8713 26.0885 23.8273 25.6375 22.8265C25.4645 22.4435 25.4645 22.4249 25.5757 22.3631C25.6498 22.3261 26.5394 22.3014 27.9232 22.3014C29.6653 22.3014 30.1966 22.2828 30.351 22.2149C30.6105 22.1099 30.8638 21.8072 30.9503 21.5106C30.9873 21.3685 31.0121 20.2689 31.0121 18.6504C31.0121 16.0248 31.0121 16.0187 30.87 15.753C30.7711 15.5677 30.6414 15.438 30.4561 15.3391L30.1904 15.197H26.0143C22.3262 15.2032 21.8197 15.2156 21.6529 15.3021ZM29.9495 18.7307L29.931 21.2821L27.5773 21.3129L25.2236 21.3438L24.9826 21.523C24.8529 21.628 24.5317 21.8751 24.2784 22.079C24.0251 22.2828 23.778 22.4743 23.7348 22.5052C23.6668 22.5608 23.6606 22.4805 23.6977 22.1037C23.7348 21.6527 23.7286 21.628 23.5803 21.4736C23.4259 21.3191 23.3888 21.3129 22.7463 21.3129C22.2459 21.3129 22.0606 21.2944 22.0359 21.2326C22.0174 21.1894 22.005 20.0712 21.9988 18.7554C21.9927 17.0442 22.0112 16.3276 22.0606 16.272C22.1162 16.1978 22.8143 16.1855 26.0452 16.1855H29.9619L29.9495 18.7307ZM14.7648 20.2627V21.0041H13.5292H12.2937V20.2627V19.5214H13.5292H14.7648V20.2627ZM7.38245 20.3739C8.8898 23.8952 10.7863 26.8173 12.1269 27.6821C12.8497 28.1516 13.6404 28.2628 14.3323 27.991C15.3084 27.6142 16.4698 26.3601 17.6745 24.3709C18.2181 23.469 19.1942 21.56 19.639 20.5098C19.8181 20.0836 19.9787 19.7253 19.9911 19.7129C20.0034 19.7006 20.232 19.7685 20.5038 19.8612L20.9919 20.0342L21.0166 20.8187C21.0351 21.5971 21.0413 21.6156 21.2266 21.8504C21.4984 22.1902 21.7579 22.3014 22.2645 22.3014C22.6722 22.3014 22.6846 22.3075 22.6475 22.4435C22.629 22.5238 22.5981 22.8944 22.5734 23.2651C22.5301 23.9261 22.5363 23.9508 22.6722 24.0805C22.9378 24.3276 23.1541 24.2659 23.8274 23.7469C24.161 23.4875 24.4823 23.2342 24.5379 23.1848C24.6305 23.0983 24.6491 23.1106 24.7417 23.3269C24.9518 23.8273 25.1309 24.4636 25.2359 25.0566C25.3657 25.8226 25.3904 27.3732 25.273 27.8922C25.1 28.6891 24.5193 29.4304 23.8027 29.764L23.4444 29.9308L13.6219 29.9493C4.69516 29.9617 3.77468 29.9555 3.49051 29.8628C2.8295 29.6466 2.21791 29.1153 1.93991 28.5161C1.75458 28.1022 1.66809 27.5215 1.66809 26.564C1.66809 23.5925 2.89745 21.5106 5.33763 20.3492C5.82567 20.1145 6.97472 19.7006 7.06121 19.7253C7.09209 19.7376 7.23418 20.0218 7.38245 20.3739ZM14.4806 22.0975C14.493 22.1593 14.6968 23.0365 14.9254 24.0558L15.3455 25.8968L14.8574 26.3725C14.0667 27.1261 13.5663 27.2806 12.9238 26.9593C12.584 26.7925 12.0095 26.3045 11.7995 26.008L11.6759 25.835L12.0713 24.1176C12.2875 23.1662 12.4852 22.3014 12.5099 22.1902L12.5532 21.9925H13.4983C14.3509 21.9925 14.4497 22.0048 14.4806 22.0975Z" fill="#E3E4E5"/>
<path d="M23.364 17.4396C23.1787 17.6373 23.1849 17.94 23.3825 18.1315L23.5308 18.2859H26.0081H28.4853L28.6336 18.1315C28.8251 17.9461 28.8312 17.6805 28.6583 17.4581L28.5347 17.2975H26.0142H23.4937L23.364 17.4396Z" fill="#E3E4E5"/>
<path d="M23.4942 19.2126C23.3335 19.2805 23.2285 19.4597 23.2285 19.6697C23.2285 20.1392 23.4015 20.201 24.7359 20.201C25.8911 20.201 26.0702 20.1639 26.1876 19.9106C26.3235 19.6141 26.2432 19.3732 25.9652 19.2249C25.8046 19.1384 23.7042 19.1261 23.4942 19.2126Z" fill="#E3E4E5"/>
</svg>
