<svg width="76" height="82" viewBox="0 0 76 82" fill="none" xmlns="http://www.w3.org/2000/svg">
<path d="M35.2197 81.939C54.6711 81.939 70.4395 66.1631 70.4395 46.7025C70.4395 27.242 54.6711 11.4661 35.2197 11.4661C15.7684 11.4661 0 27.242 0 46.7025C0 66.1631 15.7684 81.939 35.2197 81.939Z" fill="#0094DA"/>
<path d="M42.5784 66.4964V64.5843C42.5784 62.4889 44.3864 61.8687 45.5744 61.709H24.8652C26.0533 61.864 27.8613 62.4889 27.8613 64.5843V66.4964C27.8613 68.5918 26.0533 69.212 24.8652 69.3717H45.5744C44.3864 69.2167 42.5784 68.5918 42.5784 66.4964Z" fill="#DFE9F2"/>
<path d="M42.8136 31.4054H27.6222C20.2636 31.4054 14.248 37.4285 14.248 44.7859V48.6149C14.248 55.977 20.2636 62 27.6222 62H42.8136C50.1722 62 56.1877 55.977 56.1877 48.6149V44.7859C56.1877 37.4238 50.1722 31.4054 42.8136 31.4054Z" fill="#E3E4E5"/>
<path d="M27.6317 31.4053H30.0173C22.6587 31.4053 16.6385 37.4284 16.6385 44.7857V48.6148C16.6385 55.9768 22.6587 61.9999 30.0173 61.9999H27.6317C20.2732 61.9999 14.2529 55.9768 14.2529 48.6148V44.7857C14.2529 37.4237 20.2732 31.4053 27.6317 31.4053Z" fill="#DFE9F2"/>
<path d="M27.6265 54.9151C23.0996 54.9151 19.418 51.2317 19.418 46.7027C19.418 42.1736 23.0996 38.4902 27.6265 38.4902H42.8133C47.3402 38.4902 51.0218 42.1736 51.0218 46.7027C51.0218 51.2317 47.3402 54.9151 42.8133 54.9151H27.6265Z" fill="#121212"/>
<path d="M54.0508 40.6044C56.7416 40.9756 58.6998 42.3146 58.6998 46.3409C58.6998 50.3673 56.92 51.5606 54.4218 52.0164L54.0508 40.6091V40.6044Z" fill="#E3E4E5"/>
<path d="M34.3744 25.3965V30.3484H36.0602V25.3965C37.0417 25.0488 33.3929 25.0488 34.3744 25.3965Z" fill="#DFE9F2"/>
<path d="M41.2355 33.3125C41.2355 31.2688 38.1503 29.6104 35.2247 29.6104C32.2991 29.6104 29.2139 31.2688 29.2139 33.3125C29.2139 35.3562 32.2991 37.0147 35.2247 37.0147C38.1503 37.0147 41.2355 35.3562 41.2355 33.3125Z" fill="#E3E4E5"/>
<path d="M37.7462 23.0188C37.7462 21.6235 36.6145 20.4912 35.2198 20.4912C33.8251 20.4912 32.6934 21.6235 32.6934 23.0188C32.6934 24.4142 33.8251 25.5465 35.2198 25.5465C36.6145 25.5465 37.7462 24.4142 37.7462 23.0188Z" fill="#E3E4E5"/>
<path d="M15.1307 51.8046C13.1068 51.1892 11.7402 49.6999 11.7402 46.3359C11.7402 42.972 13.5012 41.1303 15.9807 40.6699L15.1307 51.7999V51.8046Z" fill="#DFE9F2"/>
<path d="M40.3809 46.7025C40.3809 45.4903 41.367 44.5037 42.5786 44.5037C43.7901 44.5037 44.7763 45.4856 44.7763 46.7025C44.7763 47.9193 43.7948 48.9012 42.5786 48.9012C41.3623 48.9012 40.3809 47.9193 40.3809 46.7025Z" fill="#9CDCF9"/>
<path d="M25.6641 46.7025C25.6641 45.4903 26.6455 44.5037 27.8571 44.5037C29.0686 44.5037 30.0548 45.4856 30.0548 46.7025C30.0548 47.9193 29.0733 48.9012 27.8571 48.9012C26.6408 48.9012 25.6641 47.9193 25.6641 46.7025Z" fill="#9CDCF9"/>
<path d="M42.8137 69.085H27.6222C22.5506 69.085 18.1129 71.9556 15.8447 76.1417C21.4001 79.8109 26.3637 82.0003 35.2156 82.0003C44.0675 82.0003 49.0311 79.8109 54.5864 76.1417C52.3183 71.9556 47.8806 69.0803 42.809 69.0803L42.8137 69.085Z" fill="#E3E4E5"/>
<path d="M62.2033 0.00739441H45.9359C38.8849 0.00739441 32.95 5.56063 32.78 12.6223C32.61 19.8911 38.4636 25.8584 45.692 25.8584C52.9203 25.8584 47.2884 26.5535 47.3254 27.426V31.0567C47.3254 31.3969 47.7393 31.5595 47.9684 31.3155L52.2329 27.4186C53.3342 26.413 54.7754 25.851 56.2684 25.851H61.9594C69.0178 25.851 74.9527 20.2904 75.1153 13.2361C75.2853 5.96733 69.4317 0 62.2033 0V0.00739441Z" fill="#ED1C24"/>
<path d="M52.2031 18.8997C51.9148 18.8997 51.6635 18.7962 51.4566 18.5892C51.2496 18.3821 51.1462 18.1381 51.1462 17.8423V13.9824H46.6968V17.8423C46.6968 18.1307 46.5933 18.3821 46.3864 18.5892C46.1795 18.7962 45.9356 18.8997 45.6399 18.8997C45.3443 18.8997 45.1004 18.7962 44.8934 18.5892C44.6865 18.3821 44.583 18.1381 44.583 17.8423V8.01511C44.583 7.72673 44.6865 7.47531 44.8934 7.26827C45.1004 7.06122 45.3443 6.9577 45.6399 6.9577C45.9356 6.9577 46.1795 7.06122 46.3864 7.26827C46.5933 7.47531 46.6968 7.72673 46.6968 8.01511V11.875H51.1462V8.01511C51.1462 7.72673 51.2496 7.47531 51.4566 7.26827C51.6635 7.06122 51.9148 6.9577 52.2031 6.9577C52.4913 6.9577 52.7426 7.06122 52.9496 7.26827C53.1565 7.47531 53.26 7.72673 53.26 8.01511V17.8497C53.26 18.1381 53.1565 18.3895 52.9496 18.5966C52.7426 18.8036 52.4913 18.9071 52.2031 18.9071V18.8997Z" fill="#E3E4E5"/>
<path d="M57.0735 18.8997C56.7853 18.8997 56.534 18.7962 56.327 18.5892C56.1201 18.3821 56.0166 18.1381 56.0166 17.8423V8.01511C56.0166 7.72673 56.1201 7.47531 56.327 7.26827C56.534 7.06122 56.7779 6.9577 57.0735 6.9577C57.3691 6.9577 57.613 7.06122 57.82 7.26827C58.0269 7.47531 58.1304 7.71933 58.1304 8.01511V17.8497C58.1304 18.1381 58.0269 18.3895 57.82 18.5966C57.613 18.8036 57.3691 18.9071 57.0735 18.9071V18.8997Z" fill="#E3E4E5"/>
<path d="M61.9893 18.9002C61.8119 18.9002 61.6419 18.8632 61.4867 18.7966C61.3315 18.7301 61.1985 18.6414 61.0802 18.523C60.9619 18.4047 60.8659 18.2716 60.792 18.109C60.718 17.9463 60.6885 17.7762 60.6885 17.5913C60.6885 17.4065 60.7254 17.2438 60.792 17.0811C60.8585 16.9258 60.9545 16.7854 61.0728 16.667C61.1911 16.5487 61.3315 16.4526 61.4867 16.3861C61.6493 16.3121 61.8193 16.2825 61.9967 16.2825C62.1741 16.2825 62.344 16.3195 62.5066 16.3861C62.6619 16.4526 62.8023 16.5487 62.9205 16.667C63.0388 16.7854 63.1349 16.9258 63.2014 17.0885C63.2679 17.2512 63.3049 17.4213 63.3049 17.5987C63.3049 17.7762 63.2679 17.9537 63.2014 18.1164C63.1349 18.2716 63.0388 18.4121 62.9131 18.5304C62.7949 18.6488 62.6545 18.7375 62.4993 18.804C62.344 18.8706 62.1741 18.9076 61.9967 18.9076L61.9893 18.9002ZM61.9893 14.9367C61.8415 14.9367 61.701 14.9072 61.5754 14.848C61.4497 14.7962 61.3463 14.7223 61.2502 14.6262C61.1541 14.53 61.0876 14.4265 61.0285 14.3008C60.9767 14.1751 60.9472 14.042 60.9472 13.9015V8.01553C60.9472 7.72714 61.0432 7.48313 61.2428 7.27608C61.435 7.07643 61.6936 6.96552 61.9893 6.96552C62.2849 6.96552 62.5362 7.06904 62.7358 7.27608C62.9279 7.47573 63.0314 7.72714 63.0314 8.01553V13.9015C63.0314 14.042 63.0018 14.1825 62.9427 14.3082C62.891 14.4339 62.8097 14.5374 62.721 14.6336C62.6249 14.7297 62.514 14.8036 62.3884 14.8554C62.2627 14.9072 62.1297 14.9367 61.9893 14.9367Z" fill="#E3E4E5"/>
</svg>
