<svg width="32" height="29" viewBox="0 0 32 29" fill="none" xmlns="http://www.w3.org/2000/svg">
<path d="M0 9.6248V19.2434L5.08423 20.9361L10.1623 22.6288L12.3554 21.8072C13.56 21.3562 14.5917 20.9732 14.6411 20.9608C14.7152 20.9423 14.7523 21.0288 14.8141 21.3686C15.2094 23.6728 16.8033 25.9092 18.9346 27.1385C19.5771 27.5154 20.3616 27.8242 21.1462 28.0219C21.9925 28.2381 23.574 28.2937 24.5068 28.1455C26.2922 27.8675 27.8613 27.0582 29.1586 25.7609C30.3695 24.5563 31.1231 23.1601 31.4876 21.4798C31.5741 21.0906 31.5988 20.689 31.5988 19.7068C31.5988 18.5145 31.5865 18.4033 31.4258 17.767C31.0922 16.4882 30.561 15.4195 29.7949 14.4557L29.4057 13.9739V8.66726V3.36682L24.3524 1.68031C21.5786 0.759838 19.262 -1.52588e-05 19.2126 -1.52588e-05C19.157 -1.52588e-05 17.0998 0.75366 14.6411 1.67413L10.1623 3.35446L5.12747 1.67413C2.35987 0.75366 0.0741321 -1.52588e-05 0.0432437 -1.52588e-05C0.018533 -1.52588e-05 0 4.33054 0 9.6248ZM19.1508 6.7769V12.2627L18.8419 12.4356C17.9585 12.9299 16.8959 13.9059 16.2411 14.8264C15.3453 16.0743 14.8635 17.4272 14.6596 19.2434L14.6102 19.6759L12.5098 20.4605C11.3546 20.8929 10.36 21.2635 10.2982 21.2883C10.1993 21.3191 10.1932 20.9052 10.2055 12.9669L10.2241 4.61471L14.6102 2.95909C17.0257 2.05097 19.0334 1.30965 19.0767 1.30347C19.1323 1.2973 19.1508 2.43399 19.1508 6.7769ZM9.01941 12.5839C9.01941 17.1801 9.00088 20.9423 8.96999 20.9423C8.94528 20.9423 7.19082 20.3616 5.06569 19.6574L1.20465 18.3662L1.18611 9.98929L1.17376 1.61854L5.09658 2.92203L9.01941 4.23169V12.5839ZM28.232 8.5746C28.232 12.0341 28.2134 12.9113 28.1579 12.8743C28.1146 12.8434 27.886 12.7013 27.6575 12.553C26.3725 11.7252 24.8404 11.2866 23.1972 11.2866C22.252 11.2804 21.628 11.3607 20.8744 11.5831L20.3863 11.7252V6.67188V1.61854L24.3092 2.92203L28.232 4.23169V8.5746ZM24.9887 12.6889C26.1933 13.0102 27.3918 13.7021 28.2567 14.5546C28.8992 15.1971 29.2884 15.7345 29.6837 16.5253C30.2768 17.7237 30.4992 18.7616 30.4374 20.1021C30.3509 21.9987 29.6776 23.5122 28.2938 24.896C27.2559 25.9277 26.2737 26.496 24.9146 26.8482C24.1671 27.0459 22.9377 27.1138 22.1779 27.0026C19.0828 26.5455 16.618 24.235 16.0064 21.2079C15.8457 20.4296 15.8334 19.2126 15.9755 18.4651C16.4573 15.9199 18.1562 13.8689 20.5531 12.9484C21.523 12.5716 22.1161 12.4789 23.3207 12.5036C24.2165 12.5221 24.4636 12.553 24.9887 12.6889Z" fill="#E3E4E5"/>
<path d="M22.5357 18.811L22.5172 21.8752L21.0098 20.2504C20.1882 19.3547 19.4716 18.601 19.4284 18.5701C19.3666 18.5269 19.2368 18.6133 18.9527 18.8728C18.7426 19.0705 18.5635 19.2744 18.5635 19.3176C18.5635 19.4164 23.0423 24.2659 23.1411 24.2721C23.1782 24.2783 24.0863 23.3393 25.1489 22.1964C26.2114 21.0473 27.2493 19.9354 27.4532 19.7191L27.8238 19.33L27.4284 18.9346C27.206 18.7122 27.0022 18.533 26.9651 18.533C26.9281 18.533 26.1867 19.2991 25.3219 20.2319L23.7527 21.9246L23.7342 18.8419L23.7218 15.7531H23.135H22.5481L22.5357 18.811Z" fill="#E3E4E5"/>
</svg>
