<svg width="32" height="32" viewBox="0 0 32 32" fill="none" xmlns="http://www.w3.org/2000/svg">
<path d="M15.1656 4.94832C14.1648 5.04098 13.2258 5.37458 12.3671 5.93057C11.0575 6.77691 10.1432 8.03098 9.68603 9.61246C9.56248 10.0325 9.54395 10.2426 9.54395 11.1198V12.1391L9.81576 12.9422C10.1185 13.8195 10.9648 15.5554 11.6444 16.6797C12.2559 17.6929 13.4359 19.4411 14.3255 20.6581C14.9556 21.5168 15.1347 21.7207 15.3448 21.8134C15.9687 22.0975 16.3579 21.9122 17.0375 21.0041C19.7865 17.3284 21.5781 14.1407 22.0229 12.1453C22.1093 11.7685 22.1217 11.4905 22.097 10.8789C22.0599 9.90899 21.9117 9.33447 21.4669 8.43253C20.6638 6.78309 19.2553 5.61551 17.4699 5.12747C17.0869 5.02245 15.9378 4.86801 15.7216 4.89272C15.6907 4.89272 15.4374 4.91743 15.1656 4.94832ZM17.0313 6.1159C18.3162 6.41861 19.4282 7.19699 20.1943 8.33986C21.0653 9.63717 21.2939 11.1631 20.8244 12.5407C20.3919 13.8071 19.3665 15.7037 18.0815 17.6373C16.9757 19.2929 15.8205 20.8497 15.7525 20.7755C15.5734 20.584 14.4305 18.9778 13.7818 18.0079C12.12 15.5369 11.076 13.5538 10.6868 12.1515C10.2791 10.6936 10.8165 8.85261 12.0088 7.6109C13.337 6.22092 15.1533 5.68346 17.0313 6.1159Z" fill="#E3E4E5"/>
<path d="M14.3685 7.81478C13.0094 8.37695 12.1074 9.72368 12.1074 11.1816C12.1136 12.9608 13.17 14.3693 14.838 14.8079C15.3507 14.9376 16.2774 14.9376 16.7963 14.8017C17.309 14.672 17.9268 14.3384 18.3283 13.9925C19.2797 13.1646 19.7307 11.6141 19.4033 10.3229C19.1438 9.27889 18.4395 8.3893 17.5129 7.93216C16.7283 7.54296 16.3082 7.64181 16.3082 8.21633C16.3082 8.49432 16.3886 8.56846 16.9384 8.82792C17.7291 9.19858 18.2727 9.92755 18.4148 10.7986C18.6002 11.9044 17.9886 13.1152 17.0187 13.5971C15.3692 14.4064 13.5221 13.455 13.207 11.6264C13.0094 10.465 13.6024 9.34067 14.6835 8.82792C15.2395 8.56846 15.3198 8.49432 15.3198 8.21633C15.3198 7.72212 14.9553 7.56767 14.3685 7.81478Z" fill="#E3E4E5"/>
<path d="M8.45082 16.3894C7.74656 16.5685 7.1288 16.7539 7.07938 16.8033C7.02995 16.8527 5.86237 18.9408 4.48475 21.4427C1.816 26.286 1.816 26.2798 2.10017 26.564C2.31639 26.7802 2.12488 26.8173 5.91797 25.9092L9.14272 25.137L12.3736 25.9154C15.098 26.5764 15.654 26.6938 15.9382 26.669C16.1235 26.6505 17.6741 26.2984 19.3853 25.8845L22.4927 25.137L25.7112 25.9154C27.4781 26.3416 29.0348 26.6876 29.1646 26.6876C29.4796 26.6876 29.6526 26.5208 29.6526 26.2057C29.6464 26.0204 29.1707 25.1123 27.1198 21.4057C25.7298 18.8913 24.5437 16.7971 24.4757 16.7539C24.3583 16.6797 23.7406 16.5129 22.4371 16.2164C21.5598 16.0187 21.3127 16.1114 21.3127 16.6365C21.3127 16.9948 21.4734 17.0751 22.7027 17.3655L23.8147 17.6249L25.9522 21.4921C27.1259 23.6173 28.0835 25.3656 28.0773 25.3779C28.0526 25.4088 22.9684 24.1671 22.9189 24.1115C22.8942 24.0868 22.505 22.808 22.0541 21.2821C21.6031 19.75 21.2015 18.4157 21.1583 18.3045C21.0162 17.9709 20.6579 17.872 20.3676 18.1006C20.2872 18.1686 20.1946 18.2921 20.176 18.3724C20.1513 18.4713 20.417 19.4659 20.973 21.3501C21.4301 22.9068 21.7946 24.1856 21.7822 24.2041C21.7575 24.2289 16.4386 25.5138 16.3582 25.5138C16.3274 25.5138 16.3088 25.0011 16.3088 24.3771V23.2343L16.1482 23.1107C15.932 22.9377 15.6725 22.9501 15.4625 23.1292L15.2895 23.2775L15.271 24.3957C15.2586 25.0134 15.2401 25.5138 15.2339 25.5138C15.1721 25.5138 9.86551 24.2165 9.84697 24.198C9.82844 24.1856 10.1929 22.9007 10.6562 21.3439C11.2061 19.472 11.4779 18.4713 11.4532 18.3724C11.3667 18.0388 10.9219 17.872 10.6439 18.0697C10.4833 18.1809 10.4709 18.218 9.48249 21.591C9.08094 22.9501 8.73499 24.0868 8.7041 24.1115C8.66086 24.1609 3.57663 25.4088 3.55192 25.3779C3.54574 25.3656 4.49711 23.6173 5.67704 21.4921L7.80834 17.6311L8.9265 17.3655C10.1559 17.0751 10.3165 16.9886 10.3165 16.6365C10.3165 16.3461 10.23 16.2102 10.0014 16.1299C9.89022 16.0929 9.7852 16.062 9.76666 16.0681C9.74813 16.0681 9.15507 16.2164 8.45082 16.3894Z" fill="#E3E4E5"/>
</svg>
