<svg width="22" height="20" viewBox="0 0 22 20" fill="none" xmlns="http://www.w3.org/2000/svg">
<path d="M1.05664 4.05151H12.5137C12.5707 4.05157 12.6027 4.07022 12.6201 4.08765C12.6375 4.1051 12.6562 4.13705 12.6562 4.19409V16.6062C12.6562 16.6634 12.6376 16.6962 12.6201 16.7136C12.6026 16.731 12.5704 16.7487 12.5137 16.7488H5.69434C5.63719 16.7488 5.60438 16.7311 5.58691 16.7136C5.56946 16.6962 5.55176 16.6634 5.55176 16.6062C5.55178 16.5494 5.56957 16.5173 5.58691 16.4998C5.60437 16.4823 5.63713 16.4636 5.69434 16.4636H12.3711V4.33667H1.05664C0.686209 4.33687 0.483624 4.65408 0.483398 4.90991V15.8904C0.483494 16.261 0.80074 16.4634 1.05664 16.4636H1.875C1.9322 16.4636 1.96496 16.4823 1.98242 16.4998C1.99978 16.5173 2.01756 16.5494 2.01758 16.6062C2.01758 16.6634 1.99988 16.6962 1.98242 16.7136C1.96494 16.7311 1.9321 16.7488 1.875 16.7488H1.05664C0.586793 16.7486 0.198335 16.3603 0.198242 15.8904V4.90991C0.198478 4.44009 0.58688 4.05171 1.05664 4.05151Z" stroke="#442917" stroke-width="0.396773"/>
<path d="M21.3379 11.5044L21.3096 11.4575L18.4111 6.61572L18.3535 6.51904H12.6553V16.4634H14.3203C14.3773 16.4635 14.4093 16.4821 14.4268 16.4995C14.4442 16.5169 14.4628 16.549 14.4629 16.606C14.4629 16.6632 14.4442 16.6959 14.4268 16.7134C14.4093 16.7308 14.3772 16.7485 14.3203 16.7485H12.5127C12.4558 16.7485 12.4237 16.7308 12.4062 16.7134C12.3888 16.6959 12.3701 16.6632 12.3701 16.606V6.37646C12.3702 6.31935 12.3888 6.28746 12.4062 6.27002C12.4237 6.25258 12.4556 6.23392 12.5127 6.23389H18.4453C18.5025 6.23389 18.5462 6.25783 18.583 6.31006L21.6172 11.3882L21.6201 11.394C21.6206 11.3988 21.6218 11.4054 21.6221 11.4136C21.6225 11.4262 21.623 11.44 21.623 11.4575V16.606C21.623 16.6632 21.6044 16.6959 21.5869 16.7134C21.5694 16.7308 21.5373 16.7485 21.4805 16.7485H18.1387C18.0818 16.7485 18.0497 16.7308 18.0322 16.7134C18.0148 16.6959 17.9961 16.6632 17.9961 16.606C17.9962 16.549 18.0148 16.5169 18.0322 16.4995C18.0497 16.4821 18.0817 16.4634 18.1387 16.4634H21.3379V11.5044Z" stroke="#442917" stroke-width="0.396773"/>
<path d="M14.5938 8.44995H17.3896C17.449 8.44995 17.4936 8.47565 17.5312 8.53198L19.5674 11.9255C19.5756 11.9427 19.5759 11.9485 19.5762 11.95C19.5772 11.9563 19.5781 11.9647 19.5781 12.0027V12.7185C19.5781 12.7756 19.5604 12.8085 19.543 12.8259C19.5255 12.8434 19.4927 12.8611 19.4355 12.8611H14.5938C14.537 12.8611 14.5048 12.8433 14.4873 12.8259C14.4698 12.8085 14.4512 12.7757 14.4512 12.7185V8.59253C14.4512 8.53542 14.4699 8.50353 14.4873 8.48608C14.5047 8.46864 14.5366 8.44998 14.5938 8.44995ZM19.293 12.0496L19.2646 12.0027L17.3555 8.83179L17.2969 8.73511H14.7363V12.5759H19.293V12.0496Z" stroke="#442917" stroke-width="0.396773"/>
<path d="M3.78418 15.031C4.93604 15.031 5.90409 15.9992 5.9043 17.1511C5.9043 18.3032 4.93617 19.2722 3.78418 19.2722C2.63228 19.2721 1.66406 18.3032 1.66406 17.1511C1.66427 15.9992 2.6324 15.0311 3.78418 15.031ZM3.78418 15.3162C2.7883 15.3163 1.94943 16.1552 1.94922 17.1511C1.94922 18.1472 2.78818 18.9869 3.78418 18.9871C4.78027 18.9871 5.61914 18.1472 5.61914 17.1511C5.61893 16.1552 4.78014 15.3162 3.78418 15.3162Z" stroke="#442917" stroke-width="0.396773"/>
<path d="M3.78516 16.1899C4.32335 16.1899 4.746 16.6126 4.74609 17.1509C4.74609 17.6892 4.32341 18.1118 3.78516 18.1118C3.24695 18.1118 2.82422 17.6892 2.82422 17.1509C2.82432 16.6127 3.24701 16.19 3.78516 16.1899ZM3.78516 16.4751C3.40292 16.4751 3.10947 16.7687 3.10938 17.1509C3.10938 17.5332 3.40285 17.8266 3.78516 17.8267C4.16751 17.8267 4.46094 17.5332 4.46094 17.1509C4.46084 16.7686 4.16745 16.4751 3.78516 16.4751Z" stroke="#442917" stroke-width="0.396773"/>
<path d="M16.2305 16.1902C16.7687 16.1902 17.1913 16.6129 17.1914 17.1511C17.1914 17.6895 16.7687 18.1121 16.2305 18.1121C15.6923 18.112 15.2695 17.6894 15.2695 17.1511C15.2696 16.6129 15.6923 16.1902 16.2305 16.1902ZM16.2305 16.4753C15.8482 16.4754 15.5548 16.7689 15.5547 17.1511C15.5547 17.5334 15.8482 17.8269 16.2305 17.8269C16.6128 17.8269 16.9062 17.5335 16.9062 17.1511C16.9062 16.7689 16.6128 16.4753 16.2305 16.4753Z" stroke="#442917" stroke-width="0.396773"/>
<path d="M16.2295 15.031C17.4136 15.031 18.3494 15.9973 18.3496 17.1511C18.3496 18.3032 17.3815 19.2722 16.2295 19.2722C15.0776 19.2721 14.1094 18.3032 14.1094 17.1511C14.1096 15.9992 15.0777 15.0311 16.2295 15.031ZM16.2295 15.3162C15.2336 15.3163 14.3947 16.1552 14.3945 17.1511C14.3945 18.1472 15.2335 18.9869 16.2295 18.9871C17.2256 18.9871 18.0645 18.1472 18.0645 17.1511C18.0642 16.1552 17.2255 15.3162 16.2295 15.3162Z" stroke="#442917" stroke-width="0.396773"/>
<path d="M2.62598 7.69971H10.2637C10.3209 7.69971 10.3536 7.71838 10.3711 7.73584C10.3884 7.75337 10.4062 7.7856 10.4062 7.84229C10.4062 7.89943 10.3885 7.93223 10.3711 7.94971C10.3536 7.96717 10.3209 7.98486 10.2637 7.98486H2.62598C2.56921 7.98483 2.53705 7.96705 2.51953 7.94971C2.50207 7.93225 2.4834 7.8995 2.4834 7.84229C2.48343 7.78517 2.50209 7.75328 2.51953 7.73584C2.53697 7.7184 2.56886 7.69974 2.62598 7.69971Z" stroke="#442917" stroke-width="0.396773"/>
<path d="M2.62598 10.2568H10.2637C10.3209 10.2568 10.3536 10.2755 10.3711 10.293C10.3884 10.3105 10.4062 10.3427 10.4062 10.3994C10.4062 10.4566 10.3885 10.4894 10.3711 10.5068C10.3536 10.5243 10.3209 10.542 10.2637 10.542H2.62598C2.56921 10.542 2.53705 10.5242 2.51953 10.5068C2.50207 10.4894 2.4834 10.4566 2.4834 10.3994C2.48343 10.3423 2.50209 10.3104 2.51953 10.293C2.53697 10.2755 2.56886 10.2569 2.62598 10.2568Z" stroke="#442917" stroke-width="0.396773"/>
<path d="M2.62598 12.8145H10.2637C10.3209 12.8145 10.3536 12.8331 10.3711 12.8506C10.3884 12.8681 10.4062 12.9003 10.4062 12.957C10.4062 13.0142 10.3885 13.047 10.3711 13.0645C10.3536 13.0819 10.3209 13.0996 10.2637 13.0996H2.62598C2.56921 13.0996 2.53705 13.0818 2.51953 13.0645C2.50207 13.047 2.4834 13.0142 2.4834 12.957C2.48343 12.8999 2.50209 12.868 2.51953 12.8506C2.53697 12.8331 2.56886 12.8145 2.62598 12.8145Z" stroke="#442917" stroke-width="0.396773"/>
<path d="M3.1709 0.198242H8.14941C8.20644 0.198304 8.23843 0.216946 8.25586 0.234375C8.27328 0.251835 8.29196 0.283789 8.29199 0.34082C8.29199 0.398039 8.27332 0.430782 8.25586 0.448242C8.23838 0.465596 8.20617 0.483337 8.14941 0.483398H3.1709C3.11413 0.483368 3.08197 0.465589 3.06445 0.448242C3.04699 0.430782 3.02832 0.398039 3.02832 0.34082C3.02836 0.28371 3.04701 0.251818 3.06445 0.234375C3.0819 0.216931 3.11379 0.198273 3.1709 0.198242Z" stroke="#442917" stroke-width="0.396773"/>
<path d="M1.73926 2.10742H6.71777C6.77479 2.10748 6.80679 2.12613 6.82422 2.14355C6.84164 2.16101 6.86032 2.19297 6.86035 2.25C6.86035 2.30722 6.84168 2.33996 6.82422 2.35742C6.80674 2.37478 6.77453 2.39252 6.71777 2.39258H1.73926C1.68249 2.39255 1.65033 2.37477 1.63281 2.35742C1.61535 2.33996 1.59668 2.30722 1.59668 2.25C1.59672 2.19289 1.61537 2.161 1.63281 2.14355C1.65025 2.12611 1.68215 2.10745 1.73926 2.10742Z" stroke="#442917" stroke-width="0.396773"/>
</svg>
