<svg width="22" height="20" viewBox="0 0 22 20" fill="none" xmlns="http://www.w3.org/2000/svg">
<path d="M16.3662 11.4785C16.404 11.4785 16.4401 11.4938 16.4668 11.5205C16.4935 11.5472 16.5088 11.5833 16.5088 11.6211V16.0684C16.5088 16.2873 16.422 16.4972 16.2676 16.6523C16.1131 16.8074 15.9035 16.8956 15.6846 16.8965H6.13867C5.91963 16.8957 5.70927 16.8076 5.55469 16.6523C5.40028 16.4972 5.31351 16.2872 5.31348 16.0684V11.6211C5.31348 11.5833 5.32876 11.5472 5.35547 11.5205C5.38217 11.4938 5.41829 11.4785 5.45605 11.4785C5.49381 11.4785 5.52994 11.4938 5.55664 11.5205C5.58333 11.5472 5.59863 11.5833 5.59863 11.6211V16.0684C5.59875 16.2111 5.65499 16.3482 5.75586 16.4492C5.85697 16.5503 5.99469 16.6074 6.1377 16.6074H15.6846C15.8276 16.6074 15.9653 16.5503 16.0664 16.4492C16.1673 16.3482 16.2235 16.2111 16.2236 16.0684V11.6211C16.2236 11.5834 16.239 11.5472 16.2656 11.5205C16.2923 11.4938 16.3285 11.4785 16.3662 11.4785Z" stroke="#442917" stroke-width="0.396774"/>
<path d="M4.77441 7.71582H17.0488C17.0865 7.7159 17.1228 7.73118 17.1494 7.75781C17.176 7.7845 17.1914 7.8207 17.1914 7.8584V9.22656C17.1916 9.62666 17.0324 10.0106 16.75 10.2939C16.4676 10.5772 16.0845 10.7371 15.6846 10.7383H6.1377L5.98926 10.7305C5.64403 10.6952 5.31935 10.5419 5.07227 10.2939C4.79005 10.0106 4.63167 9.62651 4.63184 9.22656V7.8584C4.63184 7.82062 4.64712 7.78452 4.67383 7.75781C4.70053 7.73111 4.73665 7.71582 4.77441 7.71582ZM4.91602 9.22656C4.91591 9.55061 5.04473 9.86126 5.27344 10.0908C5.50203 10.3202 5.81189 10.45 6.13574 10.4512H15.6855C16.0095 10.4501 16.3201 10.3204 16.5488 10.0908C16.7774 9.86126 16.9055 9.55051 16.9053 9.22656V8.00195H4.91602V9.22656Z" stroke="#442917" stroke-width="0.396774"/>
<path d="M9.54688 12.8452H12.2734C12.2921 12.8453 12.3109 12.8488 12.3281 12.856C12.3453 12.8631 12.3609 12.874 12.374 12.8872C12.3873 12.9005 12.3981 12.9167 12.4053 12.9341C12.4123 12.9513 12.4161 12.9702 12.416 12.9888V15.7261C12.4159 15.7637 12.4007 15.8 12.374 15.8267C12.3474 15.8533 12.3111 15.8686 12.2734 15.8687C12.2358 15.8687 12.1995 15.8532 12.1729 15.8267C12.1462 15.8 12.1309 15.7638 12.1309 15.7261V13.1323H11.0527V15.7261C11.0527 15.7638 11.0374 15.8 11.0107 15.8267C10.9841 15.8533 10.9478 15.8686 10.9102 15.8687C10.8725 15.8687 10.8363 15.8532 10.8096 15.8267C10.7829 15.8 10.7676 15.7638 10.7676 15.7261V13.1323H9.68945V15.7241C9.68945 15.7618 9.67405 15.798 9.64746 15.8247C9.62076 15.8514 9.58463 15.8667 9.54688 15.8667C9.50911 15.8667 9.473 15.8514 9.44629 15.8247C9.41968 15.798 9.4043 15.7618 9.4043 15.7241V12.9878C9.4043 12.95 9.41958 12.9139 9.44629 12.8872C9.473 12.8605 9.50911 12.8452 9.54688 12.8452Z" stroke="#442917" stroke-width="0.396774"/>
<path d="M10.9111 0.198242C11.2432 0.198242 11.5721 0.263601 11.8789 0.390625C12.1858 0.517739 12.4653 0.704576 12.7002 0.939453C12.9349 1.17425 13.121 1.45305 13.248 1.75977C13.3751 2.06657 13.4404 2.39546 13.4404 2.72754C13.4404 3.57727 12.8801 4.51454 12.2695 5.27441C11.6674 6.02377 11.0519 6.55781 11.0049 6.59766L11.0039 6.59863C10.9781 6.62078 10.9451 6.63281 10.9111 6.63281L10.8623 6.62402C10.8467 6.61827 10.8311 6.60964 10.8184 6.59863C10.765 6.55256 10.1522 6.01934 9.55273 5.27344C8.94201 4.51351 8.38184 3.57654 8.38184 2.72754C8.38187 2.39548 8.44716 2.06656 8.57422 1.75977C8.70133 1.45288 8.88818 1.17433 9.12305 0.939453C9.35791 0.704584 9.6365 0.517736 9.94336 0.390625C10.2502 0.263558 10.5791 0.198259 10.9111 0.198242ZM10.9102 0.475586C10.3148 0.47768 9.74445 0.71598 9.32422 1.1377C8.90394 1.55954 8.66784 2.13109 8.66797 2.72656C8.66797 3.36243 9.03043 4.06061 9.45508 4.66406C9.88546 5.27566 10.4062 5.82614 10.7754 6.17383L10.9111 6.30176L11.0469 6.17383C11.4167 5.82668 11.938 5.27671 12.3682 4.66504C12.7927 4.06136 13.1543 3.36238 13.1543 2.72656C13.1545 2.13106 12.9183 1.55956 12.498 1.1377C12.0777 0.715979 11.5075 0.477524 10.9121 0.475586H10.9102Z" stroke="#442917" stroke-width="0.396774"/>
<path d="M10.7441 1.573C10.9049 1.54078 11.0721 1.55632 11.2236 1.6189C11.3751 1.68148 11.5046 1.78832 11.5957 1.92456C11.6867 2.06072 11.7353 2.22075 11.7354 2.38452C11.7355 2.60359 11.6487 2.81427 11.4941 2.96948C11.3397 3.12451 11.13 3.21182 10.9111 3.21265H10.9102C10.7464 3.21321 10.5857 3.16546 10.4492 3.07495C10.3128 2.98439 10.2067 2.85498 10.1436 2.70386C10.0804 2.55266 10.0632 2.38613 10.0947 2.22534C10.1263 2.06462 10.2048 1.91664 10.3203 1.80054C10.4359 1.6845 10.5836 1.60528 10.7441 1.573ZM10.9111 1.84448C10.8047 1.84454 10.7008 1.87624 10.6123 1.9353C10.5236 1.99455 10.4539 2.07897 10.4131 2.17749C10.3724 2.27595 10.362 2.38451 10.3828 2.48901C10.4036 2.59343 10.455 2.68908 10.5303 2.7644C10.6057 2.83981 10.702 2.89204 10.8066 2.91284C10.9111 2.93352 11.0198 2.92234 11.1182 2.88159C11.2164 2.8408 11.3002 2.77176 11.3594 2.68335C11.4186 2.59468 11.4502 2.49018 11.4502 2.38354C11.4502 2.24072 11.3939 2.10375 11.293 2.00269C11.1919 1.90157 11.0541 1.84448 10.9111 1.84448Z" stroke="#442917" stroke-width="0.396774"/>
<path d="M17.3125 13.8574C17.3445 13.8372 17.383 13.8307 17.4199 13.8389C18.8148 14.1545 19.8799 14.5528 20.5908 15.0039C21.3052 15.4573 21.624 15.9368 21.624 16.4102C21.624 16.8718 21.3327 17.3117 20.7471 17.7197C20.1635 18.1262 19.3199 18.4768 18.2969 18.7627C16.2527 19.3339 13.5436 19.6328 10.9111 19.6328C8.27864 19.6328 5.56965 19.3339 3.52539 18.7627C2.50198 18.4767 1.65782 18.1264 1.07422 17.7197C0.488589 17.3117 0.198242 16.8718 0.198242 16.4102C0.198303 15.9368 0.516986 15.4573 1.23145 15.0039C1.94232 14.5528 3.0069 14.1545 4.40137 13.8389C4.43851 13.8305 4.47761 13.837 4.50977 13.8574C4.54186 13.8778 4.56492 13.9102 4.57324 13.9473C4.58154 13.9844 4.57407 14.0235 4.55371 14.0557C4.54362 14.0715 4.53068 14.085 4.51562 14.0957L4.46387 14.1191C3.29182 14.3844 2.31581 14.7263 1.62793 15.1035C1.2844 15.2919 1.00439 15.4942 0.807617 15.7061C0.61186 15.9168 0.483444 16.1544 0.483398 16.4102C0.483398 16.8424 0.826782 17.2274 1.32422 17.5508C1.83497 17.8828 2.56905 18.1912 3.48047 18.4551C5.30616 18.9837 7.88318 19.3457 10.9111 19.3457C13.9389 19.3457 16.5152 18.9828 18.3408 18.4541C19.2524 18.1901 19.9872 17.8828 20.498 17.5508C20.9954 17.2275 21.3389 16.8422 21.3389 16.4102C21.3388 16.1541 21.2105 15.916 21.0146 15.7051C20.8179 15.4932 20.5377 15.2918 20.1943 15.1035C19.5065 14.7265 18.5305 14.3844 17.3584 14.1191H17.3574C17.3204 14.1108 17.2879 14.0877 17.2676 14.0557C17.2472 14.0235 17.2407 13.9844 17.249 13.9473C17.2574 13.9101 17.2803 13.8778 17.3125 13.8574Z" stroke="#442917" stroke-width="0.396774"/>
<path d="M13.4668 4.97778H15.6787L15.7744 4.98657C15.8703 5.00141 15.963 5.03411 16.0479 5.08228C16.1604 5.14621 16.256 5.23618 16.3262 5.34497L17.1709 6.75806C17.1902 6.79065 17.1956 6.82965 17.1865 6.86646C17.1773 6.9035 17.1537 6.93556 17.1211 6.95532C17.0993 6.96848 17.0743 6.97583 17.0488 6.97583C17.0242 6.97587 16.9999 6.96935 16.9785 6.95728C16.957 6.94512 16.9384 6.92768 16.9258 6.90649L16.0791 5.4895L16.0723 5.47778L16.0645 5.46802L15.9922 5.39282C15.9133 5.32512 15.8154 5.28097 15.7109 5.26685L15.6982 5.26489H13.4668C13.4288 5.26484 13.3921 5.24979 13.3652 5.2229C13.3384 5.19599 13.3232 5.15933 13.3232 5.12134C13.3233 5.08332 13.3384 5.04666 13.3652 5.01978C13.3921 4.99289 13.4288 4.97783 13.4668 4.97778Z" stroke="#442917" stroke-width="0.396774"/>
<path d="M8.35645 4.97778C8.39438 4.97789 8.43117 4.99294 8.45801 5.01978C8.48482 5.04665 8.49995 5.08337 8.5 5.12134C8.5 5.15928 8.48475 5.196 8.45801 5.2229C8.43117 5.24974 8.39438 5.26479 8.35645 5.26489H6.125L6.1123 5.26685C5.9733 5.2857 5.84614 5.35729 5.75879 5.46704L5.75098 5.47778L5.74414 5.4895L4.89648 6.90649C4.88385 6.92752 4.86607 6.94518 4.84473 6.95728C4.82332 6.96938 4.79901 6.97585 4.77441 6.97583H4.77344C4.74837 6.97584 4.72384 6.96886 4.70215 6.9563C4.68038 6.94362 4.66184 6.92548 4.64941 6.90356C4.63706 6.88164 4.63052 6.85646 4.63086 6.8313C4.63128 6.80602 4.63823 6.78064 4.65137 6.75903L4.65234 6.75806L5.49609 5.34497L5.49707 5.34595C5.5672 5.23681 5.66261 5.14636 5.77539 5.08228C5.86021 5.03413 5.95297 5.00139 6.04883 4.98657L6.14551 4.97778H8.35645Z" stroke="#442917" stroke-width="0.396774"/>
</svg>
