<svg width="19" height="19" viewBox="0 0 19 19" fill="none" xmlns="http://www.w3.org/2000/svg">
<path d="M1.79004 6.35331L4.30594 3.8374" stroke="#442917" stroke-width="0.59516" stroke-miterlimit="10" stroke-linecap="round" stroke-linejoin="round"/>
<path d="M3.16992 7.73341L4.17628 6.72705" stroke="#442917" stroke-width="0.59516" stroke-miterlimit="10" stroke-linecap="round" stroke-linejoin="round"/>
<path d="M10.8135 15.377L11.8198 14.3706" stroke="#442917" stroke-width="0.59516" stroke-miterlimit="10" stroke-linecap="round" stroke-linejoin="round"/>
<path d="M12.252 16.8155L14.7679 14.2988" stroke="#442917" stroke-width="0.59516" stroke-miterlimit="10" stroke-linecap="round" stroke-linejoin="round"/>
<path d="M2.43903 12.1614C2.38871 12.2117 0.393944 17.2888 0.393944 17.2888C0.223068 17.7013 0.682781 18.207 1.12942 18.0243C1.12942 18.0243 6.23297 16.0553 6.28344 16.0049" stroke="#442917" stroke-width="0.59516" stroke-miterlimit="10" stroke-linecap="round" stroke-linejoin="round"/>
<path d="M1.1709 15.3208L3.10881 17.2587" stroke="#442917" stroke-width="0.59516" stroke-miterlimit="10" stroke-linecap="round" stroke-linejoin="round"/>
<path d="M17.3681 2.72526L15.5802 0.937358C15.0419 0.399136 14.1694 0.399136 13.6311 0.937358L2.42383 12.1447L6.29989 16.0207L17.3681 4.95249C17.9831 4.33749 17.9831 3.34034 17.3681 2.72526Z" stroke="#442917" stroke-width="0.59516" stroke-miterlimit="10" stroke-linecap="round" stroke-linejoin="round"/>
<path d="M8.58395 3.97602L4.9057 0.297607L0.297852 4.90545L3.97611 8.58363" stroke="#442917" stroke-width="0.59516" stroke-miterlimit="10" stroke-linecap="round" stroke-linejoin="round"/>
<path d="M9.87012 14.4784L13.6672 18.2754L18.275 13.6678L14.478 9.87061" stroke="#442917" stroke-width="0.59516" stroke-miterlimit="10" stroke-linecap="round" stroke-linejoin="round"/>
<path d="M4.63965 14.3607L13.7756 5.22388" stroke="#442917" stroke-width="0.59516" stroke-miterlimit="10" stroke-linecap="round" stroke-linejoin="round"/>
</svg>
