<svg width="22" height="20" viewBox="0 0 22 20" fill="none" xmlns="http://www.w3.org/2000/svg">
<path d="M1.05664 4.05145H12.5137C12.5707 4.05151 12.6027 4.07015 12.6201 4.08759C12.6375 4.10504 12.6562 4.13699 12.6562 4.19403V16.6061C12.6562 16.6634 12.6376 16.6961 12.6201 16.7136C12.6026 16.7309 12.5704 16.7487 12.5137 16.7487H5.69434C5.63719 16.7487 5.60438 16.731 5.58691 16.7136C5.56946 16.6961 5.55176 16.6634 5.55176 16.6061C5.55178 16.5494 5.56957 16.5172 5.58691 16.4997C5.60437 16.4822 5.63713 16.4636 5.69434 16.4636H12.3711V4.33661H1.05664C0.686209 4.33681 0.483624 4.65402 0.483398 4.90985V15.8903C0.483494 16.2609 0.80074 16.4634 1.05664 16.4636H1.875C1.9322 16.4636 1.96496 16.4822 1.98242 16.4997C1.99978 16.5172 2.01756 16.5493 2.01758 16.6061C2.01758 16.6634 1.99988 16.6961 1.98242 16.7136C1.96494 16.731 1.9321 16.7487 1.875 16.7487H1.05664C0.586793 16.7485 0.198335 16.3603 0.198242 15.8903V4.90985C0.198478 4.44003 0.58688 4.05165 1.05664 4.05145Z" stroke="#442917" stroke-width="0.396773"/>
<path d="M21.3389 11.504L21.3105 11.4572L18.4121 6.61536L18.3545 6.51868H12.6562V16.463H14.3213C14.3783 16.4631 14.4103 16.4817 14.4277 16.4991C14.4452 16.5166 14.4638 16.5486 14.4639 16.6056C14.4639 16.6628 14.4452 16.6956 14.4277 16.713C14.4103 16.7304 14.3781 16.7481 14.3213 16.7482H12.5137C12.4568 16.7481 12.4247 16.7304 12.4072 16.713C12.3898 16.6956 12.3711 16.6628 12.3711 16.6056V6.3761C12.3711 6.31899 12.3898 6.2871 12.4072 6.26965C12.4247 6.25221 12.4566 6.23355 12.5137 6.23352H18.4463C18.5035 6.23352 18.5472 6.25746 18.584 6.30969L21.6182 11.3878L21.6211 11.3937C21.6215 11.3984 21.6228 11.405 21.623 11.4132C21.6234 11.4259 21.624 11.4397 21.624 11.4572V16.6056C21.624 16.6628 21.6053 16.6956 21.5879 16.713C21.5704 16.7304 21.5383 16.7481 21.4814 16.7482H18.1396C18.0828 16.7482 18.0507 16.7304 18.0332 16.713C18.0157 16.6956 17.9971 16.6628 17.9971 16.6056C17.9971 16.5486 18.0158 16.5166 18.0332 16.4991C18.0507 16.4817 18.0826 16.463 18.1396 16.463H21.3389V11.504Z" stroke="#442917" stroke-width="0.396773"/>
<path d="M14.594 8.44989H17.3899C17.4492 8.44989 17.4938 8.47559 17.5315 8.53192L19.5676 11.9255C19.5759 11.9426 19.5762 11.9485 19.5764 11.9499C19.5775 11.9562 19.5784 11.9646 19.5784 12.0026V12.7184C19.5784 12.7756 19.5606 12.8084 19.5432 12.8259C19.5258 12.8433 19.493 12.861 19.4358 12.861H14.594C14.5372 12.861 14.5051 12.8432 14.4875 12.8259C14.4701 12.8084 14.4514 12.7757 14.4514 12.7184V8.59247C14.4515 8.53536 14.4701 8.50347 14.4875 8.48602C14.505 8.46858 14.5369 8.44992 14.594 8.44989ZM19.2932 12.0495L19.2649 12.0026L17.3557 8.83173L17.2971 8.73505H14.7366V12.5759H19.2932V12.0495Z" stroke="#442917" stroke-width="0.396773"/>
<path d="M3.78491 15.0306C4.93678 15.0306 5.90482 15.9988 5.90503 17.1508C5.90503 18.3029 4.9369 19.2719 3.78491 19.2719C2.63301 19.2717 1.66479 18.3028 1.66479 17.1508C1.665 15.9989 2.63313 15.0308 3.78491 15.0306ZM3.78491 15.3158C2.78904 15.3159 1.95016 16.1549 1.94995 17.1508C1.94995 18.1468 2.78891 18.9866 3.78491 18.9867C4.781 18.9867 5.61987 18.1469 5.61987 17.1508C5.61966 16.1548 4.78088 15.3158 3.78491 15.3158Z" stroke="#442917" stroke-width="0.396773"/>
<path d="M3.78479 16.1899C4.32298 16.1899 4.74563 16.6126 4.74573 17.1508C4.74573 17.6891 4.32304 18.1118 3.78479 18.1118C3.24658 18.1117 2.82385 17.6891 2.82385 17.1508C2.82395 16.6126 3.24665 16.1899 3.78479 16.1899ZM3.78479 16.475C3.40255 16.4751 3.1091 16.7686 3.10901 17.1508C3.10901 17.5331 3.40249 17.8265 3.78479 17.8266C4.16714 17.8266 4.46057 17.5332 4.46057 17.1508C4.46048 16.7686 4.16708 16.475 3.78479 16.475Z" stroke="#442917" stroke-width="0.396773"/>
<path d="M16.2306 16.19C16.7688 16.19 17.1914 16.6127 17.1915 17.1509C17.1915 17.6893 16.7688 18.1119 16.2306 18.1119C15.6924 18.1118 15.2697 17.6892 15.2697 17.1509C15.2698 16.6127 15.6924 16.1901 16.2306 16.19ZM16.2306 16.4752C15.8483 16.4752 15.5549 16.7687 15.5548 17.1509C15.5548 17.5333 15.8483 17.8267 16.2306 17.8267C16.6129 17.8267 16.9064 17.5333 16.9064 17.1509C16.9063 16.7687 16.6129 16.4752 16.2306 16.4752Z" stroke="#442917" stroke-width="0.396773"/>
<path d="M16.2302 15.0306C17.4143 15.0306 18.3501 15.9968 18.3503 17.1507C18.3503 18.3028 17.3822 19.2718 16.2302 19.2718C15.0783 19.2717 14.1101 18.3027 14.1101 17.1507C14.1103 15.9988 15.0784 15.0307 16.2302 15.0306ZM16.2302 15.3157C15.2343 15.3158 14.3955 16.1548 14.3953 17.1507C14.3953 18.1468 15.2342 18.9865 16.2302 18.9866C17.2263 18.9866 18.0652 18.1468 18.0652 17.1507C18.065 16.1547 17.2262 15.3157 16.2302 15.3157Z" stroke="#442917" stroke-width="0.396773"/>
<path d="M2.62622 7.69971H10.2639C10.3211 7.69971 10.3539 7.71838 10.3713 7.73584C10.3887 7.75337 10.4065 7.7856 10.4065 7.84229C10.4065 7.89943 10.3888 7.93223 10.3713 7.94971C10.3539 7.96717 10.3211 7.98486 10.2639 7.98486H2.62622C2.56945 7.98483 2.53729 7.96705 2.51978 7.94971C2.50232 7.93225 2.48364 7.8995 2.48364 7.84229C2.48368 7.78517 2.50233 7.75328 2.51978 7.73584C2.53722 7.7184 2.56911 7.69974 2.62622 7.69971Z" stroke="#442917" stroke-width="0.396773"/>
<path d="M2.62622 10.2567H10.2639C10.3211 10.2567 10.3539 10.2754 10.3713 10.2928C10.3887 10.3104 10.4065 10.3426 10.4065 10.3993C10.4065 10.4564 10.3888 10.4892 10.3713 10.5067C10.3539 10.5242 10.3211 10.5419 10.2639 10.5419H2.62622C2.56945 10.5418 2.53729 10.5241 2.51978 10.5067C2.50232 10.4893 2.48364 10.4565 2.48364 10.3993C2.48368 10.3422 2.50233 10.3103 2.51978 10.2928C2.53722 10.2754 2.56911 10.2567 2.62622 10.2567Z" stroke="#442917" stroke-width="0.396773"/>
<path d="M2.62622 12.8143H10.2639C10.3211 12.8143 10.3539 12.833 10.3713 12.8505C10.3887 12.868 10.4065 12.9002 10.4065 12.9569C10.4065 13.014 10.3888 13.0469 10.3713 13.0643C10.3539 13.0818 10.3211 13.0995 10.2639 13.0995H2.62622C2.56945 13.0995 2.53729 13.0817 2.51978 13.0643C2.50232 13.0469 2.48364 13.0141 2.48364 12.9569C2.48368 12.8998 2.50233 12.8679 2.51978 12.8505C2.53722 12.833 2.56911 12.8144 2.62622 12.8143Z" stroke="#442917" stroke-width="0.396773"/>
<path d="M3.17163 0.198242H8.15015C8.20717 0.198304 8.23916 0.216946 8.25659 0.234375C8.27401 0.251835 8.29269 0.283789 8.29272 0.34082C8.29272 0.398039 8.27405 0.430783 8.25659 0.448242C8.23911 0.465596 8.2069 0.483337 8.15015 0.483398H3.17163C3.11486 0.483368 3.0827 0.465589 3.06519 0.448242C3.04773 0.430782 3.02905 0.398039 3.02905 0.34082C3.02909 0.28371 3.04774 0.251818 3.06519 0.234375C3.08263 0.216931 3.11452 0.198273 3.17163 0.198242Z" stroke="#442917" stroke-width="0.396773"/>
<path d="M1.73938 2.10736H6.7179C6.77492 2.10742 6.80691 2.12606 6.82434 2.14349C6.84176 2.16095 6.86044 2.19291 6.86047 2.24994C6.86047 2.30716 6.8418 2.3399 6.82434 2.35736C6.80686 2.37472 6.77465 2.39246 6.7179 2.39252H1.73938C1.68261 2.39249 1.65045 2.37471 1.63293 2.35736C1.61548 2.3399 1.5968 2.30716 1.5968 2.24994C1.59684 2.19283 1.61549 2.16094 1.63293 2.14349C1.65038 2.12605 1.68227 2.10739 1.73938 2.10736Z" stroke="#442917" stroke-width="0.396773"/>
</svg>
