<svg width="44" height="44" viewBox="0 0 44 44" fill="none" xmlns="http://www.w3.org/2000/svg">
<mask id="mask0_444_575" style="mask-type:luminance" maskUnits="userSpaceOnUse" x="0" y="-1" width="44" height="45">
<path d="M43.0503 43.0501V0.595036H0.595215V43.0501H43.0503Z" fill="white" stroke="white" stroke-width="1.19032"/>
</mask>
<g mask="url(#mask0_444_575)">
<path d="M27.0455 35.3544V29.6047C27.0455 29.2935 26.927 28.9935 26.7148 28.7667L24.6706 26.5828C24.4387 26.3356 24.1148 26.1949 23.7755 26.1949H21.5822H17.7539C17.2509 26.1949 16.8171 26.4984 16.6287 26.9331V26.934C16.563 27.0831 16.5272 27.2485 16.5272 27.4216V32.2381" stroke="#0094D9" stroke-width="1.19032" stroke-miterlimit="10" stroke-linecap="round" stroke-linejoin="round"/>
<path d="M18.3986 20.949L21.2423 25.3459C21.4145 25.6128 21.5261 25.9009 21.5807 26.195" stroke="#0094D9" stroke-width="1.19032" stroke-miterlimit="10" stroke-linecap="round" stroke-linejoin="round"/>
<path d="M13.8369 18.2571C13.1353 18.7106 12.7543 19.4718 12.7543 20.2493C12.7543 20.69 12.8769 21.1359 13.1336 21.5331L16.6268 26.9341" stroke="#0094D9" stroke-width="1.19032" stroke-miterlimit="10" stroke-linecap="round" stroke-linejoin="round"/>
<path d="M22.8875 13.8853L24.1098 15.7755C24.4827 16.3521 24.3175 17.1218 23.7409 17.4948L16.4098 22.2355C15.3112 22.9459 13.8446 22.6313 13.1342 21.5326C12.4238 20.434 12.7385 18.9676 13.8371 18.2571L21.1682 13.5164C21.7449 13.1435 22.5146 13.3086 22.8875 13.8853Z" stroke="#0094D9" stroke-width="1.19032" stroke-miterlimit="10" stroke-linecap="round" stroke-linejoin="round"/>
<path d="M24.9422 13.8218L23.474 14.7924" stroke="#0094D9" stroke-width="1.19032" stroke-miterlimit="10" stroke-linecap="round" stroke-linejoin="round"/>
<path d="M21.8234 36.3231V33.004" stroke="#0094D9" stroke-width="1.19032" stroke-miterlimit="10" stroke-linecap="round" stroke-linejoin="round"/>
<path d="M30.5563 33.3994V23.0157C30.5563 22.1702 31.2416 21.4856 32.0863 21.4856H36.3204" stroke="#0094D9" stroke-width="1.19032" stroke-miterlimit="10" stroke-linecap="round" stroke-linejoin="round"/>
<path d="M23.2984 7.39475C30.614 8.13433 36.3238 14.3113 36.3238 21.8218C36.3238 29.8306 29.8313 36.3231 21.8225 36.3231C13.8136 36.3231 7.32117 29.8306 7.32117 21.8218C7.32117 14.3227 13.0135 8.15317 20.313 7.39825" stroke="#0094D9" stroke-width="1.19032" stroke-miterlimit="10" stroke-linecap="round" stroke-linejoin="round"/>
<path d="M41.2152 17.4202H39.1857C38.7569 15.7239 38.0859 14.1243 37.2119 12.6597L38.6483 11.2233C39.3477 10.524 39.3477 9.39012 38.6483 8.69078L34.9548 4.99723C34.2554 4.29788 33.1215 4.29788 32.4223 4.99723L30.9858 6.43359C29.5211 5.55958 27.9215 4.88854 26.2253 4.45976V2.43027C26.2253 1.44135 25.4235 0.639539 24.4345 0.639539H19.2109C18.222 0.639539 17.4201 1.44135 17.4201 2.43027V4.45976C15.7239 4.88854 14.1243 5.55958 12.6597 6.43359L11.2232 4.99723C10.5239 4.29788 9.39002 4.29788 8.69068 4.99723L4.99713 8.69078C4.29779 9.39012 4.29779 10.524 4.99713 11.2233L6.43358 12.6597C5.55957 14.1243 4.88853 15.7239 4.45967 17.4202H2.43025C1.44125 17.4202 0.639526 18.222 0.639526 19.211V24.4345C0.639526 25.4236 1.44125 26.2254 2.43025 26.2254H4.45967C4.88853 27.9216 5.55957 29.5212 6.43358 30.9859L4.99713 32.4222C4.29779 33.1215 4.29779 34.2555 4.99713 34.9548L8.69068 38.6484C9.39002 39.3477 10.5239 39.3477 11.2232 38.6484L12.6597 37.212C14.1243 38.086 15.7238 38.757 17.4201 39.1858V41.2153C17.4201 42.2042 18.222 43.006 19.2109 43.006H24.4345C25.4235 43.006 26.2253 42.2042 26.2253 41.2153V39.1858C27.9216 38.757 29.5211 38.086 30.9858 37.212L32.4223 38.6484C33.1215 39.3477 34.2554 39.3477 34.9548 38.6484L38.6483 34.9548C39.3477 34.2555 39.3477 33.1215 38.6483 32.4222L37.2119 30.9859C38.0859 29.5212 38.7569 27.9216 39.1857 26.2254H41.2152C42.2042 26.2254 43.0059 25.4236 43.0059 24.4345V19.211C43.0059 18.222 42.2042 17.4202 41.2152 17.4202Z" stroke="#0094D9" stroke-width="1.19032" stroke-miterlimit="10" stroke-linecap="round" stroke-linejoin="round"/>
<path d="M33.2217 24.4484C33.2895 24.4484 33.3446 24.3931 33.3447 24.3254C33.3447 24.2576 33.2896 24.2023 33.2217 24.2023C33.154 24.2025 33.0986 24.2577 33.0986 24.3254C33.0988 24.3931 33.1542 24.4483 33.2217 24.4484Z" fill="black" stroke="#0094D9" stroke-width="1.19032"/>
</g>
</svg>
