<svg width="22" height="22" viewBox="0 0 22 22" fill="none" xmlns="http://www.w3.org/2000/svg">
<path d="M7.47461 12.6807H12.0967C12.1772 12.6807 12.2432 12.7466 12.2432 12.8271C12.2431 12.9077 12.1772 12.9736 12.0967 12.9736H7.47461C7.39404 12.9736 7.32821 12.9077 7.32812 12.8271C7.32812 12.7465 7.39401 12.6807 7.47461 12.6807Z" stroke="#442917" stroke-width="0.396773"/>
<path d="M10.7285 12.6807C10.8089 12.6808 10.874 12.7466 10.874 12.8271V21.123C10.8739 21.2034 10.8088 21.2685 10.7285 21.2686C10.648 21.2686 10.5822 21.2036 10.582 21.123V12.8271C10.582 12.7465 10.6479 12.6807 10.7285 12.6807Z" stroke="#442917" stroke-width="0.396773"/>
<path d="M3.00488 0.198242C4.23656 0.198242 5.2373 1.19888 5.2373 2.43066C5.23717 3.66231 4.2365 4.66211 3.00488 4.66211C1.77369 4.66192 0.773573 3.66218 0.773438 2.43066C0.773438 1.19901 1.77363 0.198431 3.00488 0.198242ZM3.00488 0.491211C1.93462 0.491399 1.06641 1.36009 1.06641 2.43066C1.06654 3.50092 1.93468 4.36993 3.00488 4.37012C4.07544 4.37012 4.9442 3.50105 4.94434 2.43066C4.94434 1.36 4.07554 0.491211 3.00488 0.491211Z" stroke="#442917" stroke-width="0.396773"/>
<path d="M18.8174 0.198242C20.0486 0.198446 21.0488 1.19899 21.0488 2.43066C21.0487 3.6622 20.0486 4.66191 18.8174 4.66211C17.5858 4.66211 16.5851 3.66228 16.585 2.43066C16.585 1.19891 17.5857 0.198242 18.8174 0.198242ZM18.8174 0.491211C17.7467 0.491211 16.8779 1.35996 16.8779 2.43066C16.8781 3.50105 17.7468 4.37012 18.8174 4.37012C19.8876 4.36991 20.7557 3.50091 20.7559 2.43066C20.7559 1.36015 19.8877 0.491415 18.8174 0.491211Z" stroke="#442917" stroke-width="0.396773"/>
<path d="M4.44824 17.3818L4.27539 17.3594L1.78906 17.0381H1.78711C0.881707 16.9322 0.198324 16.1648 0.198242 15.2529C0.198242 15.2476 0.198135 15.2446 0.198242 15.2432L0.199219 15.2412V15.2373C0.19941 15.2348 0.199841 15.2312 0.200195 15.2266C0.20097 15.2164 0.201612 15.2006 0.203125 15.1807C0.20615 15.1409 0.211057 15.0823 0.216797 15.0068C0.228301 14.8556 0.245001 14.6365 0.265625 14.3652C0.306884 13.8226 0.363303 13.0709 0.426758 12.2363C0.553655 10.5674 0.70632 8.5654 0.807617 7.23242C0.839134 6.81764 1.048 6.4362 1.38086 6.18652C1.71361 5.93719 2.13806 5.84369 2.54492 5.92969L2.54688 5.93066C2.55267 5.93183 2.55857 5.93312 2.56543 5.93457C2.5715 5.93585 2.57881 5.93605 2.58594 5.9375V5.93848C2.97416 6.02069 3.31159 6.25894 3.51855 6.59766L5.18652 9.32715L5.27344 9.46973L5.42871 9.4082L8.33203 8.24805C9.0716 7.95261 9.91144 8.3131 10.207 9.05273C10.5025 9.79235 10.1426 10.6328 9.40332 10.9287L5.21289 12.6035C4.83388 12.755 4.4238 12.7348 4.07422 12.5742L3.79297 12.4453V13.6514L3.96875 13.6709L6.45215 13.958C7.35877 14.0627 8.04297 14.8312 8.04297 15.7441V21.123C8.04297 21.2037 7.97711 21.2695 7.89648 21.2695C7.81602 21.2694 7.75098 21.2036 7.75098 21.123V15.7441C7.75098 14.9799 7.17784 14.3368 6.41895 14.249L3.62988 13.9268C3.5561 13.9182 3.5 13.8555 3.5 13.7812V12.0508C3.50003 12.0037 3.52321 11.9606 3.55957 11.9336L3.59961 11.9121C3.65901 11.8921 3.72474 11.9123 3.7627 11.9619C4.07288 12.3685 4.62073 12.5255 5.10449 12.332L9.29492 10.6572C9.88445 10.4213 10.1719 9.75086 9.93652 9.16113C9.70062 8.57109 9.03036 8.28412 8.44043 8.51953H8.43945L5.28125 9.78125L5.20215 9.7959C5.15024 9.79204 5.10468 9.76248 5.08203 9.7168L5.0752 9.70215L5.06543 9.68945L5.05078 9.66699C4.83988 9.32161 3.78904 7.6004 3.26953 6.75H3.26855C3.10351 6.48033 2.83499 6.29017 2.52539 6.22461H2.52441L2.48438 6.21582C2.1599 6.14733 1.82213 6.22211 1.55664 6.4209C1.29123 6.6197 1.12395 6.92351 1.09863 7.25391V7.25977C1.09834 7.26361 1.09823 7.26978 1.09766 7.27734C1.09651 7.29242 1.09401 7.31467 1.0918 7.34375C1.08735 7.40227 1.08154 7.48845 1.07324 7.59766C1.05662 7.81629 1.0324 8.1291 1.00391 8.50391C0.946935 9.2534 0.870877 10.2526 0.794922 11.252C0.718961 12.2514 0.642915 13.2512 0.585938 14.001C0.557464 14.3757 0.534196 14.6884 0.517578 14.9072C0.509268 15.0166 0.502499 15.1034 0.498047 15.1621C0.495847 15.1911 0.494309 15.2134 0.493164 15.2285C0.492589 15.2361 0.491505 15.2422 0.491211 15.2461V15.2529C0.491119 15.2546 0.490337 15.2607 0.490234 15.2666V15.2686C0.49841 16.0258 1.0694 16.661 1.82324 16.748V16.7471L4.61328 17.1074C4.68636 17.1169 4.74121 17.1793 4.74121 17.2529V21.123C4.74121 21.2037 4.67532 21.2695 4.59473 21.2695C4.51412 21.2695 4.44824 21.2037 4.44824 21.123V17.3818Z" stroke="#442917" stroke-width="0.396773"/>
<path d="M2.38672 10.002C2.45536 9.96017 2.54581 9.98201 2.58789 10.0508L3.69434 11.8633C3.98714 12.3423 4.58328 12.5405 5.10449 12.332C5.17893 12.3023 5.26394 12.3384 5.29395 12.4131V12.4141C5.31611 12.4697 5.30183 12.5313 5.26172 12.5713L5.21289 12.6035C4.55919 12.8648 3.81224 12.6162 3.44531 12.0156L2.33789 10.2031C2.30646 10.1518 2.31039 10.0875 2.34375 10.041L2.38672 10.002Z" stroke="#442917" stroke-width="0.396773"/>
<path d="M19.6836 6.12305C19.6848 6.12314 19.6863 6.12374 19.6895 6.12402C19.6924 6.12429 19.6972 6.12366 19.7021 6.12402V6.125C20.5636 6.18986 21.2417 6.88769 21.2812 7.75098C21.3382 8.99881 21.4238 10.8728 21.4951 12.4346C21.5308 13.2153 21.5628 13.9181 21.5859 14.4258C21.5975 14.6796 21.6068 14.8848 21.6133 15.0264C21.6165 15.0972 21.6184 15.1522 21.6201 15.1895C21.621 15.2079 21.6216 15.2219 21.6221 15.2314C21.6223 15.2361 21.6229 15.2398 21.623 15.2422V15.2529C21.623 16.1657 20.9389 16.9334 20.0322 17.0381L17.5986 17.3193L17.4248 17.3389L17.4229 17.5137L17.373 21.125C17.3719 21.2059 17.3052 21.2706 17.2246 21.2695C17.1442 21.2682 17.08 21.2017 17.0811 21.1211L17.1348 17.207C17.1355 17.1518 17.1665 17.1032 17.2129 17.0791L17.2637 17.0635L19.999 16.748C20.7081 16.6659 21.2542 16.0994 21.3232 15.4023L21.3311 15.2617V15.251L20.9893 7.76367C20.9564 7.0486 20.3945 6.47016 19.6807 6.41602H19.6797C19.6743 6.41562 19.6648 6.41538 19.6602 6.41504H19.6611C19.1308 6.37498 18.6229 6.63533 18.3457 7.08887L16.5078 10.0967L16.2852 10.2217L12.8799 10.7041C12.251 10.7933 11.8123 11.3758 11.9014 12.0049C11.9903 12.6339 12.5731 13.0722 13.2021 12.9834L17.3057 12.4033C17.6066 12.3608 17.8763 12.2006 18.0586 11.9619C18.0969 11.912 18.1629 11.8922 18.2217 11.9121C18.281 11.9322 18.3213 11.9882 18.3213 12.0508V13.7812C18.3213 13.8375 18.2897 13.8868 18.2432 13.9111L18.1914 13.9268L15.4033 14.249C14.6442 14.3366 14.0713 14.9798 14.0713 15.7441V21.123C14.0713 21.2037 14.0054 21.2695 13.9248 21.2695C13.8443 21.2694 13.7793 21.2036 13.7793 21.123V15.7441C13.7793 14.8311 14.4634 14.0627 15.3701 13.958L17.8535 13.6719L18.0293 13.6514V12.4453L17.748 12.5752C17.6224 12.6331 17.4871 12.6726 17.3467 12.6924L13.2432 13.2734C12.5037 13.3777 11.8155 12.9002 11.6406 12.1904L11.6123 12.0459C11.5008 11.2571 12.0503 10.5256 12.8389 10.4141L16.1758 9.94238L16.2686 9.92969L16.3174 9.84961L18.0967 6.93652C18.4311 6.38921 19.044 6.07488 19.6836 6.12305Z" stroke="#442917" stroke-width="0.396773"/>
<path d="M8.32422 0.198242H13.1318C13.3535 0.198269 13.566 0.286687 13.7227 0.443359C13.8791 0.599976 13.9668 0.812877 13.9668 1.03418V3.80469C13.9668 4.02604 13.8792 4.23883 13.7227 4.39551C13.566 4.55214 13.3534 4.64059 13.1318 4.64062H9.52734C9.42903 4.64068 9.33343 4.66718 9.25 4.7168L9.1709 4.77344C8.91075 5.00031 8.44372 5.40758 8.1123 5.69629C8.00122 5.79311 7.84395 5.81577 7.70996 5.75488C7.57594 5.69389 7.48926 5.56055 7.48926 5.41309V1.03418C7.48926 0.573051 7.86301 0.198503 8.32422 0.198242ZM8.32422 0.491211C8.02437 0.491453 7.78223 0.734666 7.78223 1.03418V5.59668L8.11035 5.31055L8.97852 4.55371C9.13069 4.4212 9.32565 4.34773 9.52734 4.34766H13.1318C13.2398 4.34763 13.3449 4.31609 13.4336 4.25684L13.5156 4.18848C13.6174 4.08673 13.6748 3.9487 13.6748 3.80469V1.03418C13.6748 0.890178 13.6172 0.752078 13.5156 0.650391C13.4137 0.548182 13.2757 0.491248 13.1318 0.491211H8.32422Z" stroke="#442917" stroke-width="0.396773"/>
<path d="M9.19336 1.6438H12.3154C12.396 1.64386 12.4619 1.70969 12.4619 1.79028C12.4618 1.87082 12.3959 1.9367 12.3154 1.93677H9.19336C9.11279 1.93677 9.04696 1.87086 9.04688 1.79028C9.04688 1.70965 9.11276 1.6438 9.19336 1.6438Z" stroke="#442917" stroke-width="0.396773"/>
<path d="M9.19336 2.8999H10.7285C10.8089 2.90003 10.874 2.96589 10.874 3.04639C10.8739 3.12679 10.8088 3.19274 10.7285 3.19287H9.19336C9.11275 3.19287 9.04693 3.12691 9.04688 3.04639C9.04688 2.96575 9.11276 2.8999 9.19336 2.8999Z" stroke="#442917" stroke-width="0.396773"/>
<path d="M19.4355 10.002C19.5043 10.0443 19.5252 10.1348 19.4834 10.2031L18.377 12.0156C18.1519 12.3836 17.7738 12.632 17.3467 12.6924L16.3115 12.8389C16.2318 12.8501 16.158 12.7942 16.1465 12.7148C16.1352 12.6351 16.1906 12.5602 16.2705 12.5488L17.3057 12.4023C17.646 12.3541 17.9476 12.1567 18.127 11.8633L19.2344 10.0508C19.266 9.99911 19.3245 9.97402 19.3809 9.98242L19.4355 10.002Z" stroke="#442917" stroke-width="0.396773"/>
</svg>
