<svg width="22" height="27" viewBox="0 0 22 27" fill="none" xmlns="http://www.w3.org/2000/svg">
<path d="M1.28711 0.198242H20.5352C21.135 0.198242 21.624 0.687926 21.624 1.29004V20.5898C21.6239 21.1919 21.135 21.6816 20.5352 21.6816H16.8047L16.9561 21.9717L17.7236 23.4434L17.7266 23.4473C17.9727 23.8917 18.0212 24.4234 17.8594 24.9053C17.6973 25.3873 17.3374 25.782 16.873 25.9863C16.6425 26.0878 16.3942 26.1377 16.1465 26.1377C15.896 26.1376 15.6458 26.0861 15.4131 25.9824C14.9496 25.7757 14.5914 25.3803 14.4316 24.8975L14.4307 24.8926L13.3262 21.8125L13.2783 21.6816H1.28711C0.687382 21.6816 0.198336 21.1918 0.198242 20.5898V1.29004C0.198242 0.687977 0.687324 0.198325 1.28711 0.198242ZM13.8418 16.7041L12.1123 17.4648L11.9434 17.54L12.0049 17.7139L14.5635 24.8477C14.5639 24.8489 14.5643 24.85 14.5645 24.8506C14.7113 25.297 15.0412 25.6623 15.4697 25.8535C15.9026 26.0466 16.3825 26.0483 16.8164 25.8574C17.2506 25.6663 17.5742 25.3107 17.7256 24.8604C17.8753 24.4147 17.8301 23.9234 17.6016 23.5127V23.5117L17.6006 23.5107H17.5996L14.0977 16.7939L14.0117 16.6299L13.8418 16.7041ZM1.28711 0.338867C0.763484 0.33895 0.338867 0.766257 0.338867 1.29004V20.5898C0.338932 21.1136 0.763587 21.5409 1.28711 21.541H13.2285L13.1328 21.2754L11.8857 17.7969L11.8135 17.5967L11.6191 17.6826L7.8252 19.3516C7.69209 19.4099 7.5452 19.413 7.41016 19.3604C7.27456 19.3074 7.16888 19.205 7.11035 19.0713L6.37598 17.3955C6.36044 17.36 6.37685 17.3185 6.41211 17.3027L6.60645 17.2168L6.78809 17.1377L6.70801 16.9561L6.42676 16.3125C6.22094 15.8419 6.40924 15.2956 6.8457 15.0479L6.93652 15.0029L7.67188 14.6807L8.00098 14.5361L7.7041 14.335C7.03101 13.8777 6.34815 14.0902 6.02637 14.1875C5.97984 14.2016 5.92463 14.178 5.90234 14.1309C5.88052 14.0845 5.89354 14.0333 5.93164 14.0039C6.33847 13.69 7.02051 12.967 6.66895 11.8584C6.65651 11.8188 6.67368 11.7774 6.70898 11.7588H6.70996C6.74536 11.7405 6.78906 11.7494 6.81445 11.7822C7.43517 12.5899 8.26099 12.5817 8.78418 12.4639L8.98828 12.4082C9.03388 12.3938 9.08272 12.4124 9.1084 12.457C9.1342 12.5017 9.12229 12.5596 9.08398 12.5898C8.8126 12.8043 8.22404 13.2634 8.25586 14.1289L8.2666 14.4209L8.53418 14.3037L10.7227 13.3398L10.8408 13.2871V0.338867H1.28711ZM11.1797 0.338867V0.537109H10.9814V13.2256L11.2598 13.1025L15.5391 11.2178C15.7818 11.1111 16.0501 11.105 16.2969 11.2012C16.5444 11.2977 16.739 11.4846 16.8457 11.7285L17.127 12.3711L17.207 12.5527L17.3887 12.4727L17.582 12.3877L17.585 12.3867C17.5959 12.3816 17.6148 12.3795 17.6357 12.3877C17.6565 12.3959 17.6682 12.4098 17.6729 12.4209L17.6748 12.4238L18.4082 14.1006C18.5285 14.3754 18.4026 14.6969 18.1289 14.8174L14.335 16.4873L14.1406 16.5723L14.2383 16.7607L16.6758 21.4336L16.7314 21.541H20.5352C21.0588 21.541 21.4833 21.1136 21.4834 20.5898V1.29004C21.4834 0.766197 21.0588 0.338867 20.5352 0.338867H11.1797ZM17.21 12.7041L6.71484 17.3232L6.5332 17.4033L6.61328 17.585L7.2373 19.0107V19.0117C7.32144 19.2149 7.56555 19.3124 7.76758 19.2217L7.76855 19.2227L18.0723 14.6895C18.2763 14.5997 18.3683 14.3607 18.2793 14.1572L17.6533 12.7275L17.5098 12.7891L17.4717 12.6084H17.168L17.21 12.7041ZM16.7168 11.7852C16.5495 11.3859 16.0767 11.1797 15.6719 11.3164L15.5918 11.3477L8.47559 14.4834L8.31152 14.5547L8.36621 14.7256C8.37276 14.7459 8.38205 14.7728 8.3916 14.7998L8.39355 14.8057C8.4026 14.8291 8.39947 14.8437 8.39453 14.8545C8.38791 14.8687 8.37303 14.8861 8.34961 14.8984C8.32614 14.9108 8.30341 14.9128 8.28809 14.9102C8.27658 14.9081 8.26268 14.9025 8.24805 14.8809L8.24512 14.877L8.21289 14.833V14.5967L7.93555 14.7188L6.99316 15.1318C6.56305 15.321 6.36736 15.8251 6.55566 16.2559L6.83691 16.8984L6.91699 17.0811L7.09863 17.001L16.8965 12.6895L17.0781 12.6094L16.998 12.4287L16.7168 11.7852ZM6.90723 12.5127C6.89509 12.9562 6.72642 13.3195 6.52344 13.5986L6.2793 13.9336L6.69336 13.9131C6.72605 13.9115 6.7594 13.9102 6.79297 13.9102C7.10249 13.9102 7.45316 13.9838 7.79883 14.2256L7.93652 14.3213L8.05371 14.2021V14.2012L8.11133 14.1436L8.11035 14.0615C8.10827 13.5952 8.27832 13.2424 8.48047 12.9795L8.73242 12.6523L8.32031 12.6602C7.97763 12.6665 7.58491 12.5967 7.21484 12.3525L6.91699 12.1562L6.90723 12.5127Z" stroke="#442917" stroke-width="0.396773"/>
<path d="M6.3418 1.66797C6.37167 1.64327 6.41564 1.64705 6.44043 1.67676C6.46534 1.70668 6.46151 1.7515 6.43164 1.77637L1.58594 5.80957C1.57282 5.82039 1.55692 5.8252 1.54102 5.8252C1.52044 5.82509 1.50108 5.81635 1.4873 5.7998C1.46261 5.7699 1.46633 5.72599 1.49609 5.70117L6.3418 1.66797Z" stroke="#442917" stroke-width="0.396773"/>
<path d="M3.91895 1.23682C3.94898 1.21222 3.99392 1.21746 4.01855 1.24756C4.04283 1.2776 4.03858 1.32167 4.00879 1.34619L1.45508 3.43604C1.44194 3.44679 1.42596 3.45166 1.41016 3.45166C1.38942 3.45156 1.37014 3.44289 1.35645 3.42627H1.35547C1.33103 3.39617 1.33624 3.35217 1.36621 3.32764L3.91895 1.23682Z" stroke="#442917" stroke-width="0.396773"/>
<path d="M17.1416 5.08398C17.1883 5.10032 17.2155 5.14935 17.207 5.19434C17.154 5.47525 17.1225 5.79146 17.2207 6.10059C17.3215 6.41763 17.5494 6.70027 17.959 6.93262V6.93359H17.9609C17.9967 6.95463 18.0107 6.99531 17.9961 7.0332C17.9811 7.07152 17.9424 7.09248 17.9014 7.08301C17.4425 6.97553 17.0828 7.03018 16.793 7.19629C16.5108 7.35807 16.3177 7.61249 16.165 7.85645L16.1631 7.86035C16.1495 7.88323 16.1344 7.89241 16.1191 7.89648C16.1005 7.90141 16.0741 7.90047 16.0469 7.88965C16.0198 7.87882 16.0009 7.86151 15.9912 7.8457C15.9873 7.83928 15.9839 7.83207 15.9824 7.82324L15.9844 7.79102L15.9854 7.78516C16.0673 7.37712 16.1043 6.55787 15.2939 6.0625V6.06152C15.2604 6.04104 15.2464 5.99971 15.2607 5.96289C15.2751 5.92649 15.3133 5.90529 15.3525 5.91309C16.2842 6.09978 16.8108 5.47869 17.0264 5.125C17.0443 5.0957 17.0743 5.07836 17.1074 5.07812L17.1416 5.08398ZM16.6992 5.71875C16.5105 5.87491 16.2719 6.00934 15.9775 6.06348L15.6641 6.12109L15.8545 6.37695C16.0336 6.61744 16.1171 6.87959 16.1494 7.12402L16.1982 7.49121L16.4775 7.24707C16.6567 7.09046 16.8907 6.95515 17.1982 6.90625L17.5332 6.85254L17.3232 6.58691C17.1297 6.34263 17.0492 6.08507 17.0234 5.84961L16.9834 5.4834L16.6992 5.71875Z" stroke="#442917" stroke-width="0.396773"/>
<path d="M15.4883 22.8235C15.5235 22.8081 15.5653 22.8242 15.5811 22.8596L16.1943 24.261C16.2098 24.2965 16.1938 24.3382 16.1582 24.3538C16.1489 24.3579 16.139 24.3596 16.1299 24.3596C16.1026 24.3595 16.077 24.3436 16.0654 24.3176L15.4521 22.9163C15.4368 22.8808 15.4529 22.8391 15.4883 22.8235Z" stroke="#442917" stroke-width="0.396773"/>
</svg>
