<svg width="44" height="44" viewBox="0 0 44 44" fill="none" xmlns="http://www.w3.org/2000/svg">
<mask id="mask0_13445_253" style="mask-type:luminance" maskUnits="userSpaceOnUse" x="0" y="0" width="44" height="44">
<path d="M43.0504 43.0505V0.595459H0.59528V43.0505H43.0504Z" fill="white" stroke="white" stroke-width="1.19032"/>
</mask>
<g mask="url(#mask0_13445_253)">
<path d="M27.0442 35.3545V29.6048C27.0442 29.2936 26.9257 28.9936 26.7135 28.7668L24.6693 26.5829C24.4375 26.3356 24.1135 26.195 23.7743 26.195H21.5809H17.7526C17.2497 26.195 16.8158 26.4985 16.6274 26.9332V26.9341C16.5617 27.0832 16.5259 27.2486 16.5259 27.4217V32.2382" stroke="#442917" stroke-width="1.19032" stroke-miterlimit="10" stroke-linecap="round" stroke-linejoin="round"/>
<path d="M18.398 20.9494L21.2418 25.3463C21.414 25.6131 21.5255 25.9012 21.5802 26.1953" stroke="#442917" stroke-width="1.19032" stroke-miterlimit="10" stroke-linecap="round" stroke-linejoin="round"/>
<path d="M13.8371 18.2576C13.1355 18.7111 12.7545 19.4723 12.7545 20.2497C12.7545 20.6904 12.8771 21.1363 13.1338 21.5336L16.627 26.9346" stroke="#442917" stroke-width="1.19032" stroke-miterlimit="10" stroke-linecap="round" stroke-linejoin="round"/>
<path d="M22.8877 13.8856L24.11 15.7758C24.4829 16.3524 24.3177 17.1221 23.7411 17.4951L16.41 22.2357C15.3113 22.9462 13.8448 22.6315 13.1344 21.5329C12.424 20.4343 12.7387 18.9678 13.8373 18.2574L21.1684 13.5166C21.7451 13.1438 22.5148 13.3089 22.8877 13.8856Z" stroke="#442917" stroke-width="1.19032" stroke-miterlimit="10" stroke-linecap="round" stroke-linejoin="round"/>
<path d="M24.9415 13.8224L23.4732 14.793" stroke="#442917" stroke-width="1.19032" stroke-miterlimit="10" stroke-linecap="round" stroke-linejoin="round"/>
<path d="M21.8238 36.3232V33.0042" stroke="#442917" stroke-width="1.19032" stroke-miterlimit="10" stroke-linecap="round" stroke-linejoin="round"/>
<path d="M30.5552 33.3999V23.0162C30.5552 22.1707 31.2406 21.4861 32.0853 21.4861H36.3194" stroke="#442917" stroke-width="1.19032" stroke-miterlimit="10" stroke-linecap="round" stroke-linejoin="round"/>
<path d="M23.2971 7.3949C30.6127 8.13448 36.3225 14.3115 36.3225 21.822C36.3225 29.8308 29.83 36.3232 21.8212 36.3232C13.8124 36.3232 7.31989 29.8308 7.31989 21.822C7.31989 14.3229 13.0122 8.15332 20.3117 7.3984" stroke="#442917" stroke-width="1.19032" stroke-miterlimit="10" stroke-linecap="round" stroke-linejoin="round"/>
<path d="M41.2149 17.4204H39.1854C38.7566 15.7241 38.0856 14.1245 37.2116 12.6598L38.648 11.2235C39.3474 10.5242 39.3474 9.39027 38.648 8.69093L34.9545 4.99738C34.2551 4.29803 33.1212 4.29803 32.422 4.99738L30.9855 6.43374C29.5208 5.55973 27.9212 4.88869 26.225 4.45991V2.43042C26.225 1.4415 25.4232 0.639687 24.4342 0.639687H19.2106C18.2217 0.639687 17.4198 1.4415 17.4198 2.43042V4.45991C15.7236 4.88869 14.124 5.55973 12.6594 6.43374L11.2229 4.99738C10.5236 4.29803 9.38972 4.29803 8.69038 4.99738L4.99683 8.69093C4.29749 9.39027 4.29749 10.5242 4.99683 11.2235L6.43328 12.6598C5.55927 14.1245 4.88823 15.7241 4.45937 17.4204H2.42995C1.44095 17.4204 0.639225 18.2222 0.639225 19.2112V24.4347C0.639225 25.4237 1.44095 26.2255 2.42995 26.2255H4.45937C4.88823 27.9217 5.55927 29.5214 6.43328 30.9861L4.99683 32.4223C4.29749 33.1217 4.29749 34.2556 4.99683 34.955L8.69038 38.6485C9.38972 39.3478 10.5236 39.3478 11.2229 38.6485L12.6594 37.2121C14.124 38.0861 15.7235 38.7572 17.4198 39.186V41.2155C17.4198 42.2044 18.2217 43.0061 19.2106 43.0061H24.4342C25.4232 43.0061 26.225 42.2044 26.225 41.2155V39.186C27.9213 38.7572 29.5208 38.0861 30.9855 37.2121L32.422 38.6485C33.1212 39.3478 34.2551 39.3478 34.9545 38.6485L38.648 34.955C39.3474 34.2556 39.3474 33.1217 38.648 32.4223L37.2116 30.9861C38.0856 29.5214 38.7566 27.9217 39.1854 26.2255H41.2149C42.2039 26.2255 43.0056 25.4237 43.0056 24.4347V19.2112C43.0056 18.2222 42.2039 17.4204 41.2149 17.4204Z" stroke="#442917" stroke-width="1.19032" stroke-miterlimit="10" stroke-linecap="round" stroke-linejoin="round"/>
<path d="M33.2203 24.4487C33.2881 24.4487 33.3432 24.3934 33.3433 24.3257C33.3433 24.2579 33.2882 24.2026 33.2203 24.2026C33.1526 24.2028 33.0972 24.258 33.0972 24.3257C33.0974 24.3934 33.1528 24.4486 33.2203 24.4487Z" fill="#121212" stroke="#442917" stroke-width="1.19032"/>
</g>
</svg>
