<svg width="22" height="22" viewBox="0 0 22 22" fill="none" xmlns="http://www.w3.org/2000/svg">
<path d="M18.6738 3.07251C18.702 3.07262 18.7246 3.09599 18.7246 3.12427V4.59399C18.7244 4.62209 18.7019 4.64466 18.6738 4.64478C18.6457 4.64478 18.6223 4.62217 18.6221 4.59399V3.12427C18.6221 3.09592 18.6455 3.07251 18.6738 3.07251Z" stroke="#442917" stroke-width="0.396773"/>
<path d="M18.6738 1.4978C18.702 1.49792 18.7246 1.52129 18.7246 1.54956V1.83179C18.7244 1.85992 18.7019 1.88245 18.6738 1.88257C18.6456 1.88257 18.6222 1.85999 18.6221 1.83179V1.54956C18.6221 1.52122 18.6455 1.4978 18.6738 1.4978Z" stroke="#442917" stroke-width="0.396773"/>
<path d="M0.25 7.76685C0.278206 7.76696 0.300781 7.79033 0.300781 7.8186V8.14771C0.300667 8.17588 0.278134 8.19837 0.25 8.19849C0.221768 8.19849 0.198356 8.17595 0.198242 8.14771V7.8186C0.198242 7.79026 0.221698 7.76685 0.25 7.76685Z" stroke="#442917" stroke-width="0.396773"/>
<path d="M0.25 9.32178C0.278206 9.32189 0.300781 9.34526 0.300781 9.37354V15.019C0.300773 15.0473 0.278202 15.0707 0.25 15.0708C0.221982 15.0708 0.198428 15.0477 0.198242 15.019V9.37354C0.198242 9.34519 0.221698 9.32178 0.25 9.32178Z" stroke="#442917" stroke-width="0.396773"/>
<path d="M4.2998 4.53882H7.1416C7.38554 4.53884 7.58421 4.73768 7.58398 4.9812V7.82397C7.58377 8.06763 7.38524 8.26536 7.1416 8.26538H4.2998C4.05642 8.26538 3.85764 8.06757 3.85742 7.82397V4.9812C3.85742 4.73736 4.05602 4.53882 4.2998 4.53882ZM4.2998 4.64136C4.1127 4.64145 3.96094 4.7941 3.96094 4.9812V7.82397C3.96115 8.01153 4.11313 8.16275 4.2998 8.16284H7.1416C7.32865 8.16284 7.48123 8.01095 7.48145 7.82397V4.9812C7.48145 4.7934 7.32848 4.64136 7.1416 4.64136H4.2998Z" stroke="#442917" stroke-width="0.396773"/>
<path d="M4.2998 10.2202H7.1416C7.38554 10.2202 7.58421 10.4191 7.58398 10.6626V13.5044C7.58398 13.7484 7.38524 13.9468 7.1416 13.9468H4.2998C4.05642 13.9468 3.85742 13.7483 3.85742 13.5044V10.6626C3.85742 10.4188 4.05602 10.2202 4.2998 10.2202ZM4.2998 10.3228C4.1127 10.3228 3.96094 10.4755 3.96094 10.6626V13.5044C3.96094 13.6915 4.11239 13.8441 4.2998 13.8442H7.1416C7.32939 13.8442 7.48145 13.6909 7.48145 13.5044V10.6626C7.48145 10.4748 7.32848 10.3228 7.1416 10.3228H4.2998Z" stroke="#442917" stroke-width="0.396773"/>
<path d="M4.2998 15.9006H7.1416C7.38533 15.9007 7.5842 16.0996 7.58398 16.343V19.1858C7.58377 19.4296 7.38511 19.6282 7.1416 19.6282H4.2998C4.05655 19.6282 3.85764 19.4295 3.85742 19.1858V16.343C3.85754 16.0991 4.05622 15.9006 4.2998 15.9006ZM4.2998 16.0032C4.11216 16.0033 3.96106 16.1566 3.96094 16.343V19.1858C3.96115 19.3727 4.11253 19.5246 4.2998 19.5247H7.1416C7.32926 19.5247 7.48123 19.3722 7.48145 19.1858V16.343C7.48133 16.1559 7.32902 16.0032 7.1416 16.0032H4.2998Z" stroke="#442917" stroke-width="0.396773"/>
<path d="M9.4209 5.79492H10.6406C10.6689 5.79492 10.6924 5.81834 10.6924 5.84668C10.6923 5.87494 10.6689 5.89746 10.6406 5.89746H9.4209C9.39266 5.89746 9.36924 5.87494 9.36914 5.84668C9.36914 5.81834 9.3926 5.79492 9.4209 5.79492Z" stroke="#442917" stroke-width="0.396773"/>
<path d="M12.1709 5.79492H13.9414C13.9697 5.79492 13.9932 5.81834 13.9932 5.84668C13.9931 5.87494 13.9696 5.89746 13.9414 5.89746H12.1709C12.1427 5.89746 12.1192 5.87494 12.1191 5.84668C12.1191 5.81834 12.1426 5.79492 12.1709 5.79492Z" stroke="#442917" stroke-width="0.396773"/>
<path d="M9.4209 6.90649H10.6406C10.6689 6.90649 10.6924 6.92991 10.6924 6.95825C10.6923 6.98651 10.6689 7.00903 10.6406 7.00903H9.4209C9.39266 7.00903 9.36924 6.98651 9.36914 6.95825C9.36914 6.92991 9.3926 6.90649 9.4209 6.90649Z" stroke="#442917" stroke-width="0.396773"/>
<path d="M13.5029 6.90649H13.9414C13.9697 6.90649 13.9932 6.92991 13.9932 6.95825C13.9931 6.98651 13.9696 7.00903 13.9414 7.00903H13.5029C13.4747 7.00903 13.4513 6.98651 13.4512 6.95825C13.4512 6.92991 13.4746 6.90649 13.5029 6.90649Z" stroke="#442917" stroke-width="0.396773"/>
<path d="M9.4209 11.4758H10.6406C10.6689 11.4758 10.6924 11.4992 10.6924 11.5276C10.6923 11.5558 10.6689 11.5784 10.6406 11.5784H9.4209C9.39266 11.5784 9.36924 11.5558 9.36914 11.5276C9.36914 11.4992 9.3926 11.4758 9.4209 11.4758Z" stroke="#442917" stroke-width="0.396773"/>
<path d="M12.1709 11.4758H14.2754C14.3035 11.4761 14.3262 11.4994 14.3262 11.5276C14.3261 11.5557 14.3034 11.5781 14.2754 11.5784H12.1709C12.1427 11.5784 12.1192 11.5558 12.1191 11.5276C12.1191 11.4992 12.1426 11.4758 12.1709 11.4758Z" stroke="#442917" stroke-width="0.396773"/>
<path d="M9.4209 12.5874H10.3076C10.3359 12.5874 10.3594 12.6108 10.3594 12.6392C10.3593 12.6674 10.3359 12.6899 10.3076 12.6899H9.4209C9.39266 12.6899 9.36924 12.6674 9.36914 12.6392C9.36914 12.6108 9.3926 12.5874 9.4209 12.5874Z" stroke="#442917" stroke-width="0.396773"/>
<path d="M12.1709 12.5874H12.9951C13.0232 12.5877 13.0459 12.611 13.0459 12.6392C13.0458 12.6673 13.0231 12.6897 12.9951 12.6899H12.1709C12.1427 12.6899 12.1192 12.6674 12.1191 12.6392C12.1191 12.6108 12.1426 12.5874 12.1709 12.5874Z" stroke="#442917" stroke-width="0.396773"/>
<path d="M9.4209 17.157H10.6406C10.6689 17.157 10.6924 17.1804 10.6924 17.2087C10.6923 17.237 10.6689 17.2595 10.6406 17.2595H9.4209C9.39266 17.2595 9.36924 17.237 9.36914 17.2087C9.36914 17.1804 9.3926 17.157 9.4209 17.157Z" stroke="#442917" stroke-width="0.396773"/>
<path d="M11.8369 17.157H12.0176C12.0459 17.157 12.0693 17.1804 12.0693 17.2087C12.0692 17.237 12.0458 17.2595 12.0176 17.2595H11.8369C11.8087 17.2595 11.7853 17.237 11.7852 17.2087C11.7852 17.1804 11.8086 17.157 11.8369 17.157Z" stroke="#442917" stroke-width="0.396773"/>
<path d="M9.4209 18.2688H10.3076C10.3359 18.2688 10.3594 18.2922 10.3594 18.3206C10.3593 18.3488 10.3359 18.3713 10.3076 18.3713H9.4209C9.39266 18.3713 9.36924 18.3488 9.36914 18.3206C9.36914 18.2922 9.3926 18.2688 9.4209 18.2688Z" stroke="#442917" stroke-width="0.396773"/>
<path d="M11.7139 18.2688H11.8379C11.866 18.269 11.8887 18.2923 11.8887 18.3206C11.8886 18.3487 11.866 18.3712 11.8379 18.3713H11.7139C11.6856 18.3713 11.6622 18.3488 11.6621 18.3206C11.6621 18.2922 11.6856 18.2688 11.7139 18.2688Z" stroke="#442917" stroke-width="0.396773"/>
<path d="M6.16602 6.10449C6.1874 6.08745 6.2201 6.09119 6.23828 6.11426C6.25555 6.13606 6.25188 6.16882 6.22949 6.18652L5.58105 6.69922C5.56005 6.71589 5.52819 6.71306 5.50977 6.69141L5.20508 6.33301C5.18669 6.31132 5.18935 6.27917 5.21094 6.26074L5.20996 6.25977C5.22693 6.24564 5.24988 6.24482 5.26758 6.25391L5.2832 6.2666L5.43262 6.44141L5.55664 6.58789L5.70605 6.46875L6.16602 6.10547V6.10449Z" stroke="#442917" stroke-width="0.396773"/>
<path d="M6.16602 11.7869C6.18823 11.7692 6.22068 11.7723 6.23828 11.7947V11.7957C6.25536 11.8175 6.2518 11.8493 6.22949 11.8669L5.58105 12.3796V12.3806C5.56008 12.3973 5.5282 12.3944 5.50977 12.3728L5.20508 12.0134H5.2041C5.18654 11.992 5.18927 11.9605 5.20996 11.9421C5.23209 11.9234 5.26486 11.9258 5.2832 11.947L5.43262 12.1228L5.55664 12.2683L5.70605 12.1501L6.16602 11.7869Z" stroke="#442917" stroke-width="0.396773"/>
<path d="M19.1787 13.5542V13.5552C19.2031 13.5706 19.2103 13.6026 19.1953 13.6265L19.0459 13.8638C19.0308 13.8874 18.9991 13.8942 18.9756 13.8794C18.9512 13.864 18.944 13.832 18.959 13.8081L19.1084 13.5718C19.1234 13.548 19.1549 13.54 19.1787 13.5542Z" stroke="#442917" stroke-width="0.396773"/>
<path d="M20.7422 11.0684C20.7666 11.0838 20.7738 11.1158 20.7588 11.1396L19.7285 12.7783C19.7133 12.8021 19.6819 12.8088 19.6582 12.7939C19.634 12.7785 19.6268 12.7474 19.6416 12.7236L20.6719 11.085C20.6835 11.0665 20.7043 11.0583 20.7236 11.0615L20.7422 11.0684Z" stroke="#442917" stroke-width="0.396773"/>
<path d="M2.3418 0.198242H16.3574C16.8089 0.198485 17.1746 0.563343 17.1748 1.00879V8.6123H17.2412C17.3374 8.76683 17.535 8.72685 17.5371 8.72363L17.5381 8.72266V8.72168C17.5384 8.72122 17.5398 8.71977 17.541 8.71777L17.5713 8.66992V8.66895C17.5766 8.66042 17.5833 8.65102 17.5898 8.64062C17.63 8.57674 17.6911 8.47811 17.7676 8.35645C17.9208 8.11279 18.1336 7.77493 18.3506 7.42969C18.7847 6.73918 19.2377 6.01909 19.2725 5.96387C19.4294 5.71429 19.761 5.63815 20.0117 5.79492V5.7959L21.373 6.65137C21.623 6.80834 21.6999 7.13903 21.542 7.39062H21.541C16.2293 15.8392 18.0892 12.8819 17.2051 14.2881L17.1748 14.3369V20.6445C17.1746 21.0926 16.8084 21.4578 16.3574 21.458H2.3418C1.89571 21.4578 1.53142 21.0939 1.53125 20.6445V1.00879C1.53149 0.562086 1.89516 0.198436 2.3418 0.198242ZM2.3418 0.300781C1.95642 0.30098 1.63403 0.62343 1.63379 1.00879V20.6445C1.63396 21.0358 1.95021 21.3553 2.3418 21.3555H16.3574C16.7502 21.3552 17.0711 21.0382 17.0713 20.6445V14.5L16.7041 15.083L15.6982 16.6836C15.6568 16.7494 15.5828 16.8292 15.499 16.8848C15.3434 16.9883 14.1358 17.7458 13.2764 18.2891C13.2339 18.3139 13.1887 18.319 13.1475 18.3066L13.1064 18.2881L13.0732 18.2598C13.0444 18.2273 13.0302 18.1837 13.0352 18.1377L13.1797 16.875L13.3301 15.541C13.3387 15.4655 13.3649 15.3883 13.4053 15.3096C13.4051 15.3101 13.4175 15.29 13.4492 15.2383C13.4784 15.1907 13.5197 15.124 13.5713 15.041C13.6744 14.875 13.8179 14.6439 13.9893 14.3701C14.332 13.8224 14.7841 13.1035 15.2344 12.3867C16.1321 10.9578 17.0251 9.53802 17.041 9.5127L17.0713 9.46387V1.00879C17.071 0.616385 16.7486 0.301024 16.3574 0.300781H12.7734V2.19727C12.7733 2.48622 12.5374 2.72168 12.248 2.72168H6.45801C6.16917 2.7215 5.93375 2.48617 5.93359 2.19727V0.300781H2.3418ZM13.4268 15.6162L13.2822 16.8809V16.8818L13.1729 17.8506L13.2539 17.8594C13.2788 17.9436 13.3422 18.0331 13.4688 18.0449C13.4703 18.044 13.472 18.0424 13.4727 18.042H13.4736L13.4746 18.041L13.4795 18.0371H13.4805L13.4785 18.0391C13.4811 18.0374 13.4854 18.0349 13.4912 18.0312C13.4986 18.0266 13.5084 18.0203 13.5205 18.0127L13.5566 17.9902V17.9893C13.605 17.9588 13.673 17.9162 13.7539 17.8652C13.928 17.7556 14.1637 17.6076 14.4014 17.458C14.6391 17.3084 14.879 17.1578 15.0615 17.043C15.1528 16.9856 15.23 16.937 15.2852 16.9023C15.3123 16.8853 15.334 16.8711 15.3496 16.8613C15.3575 16.8564 15.3646 16.8524 15.3691 16.8496C15.3713 16.8483 15.3728 16.8465 15.374 16.8457C15.3752 16.845 15.376 16.8447 15.376 16.8447L15.6475 16.6777L15.3779 16.5078L13.7295 15.4707L13.4619 15.3027L13.4268 15.6162ZM18.3281 7.6582C16.3794 10.7578 14.4657 13.8015 13.665 15.0752L13.5596 15.2432L13.7275 15.3486L15.4863 16.4541L15.6543 16.5605L15.7598 16.3926C18.9551 11.311 20.0022 9.64597 20.3096 9.15723C20.3425 9.10486 20.3671 9.06615 20.3848 9.03809L20.4229 8.97656L20.4219 8.97559H20.4238L20.5293 8.80859L20.3613 8.70215L19.6934 8.28223L19.5254 8.17676L19.4199 8.34473L17.3965 11.5625C17.3813 11.5864 17.349 11.5931 17.3252 11.5781H17.3262C17.3078 11.5665 17.2993 11.5462 17.3027 11.5264L17.3096 11.5078L19.333 8.29004L19.4385 8.12207L19.2705 8.0166L18.6016 7.5957L18.4336 7.49023L18.3281 7.6582ZM19.958 5.88281C19.7696 5.76332 19.4884 5.81433 19.3594 6.01953L18.5947 7.23535L18.4883 7.40332L18.6562 7.50977L20.416 8.61523L20.584 8.7207L20.6895 8.55273L21.4541 7.33594H21.4551C21.5831 7.13124 21.5188 6.86501 21.3174 6.73828V6.7373L19.957 5.88281H19.958ZM6.03613 2.19727C6.03628 2.42963 6.22492 2.61896 6.45801 2.61914H12.248C12.4809 2.61914 12.6707 2.43012 12.6709 2.19727V0.301758H6.03613V2.19727Z" stroke="#442917" stroke-width="0.396773"/>
</svg>
