<svg width="22" height="22" viewBox="0 0 22 22" fill="none" xmlns="http://www.w3.org/2000/svg">
<mask id="mask0_13445_334" style="mask-type:luminance" maskUnits="userSpaceOnUse" x="0" y="0" width="22" height="22">
<path d="M21.6243 21.6243V0.198486H0.198519V21.6243H21.6243Z" fill="white" stroke="white" stroke-width="0.396773"/>
</mask>
<g mask="url(#mask0_13445_334)">
<path d="M13.2573 9.76372C13.2573 10.3089 12.8153 10.751 12.2701 10.751H11.3011" stroke="#442917" stroke-width="0.396773" stroke-miterlimit="10" stroke-linecap="round" stroke-linejoin="round"/>
<path d="M17.2786 1.91333H20.07" stroke="#442917" stroke-width="0.396773" stroke-miterlimit="10" stroke-linecap="round" stroke-linejoin="round"/>
<path d="M15.6936 1.91357H16.033" stroke="#442917" stroke-width="0.396773" stroke-miterlimit="10" stroke-linecap="round" stroke-linejoin="round"/>
<path d="M15.6936 3.41675H20.0702" stroke="#442917" stroke-width="0.396773" stroke-miterlimit="10" stroke-linecap="round" stroke-linejoin="round"/>
<path d="M1.97196 18.914L2.03678 20.1084" stroke="#442917" stroke-width="0.396773" stroke-miterlimit="10" stroke-linecap="round" stroke-linejoin="round"/>
<path d="M15.0865 20.1084L15.4035 14.2671C15.4341 13.7046 14.9862 13.2318 14.423 13.2318H2.70009C2.13683 13.2318 1.689 13.7046 1.71952 14.2671L1.89086 17.4238" stroke="#442917" stroke-width="0.396773" stroke-miterlimit="10" stroke-linecap="round" stroke-linejoin="round"/>
<path d="M16.1156 20.1091H1.00749C0.627557 20.1091 0.319613 20.4171 0.319613 20.7969C0.319613 21.1769 0.627557 21.4849 1.00749 21.4849H16.1156C16.4955 21.4849 16.8035 21.1769 16.8035 20.7969C16.8035 20.4171 16.4955 20.1091 16.1156 20.1091Z" stroke="#442917" stroke-width="0.396773" stroke-miterlimit="10" stroke-linecap="round" stroke-linejoin="round"/>
<path d="M16.5641 20.2754C16.5686 20.2317 16.5709 20.1874 16.5709 20.1426V18.5547C16.5709 17.3422 16.1114 16.221 15.344 15.3735" stroke="#442917" stroke-width="0.396773" stroke-miterlimit="10" stroke-linecap="round" stroke-linejoin="round"/>
<path d="M1.78082 15.3732C1.01341 16.2207 0.553988 17.342 0.553988 18.5544V20.1424C0.553988 20.1872 0.556332 20.2315 0.560764 20.2751" stroke="#442917" stroke-width="0.396773" stroke-miterlimit="10" stroke-linecap="round" stroke-linejoin="round"/>
<path d="M9.43187 20.1084V20.07C9.43187 19.5063 9.64311 18.9643 10.0203 18.5454C10.023 18.5422 10.0259 18.5391 10.0287 18.5359C10.3371 18.1909 10.5247 17.7355 10.5247 17.2362C10.5247 16.5086 10.1264 15.8741 9.536 15.5386C9.42399 15.4749 9.28487 15.555 9.28487 15.6838V17.1354C9.28487 17.3787 9.08761 17.576 8.84432 17.576H8.30273C8.0594 17.576 7.86218 17.3787 7.86218 17.1354V15.6838C7.86218 15.555 7.72302 15.4749 7.61101 15.5386C7.02061 15.8741 6.62235 16.5086 6.62235 17.2362C6.62235 17.7355 6.80984 18.1909 7.11834 18.5359C7.12115 18.5391 7.12397 18.5422 7.12678 18.5454C7.50394 18.9643 7.71518 19.5063 7.71518 20.07V20.1084" stroke="#442917" stroke-width="0.396773" stroke-miterlimit="10" stroke-linecap="round" stroke-linejoin="round"/>
<path d="M11.2565 10.468C11.6572 9.92486 11.8985 9.2568 11.9094 8.53261V6.4119C10.9054 5.90231 10.4959 5.05729 10.3308 4.54331C10.2832 4.3949 10.0819 4.37601 10.0062 4.51228C9.27877 5.82154 7.83043 6.4119 6.16245 6.4119C6.13091 6.4119 5.72536 6.4119 5.21219 6.4119V8.53261C5.23985 10.3589 6.72796 11.8311 8.56084 11.8311C9.25554 11.8311 9.9005 11.6192 10.4354 11.2571" stroke="#442917" stroke-width="0.396773" stroke-miterlimit="10" stroke-linecap="round" stroke-linejoin="round"/>
<path d="M10.7472 11.2568H9.93754C9.62861 11.2568 9.37821 11.0064 9.37821 10.6975C9.37821 10.3886 9.62861 10.1382 9.93754 10.1382H10.7472C11.0561 10.1382 11.3065 10.3886 11.3065 10.6975C11.3065 11.0064 11.0561 11.2568 10.7472 11.2568Z" stroke="#442917" stroke-width="0.396773" stroke-miterlimit="10" stroke-linecap="round" stroke-linejoin="round"/>
<path d="M11.8577 9.07129H12.9451C13.3143 9.07129 13.6136 8.77195 13.6136 8.40268V7.08024C13.6136 6.711 13.3143 6.41162 12.9451 6.41162H11.9099" stroke="#442917" stroke-width="0.396773" stroke-miterlimit="10" stroke-linecap="round" stroke-linejoin="round"/>
<path d="M5.21284 6.41162H4.17768C3.80844 6.41162 3.50907 6.71096 3.50907 7.08024V8.40268C3.50907 8.77195 3.80844 9.07129 4.17768 9.07129H5.26506" stroke="#442917" stroke-width="0.396773" stroke-miterlimit="10" stroke-linecap="round" stroke-linejoin="round"/>
<path d="M10.8258 13.2324C10.4928 13.0997 10.2649 12.7761 10.2649 12.4065V11.3652" stroke="#442917" stroke-width="0.396773" stroke-miterlimit="10" stroke-linecap="round" stroke-linejoin="round"/>
<path d="M6.85708 11.3652V12.4065C6.85708 12.7762 6.62927 13.0997 6.29618 13.2324" stroke="#442917" stroke-width="0.396773" stroke-miterlimit="10" stroke-linecap="round" stroke-linejoin="round"/>
<path d="M13.258 13.2324C13.2578 12.0744 13.2574 10.3884 13.2571 8.99433" stroke="#442917" stroke-width="0.396773" stroke-miterlimit="10" stroke-linecap="round" stroke-linejoin="round"/>
<path d="M3.86645 8.99433C3.86611 10.3884 3.86572 12.0744 3.86551 13.2324" stroke="#442917" stroke-width="0.396773" stroke-miterlimit="10" stroke-linecap="round" stroke-linejoin="round"/>
<path d="M21.5024 1.98757V1.26858C21.5024 0.754766 21.0858 0.338219 20.572 0.338219H15.1914C14.6775 0.338219 14.261 0.754766 14.261 1.26858V3.95961C14.261 4.47342 14.6775 4.88997 15.1914 4.88997C15.4914 4.88997 15.7347 5.13325 15.7347 5.43331V7.0975C15.7347 7.30877 16.013 7.38583 16.1216 7.20461L17.3514 5.15388C17.4495 4.99017 17.6264 4.88997 17.8174 4.88997H20.572C21.0858 4.88997 21.5024 4.47342 21.5024 3.95961V3.48327" stroke="#442917" stroke-width="0.396773" stroke-miterlimit="10" stroke-linecap="round" stroke-linejoin="round"/>
<path d="M13.2572 6.48877C13.2468 3.90484 11.1492 1.81333 8.5628 1.81333C5.97645 1.81333 3.8788 3.90484 3.86844 6.48877" stroke="#442917" stroke-width="0.396773" stroke-miterlimit="10" stroke-linecap="round" stroke-linejoin="round"/>
</g>
</svg>
