<svg width="80" height="80" viewBox="0 0 80 80" fill="none" xmlns="http://www.w3.org/2000/svg">
<path d="M58.674 28.6717L58.7502 28.6716C67.2083 28.6716 74.0648 35.2771 74.0648 43.4251C74.0648 49.2181 70.5993 54.2311 65.5567 56.6453M58.674 28.6717C58.7243 28.1318 58.7502 27.5849 58.7502 27.0323C58.7502 17.0733 50.3701 9 40.0324 9C30.2421 9 22.2073 16.2412 21.3841 25.4674M58.674 28.6717C58.3258 32.3911 56.8056 35.7848 54.4717 38.5074M21.3841 25.4674C12.752 26.2588 6 33.2627 6 41.7861C6 48.3619 10.0193 54.0337 15.8204 56.6453M21.3841 25.4674C21.9212 25.4182 22.4657 25.393 23.0162 25.393C26.8476 25.393 30.3833 26.6129 33.2276 28.6716" stroke="#442917" stroke-width="3" stroke-linecap="round" stroke-linejoin="round"/>
<path d="M40.1823 39.6289L36.3149 43.1547C34.4519 45.0605 34.4519 48.1098 36.4129 50.0156C37.3937 50.9685 38.8098 51.5402 40.1823 51.5402C41.5552 51.5402 42.6881 51.0638 43.6686 50.2062C45.6299 48.3004 45.6299 45.1558 43.6686 43.25L40.1823 39.6289Z" stroke="#442917" stroke-width="3" stroke-linejoin="round"/>
<path d="M28.2723 58.3457L24.4047 61.8715C22.5417 63.7773 22.5418 66.8266 24.5028 68.7324C25.4833 69.6853 26.8995 70.257 28.2723 70.257C29.645 70.257 30.778 69.7806 31.7585 68.923C33.7197 67.0172 33.7197 63.8726 31.7585 61.9667L28.2723 58.3457Z" stroke="#442917" stroke-width="3" stroke-linejoin="round"/>
<path d="M52.0925 58.3457L48.225 61.8715C46.3621 63.7773 46.3621 66.8266 48.323 68.7324C49.3039 69.6853 50.7199 70.257 52.0925 70.257C53.4653 70.257 54.5983 69.7806 55.5787 68.923C57.54 67.0172 57.54 63.8726 55.5787 61.9667L52.0925 58.3457Z" stroke="#442917" stroke-width="3" stroke-linejoin="round"/>
</svg>
