<svg width="1057" height="765" viewBox="0 0 1057 765" fill="none" xmlns="http://www.w3.org/2000/svg">
<g opacity="0.04">
<path d="M43.0661 -44.501L-326 133.515L-138.562 522.114L230.504 344.098L43.0661 -44.501Z" fill="#FFFAFA"/>
<path d="M605.691 -316L236.625 -137.984L424.063 250.615L793.129 72.5989L605.691 -316Z" fill="#FFFAFA"/>
<path d="M305.746 501.193L-63.3203 679.209L124.118 1067.81L493.184 889.792L305.746 501.193Z" fill="#FFFAFA"/>
<path d="M868.593 229.665L499.526 407.682L686.964 796.281L1056.03 618.264L868.593 229.665Z" fill="#FFFAFA"/>
<path fill-rule="evenodd" clip-rule="evenodd" d="M116.449 -79.3378L159.822 -101.024L375.542 344.114L820.681 129.535L841.225 172.907L396.087 388.628L610.667 833.767L567.294 854.311L352.715 409.173L-90.1408 622.611L-110.686 579.239L331.029 365.801L116.449 -79.3378Z" fill="#FFFAFA"/>
</g>
</svg>
