<svg width="420" height="257" viewBox="0 0 420 257" fill="none" xmlns="http://www.w3.org/2000/svg">
<path d="M0 252.869C0 252.869 99.9809 260.388 94.4772 253.786C88.9736 247.184 15.2264 229.577 39.8091 228.66C64.3917 227.743 172.26 249.751 185.377 249.385C198.493 249.018 173.177 249.11 149.42 235.996C125.663 222.883 84.0206 174.556 86.4971 101.929C88.9728 29.3018 138.688 -0.0420755 178.863 0.507569C219.039 1.05803 249.4 47.458 259.169 67.5413C268.937 87.6238 270.039 100.401 268.876 98.3836C267.714 96.3658 251.601 51.0356 227.936 28.4773C204.272 5.91813 182.716 1.05803 157.95 10.0446C133.184 19.0311 109.611 55.9865 112.088 118.16C114.564 180.333 161.62 240.031 207.482 241.681C253.345 243.332 269.671 181.893 272.79 163.919C275.909 145.946 272.056 110.457 270.222 108.806C268.388 107.156 257.655 108.256 259.215 119.444C260.774 130.631 267.286 196.152 217.893 214.033C168.498 231.915 118.692 134.391 135.203 78.8205C151.714 23.2499 190.054 21.2321 219.957 44.1577C249.859 67.0833 255.088 98.0777 254.905 101.47C254.721 104.863 246.925 107.89 243.255 101.47C239.586 95.0514 222.708 43.424 180.148 52.4106C137.587 61.3971 143.642 158.6 184.55 185.377C225.46 212.154 246.648 165.891 247.749 149.11C248.85 132.328 247.78 118.619 246.007 117.579C244.233 116.54 234.939 116.663 234.999 122.837C235.061 129.012 238.53 168.229 204.821 171.117C171.112 174.006 159.968 100.003 175.791 84.0479C191.613 68.0918 208.812 73.3192 221.607 88.4491C234.403 103.58 229.679 111.833 219.956 109.143C210.233 106.452 207.481 91.4141 193.111 95.0203C178.741 98.6273 179.597 143.102 202.07 147.87C224.543 152.639 225.779 120.145 221.254 119.473C216.729 118.801 207.329 124.64 203.691 123.783C200.053 122.927 202.957 119.183 202.239 119.168C201.52 119.152 197.301 122.988 197.407 123.738C197.514 124.487 205.235 123.294 205.28 122.301C205.326 121.308 203.355 119.398 204.057 118.878C204.761 118.358 333.696 83.3583 335.209 82.7171C336.723 82.075 339.658 76.7413 338.466 76.7413C337.273 76.7413 317.338 82.1822 317.124 81.846C316.91 81.5098 318.653 77.7498 319.234 77.4448C319.815 77.1389 347.302 69.1306 346.415 70.6282C345.529 72.1258 338.328 82.3965 338.925 81.4796C339.521 80.5627 341.447 75.0834 340.667 74.9231C339.887 74.7628 312.599 82.3965 311.177 83.589C309.755 84.7807 308.517 92.9428 308.058 93.4008C307.6 93.8589 224.038 118.023 222.433 117.931C220.828 117.84 220.598 115.96 221.516 115.639C222.433 115.318 334.49 85.3623 336.264 85.6673C338.038 85.9733 344.107 91.0166 343.739 91.9793C343.373 92.942 320.579 99.6825 318.79 99.8199C317.002 99.9573 310.443 94.4093 311.177 93.9971C311.911 93.584 349.335 83.9554 349.977 82.9011C350.619 81.8468 349.167 79.1567 347.944 79.0953C346.721 79.034 341.615 79.9206 341.553 80.8375C341.492 81.7544 352.682 84.3529 352.376 85.6363C352.07 86.9196 342.134 90.435 344.641 88.6928C347.148 86.9507 362.68 82.8545 368.734 106.88C374.788 130.906 393.317 100.461 419 105.413" stroke="#0094D9" stroke-miterlimit="10"/>
</svg>
