<svg width="498" height="144" viewBox="0 0 498 144" fill="none" xmlns="http://www.w3.org/2000/svg">
<path d="M138.674 134.757C212.079 137.982 260.97 67.4757 260.715 67.4757C160.628 -53.8233 60.1686 16.9345 22.4495 67.4757C64.8584 115.705 104.433 133.252 138.674 134.757ZM138.674 134.757C137.154 141.21 119.697 147.919 62.0356 123.121C53.443 119.426 24.6898 102.207 0.415039 138.433M138.674 134.757C148.228 142.557 190.667 152.502 260.715 127.059C260.715 126.748 360.748 80.5199 511.361 134.757" stroke="#0094DA"/>
<path d="M141.441 36.2393C158.918 36.2393 173.086 50.4065 173.086 67.8828C173.086 85.3592 158.918 99.5264 141.441 99.5264C123.965 99.5262 109.798 85.3591 109.798 67.8828C109.798 50.4065 123.965 36.2394 141.441 36.2393Z" stroke="#0094DA"/>
<circle cx="141.442" cy="67.7349" r="62.0338" stroke="#0094DA"/>
<path d="M150.215 37.4548C161.754 39.1817 187.516 52.7144 198.254 93.0295M169.371 82.7533C163.641 97.9814 137.718 118.058 80.0713 76.8013" stroke="#0094DA"/>
</svg>
