<svg width="13" height="9" viewBox="0 0 13 9" fill="none" xmlns="http://www.w3.org/2000/svg">
<path d="M8.70674 0.163156C8.54345 -0.0296155 8.25445 -0.0551482 8.05877 0.105708C7.86308 0.266564 7.83716 0.551253 8.00045 0.744025C8.01859 0.764451 8.03803 0.784877 8.05877 0.801474L11.3647 4.062L0.43734 4.062C0.183336 4.07476 -0.0123511 4.28924 0.000608279 4.53946C0.0135677 4.77181 0.201479 4.95692 0.43734 4.96969L11.3647 4.96969L8.05358 8.22638C7.87993 8.40511 7.87993 8.68597 8.05358 8.8647C8.23242 9.04087 8.52142 9.04087 8.70026 8.8647L12.7954 4.83053C12.9743 4.66074 12.9795 4.37988 12.8071 4.20371C12.8032 4.19988 12.7993 4.19605 12.7954 4.19222L8.70674 0.163156Z" fill="white"/>
</svg>
