<svg width="14" height="14" viewBox="0 0 14 14" fill="none" xmlns="http://www.w3.org/2000/svg">
<path d="M0.685812 13.2492C0.924461 13.2492 1.11909 13.0545 1.11909 12.8159C1.11909 11.7412 1.99411 10.8661 3.06884 10.8661H6.57232L4.92807 12.5104C4.75882 12.6796 4.75882 12.9547 4.92807 13.1231C5.09732 13.2923 5.37236 13.2923 5.54075 13.1231L7.18499 11.4788C7.46426 11.1995 7.61827 10.8289 7.61827 10.4329C7.61827 10.0368 7.46425 9.66616 7.18499 9.38691L5.54075 7.74267C5.3715 7.57342 5.09647 7.57342 4.92807 7.74267C4.84599 7.82475 4.80029 7.93307 4.80029 8.04817C4.80029 8.16327 4.84599 8.27328 4.92807 8.35367L6.56978 9.99792H3.0663C1.51259 9.99792 0.25 11.2605 0.25 12.8142C0.25 13.0529 0.444637 13.2475 0.683277 13.2475L0.685812 13.2492Z" fill="#0094DA" stroke="#0094DA" stroke-width="0.5"/>
<path d="M13.2507 4.36698C13.2507 3.3811 12.5839 2.5188 11.6259 2.27168L11.301 2.18705V0.683277C11.301 0.444628 11.1063 0.25 10.8677 0.25C10.6291 0.25 10.4344 0.444637 10.4344 0.683277V2.19975H7.83477V0.683277C7.83477 0.444628 7.64013 0.25 7.40149 0.25C7.16285 0.25 6.96821 0.444637 6.96821 0.683277V2.19975H4.36855V0.683277C4.36855 0.444628 4.17391 0.25 3.93527 0.25C3.69663 0.25 3.50199 0.444637 3.50199 0.683277V2.18705L3.17704 2.27168C2.21908 2.51877 1.55225 3.3811 1.55225 4.36698V6.96665C1.55225 7.2053 1.74688 7.39993 1.98552 7.39993C2.22416 7.39993 2.4188 7.20529 2.4188 6.96665V4.36698C2.4188 3.65021 3.00186 3.06715 3.71863 3.06715H11.0843C11.8011 3.06715 12.3842 3.65021 12.3842 4.36698V11.0828C12.3842 11.7996 11.8011 12.3826 11.0843 12.3826H10.2178C9.97914 12.3826 9.78452 12.5773 9.78452 12.8159C9.78452 13.0545 9.97915 13.2492 10.2178 13.2492H11.0843C12.2784 13.2492 13.2507 12.2768 13.2507 11.0828V4.36698Z" fill="#0094DA" stroke="#0094DA" stroke-width="0.5"/>
</svg>
