<svg width="15" height="15" viewBox="0 0 15 15" fill="none" xmlns="http://www.w3.org/2000/svg">
<path fill-rule="evenodd" clip-rule="evenodd" d="M4.08752 3.125C4.12502 3.68125 4.21877 4.225 4.36877 4.74375L3.61877 5.49375C3.36252 4.74375 3.20002 3.95 3.14377 3.125H4.08752ZM10.25 10.6372C10.7812 10.7872 11.325 10.881 11.875 10.9185V11.8497C11.05 11.7935 10.2562 11.631 9.49997 11.381L10.25 10.6372ZM4.6875 1.875H2.5C2.15625 1.875 1.875 2.15625 1.875 2.5C1.875 8.36875 6.63125 13.125 12.5 13.125C12.8438 13.125 13.125 12.8438 13.125 12.5V10.3188C13.125 9.975 12.8438 9.69375 12.5 9.69375C11.725 9.69375 10.9688 9.56875 10.2688 9.3375C10.2063 9.3125 10.1375 9.30625 10.075 9.30625C9.9125 9.30625 9.75625 9.36875 9.63125 9.4875L8.25625 10.8625C6.4875 9.95625 5.0375 8.5125 4.1375 6.74375L5.5125 5.36875C5.6875 5.19375 5.7375 4.95 5.66875 4.73125C5.4375 4.03125 5.3125 3.28125 5.3125 2.5C5.3125 2.15625 5.03125 1.875 4.6875 1.875Z" fill="#0094DA"/>
</svg>
