<svg width="14" height="14" viewBox="0 0 14 14" fill="none" xmlns="http://www.w3.org/2000/svg">
<path d="M0.683333 9.78334C0.444653 9.78334 0.25 9.978 0.25 10.2167V11.0833C0.25 12.2775 1.22246 13.25 2.41667 13.25H10.65C11.8442 13.25 12.8167 12.2775 12.8167 11.0833V10.2167C12.8167 9.97799 12.622 9.78334 12.3833 9.78334C12.1447 9.78334 11.95 9.978 11.95 10.2167V11.0833C11.95 11.8002 11.3669 12.3833 10.65 12.3833H2.41667C1.6998 12.3833 1.11667 11.8002 1.11667 11.0833V10.2167C1.11667 9.97799 0.922005 9.78334 0.683333 9.78334Z" fill="#0094DA" stroke="#0094DA" stroke-width="0.5"/>
<path d="M6.53322 0.25C6.29454 0.25 6.09988 0.444662 6.09988 0.683333V8.08727L4.05678 6.04416C3.95945 5.94683 3.82742 5.89013 3.69454 5.89013C3.6099 5.89013 3.53458 5.91383 3.47111 5.95699C3.36024 6.03485 3.29592 6.14742 3.28237 6.27776C3.27137 6.40556 3.31708 6.53168 3.40763 6.62222L5.49643 8.70426C5.77402 8.97932 6.13967 9.13083 6.52982 9.13083C6.91997 9.13083 7.28816 8.97933 7.56321 8.70426L9.6537 6.61969C9.74511 6.52828 9.78996 6.40302 9.77896 6.27523C9.76796 6.1432 9.70279 6.03232 9.59022 5.95445C9.42772 5.83935 9.16959 5.87828 9.0054 6.04078L6.96229 8.08388L6.96399 0.683418C6.96399 0.444738 6.76933 0.250084 6.53065 0.250084L6.53322 0.25Z" fill="#0094DA" stroke="#0094DA" stroke-width="0.5"/>
</svg>
