<svg width="24" height="24" viewBox="0 0 24 24" fill="none" xmlns="http://www.w3.org/2000/svg">
<path d="M12 0C5.3728 0 0 5.3728 0 12C0 18.6272 5.3728 24 12 24C18.6272 24 24 18.6272 24 12C24 5.3728 18.6272 0 12 0ZM16.7232 6.0586H15.3176C13.933 6.0586 13.5011 6.91801 13.5011 7.79913V9.8898H16.5922L16.0981 13.1119H13.5011V20.9009H10.0178V13.1126H7.18785V9.89052H10.0178V7.43453C10.0178 4.6407 11.6817 3.09766 14.2281 3.09766C15.4478 3.09766 16.7232 3.31541 16.7232 3.31541V6.0586Z" fill="#9DDCF9"/>
</svg>
