<svg width="25" height="25" viewBox="0 0 25 25" fill="none" xmlns="http://www.w3.org/2000/svg">
<path d="M12.3522 9.94052C11.0562 9.94052 10.0018 10.9949 10.0018 12.2909C10.0018 13.5869 11.0562 14.6413 12.3522 14.6413C13.6482 14.6413 14.7026 13.5869 14.7026 12.2909C14.7026 10.9949 13.6482 9.94052 12.3522 9.94052Z" fill="#9DDCF9"/>
<path d="M15.2654 6.24316H9.31677C7.62139 6.24316 6.24316 7.62214 6.24316 9.31677V15.2661C6.24316 16.9615 7.62213 18.3398 9.31677 18.3398H15.2654C16.9608 18.3398 18.3398 16.9608 18.3398 15.2661V9.31677C18.339 7.62214 16.96 6.24316 15.2654 6.24316ZM12.3518 15.9612C10.3282 15.9612 8.68248 14.3147 8.68248 12.2918C8.68248 10.2682 10.3282 8.62247 12.3518 8.62247C14.3755 8.62247 16.0212 10.2689 16.0212 12.2918C16.022 14.3147 14.3755 15.9612 12.3518 15.9612ZM16.2354 9.2486C15.753 9.2486 15.3617 8.85736 15.3617 8.37498C15.3617 7.8926 15.753 7.50136 16.2354 7.50136C16.7177 7.50136 17.109 7.8926 17.109 8.37498C17.109 8.85736 16.7185 9.2486 16.2354 9.2486Z" fill="#9DDCF9"/>
<path d="M12.2915 0.000152588C5.50331 0.000152588 0 5.50345 0 12.2916C0 19.0798 5.50331 24.5831 12.2915 24.5831C19.0797 24.5831 24.583 19.0798 24.583 12.2916C24.583 5.50345 19.0797 0.000152588 12.2915 0.000152588ZM19.7413 15.2659C19.7413 17.7334 17.7333 19.7415 15.2658 19.7415H9.31716C6.84968 19.7415 4.84161 17.7334 4.84161 15.2659V9.31657C4.84161 6.84834 6.84968 4.84101 9.31716 4.84101H15.2658C17.734 4.84101 19.7413 6.84834 19.7413 9.31657V15.2659Z" fill="#9DDCF9"/>
</svg>
