<svg width="232" height="71" viewBox="0 0 232 71" fill="none" xmlns="http://www.w3.org/2000/svg">
<path d="M197.014 9.16784L184.552 15.179L190.881 28.3011L203.344 22.2899L197.014 9.16784Z" fill="#9CDCF8"/>
<path d="M216.012 -1.57447e-06L203.55 6.0112L209.879 19.1333L222.342 13.1221L216.012 -1.57447e-06Z" fill="#9CDCF8"/>
<path d="M205.884 27.5953L193.422 33.6065L199.751 46.7286L212.214 40.7174L205.884 27.5953Z" fill="#9CDCF8"/>
<path d="M224.89 18.4257L212.428 24.4369L218.757 37.559L231.22 31.5478L224.89 18.4257Z" fill="#9CDCF8"/>
<path fill-rule="evenodd" clip-rule="evenodd" d="M199.492 7.99197L200.957 7.25967L208.241 22.291L223.272 15.0451L223.966 16.5097L208.935 23.7941L216.181 38.8254L214.716 39.5192L207.47 24.4879L192.516 31.6952L191.822 30.2306L206.738 23.0233L199.492 7.99197Z" fill="#0094D9"/>
<path d="M122.756 35.8577H102.213C102.406 37.515 102.83 38.7098 103.524 39.5192C106.029 42.5254 109.729 41.3692 111.81 38.6327H122.024C120.829 41.5233 118.786 44.1827 116.011 45.6859C113.853 46.8421 110.77 47.4588 106.761 47.4588C101.211 47.4588 96.509 46.1484 93.5413 41.1379C92.2309 38.941 91.5757 36.3587 91.5757 33.391C91.5757 29.19 92.8861 25.7597 95.5455 23.1389C98.2049 20.5181 101.828 19.1306 106.491 19.2076C116.474 19.4003 122.756 24.7577 122.756 34.6629V35.8577ZM112.003 30.4618C111.81 28.4577 111.271 27.5327 110.423 26.6847C109.575 25.8368 108.457 25.3743 107.069 25.3743C105.451 25.3743 104.025 26.0295 103.061 27.34C102.444 28.1493 102.059 28.8431 101.905 30.4618H112.003Z" fill="#0094D9"/>
<path d="M183.035 27.9952L173.053 28.1108C172.667 26.8004 173.053 24.7962 174.093 23.3702C176.676 19.7087 182.033 19.0535 186.157 19.0535C189.24 19.0535 191.746 19.2462 193.634 19.5931C195.523 19.9399 197.103 20.6722 198.336 21.7899C199.223 22.5608 199.916 23.6399 200.417 25.0275C200.919 26.4535 201.188 27.7639 201.188 29.0743V41.0608C201.188 42.3327 201.265 43.3348 201.42 44.0671C201.574 44.7994 201.921 45.7244 202.46 46.8421H192.208C191.591 45.7244 191.283 44.7994 191.09 43.5275C189.741 44.8379 188.932 45.8015 187.583 46.3411C185.772 47.1119 183.613 47.4588 181.224 47.4588C178.025 47.4588 175.558 46.7265 173.901 45.2234C172.243 43.7202 171.396 41.8702 171.396 39.6733C171.396 31.1171 180.568 31.8108 186.735 30.115C189.086 29.4598 190.474 29.3056 190.397 27.6098C190.32 25.2972 184.384 23.9097 183.035 27.9952ZM190.474 34.74C189.202 35.2025 187.853 35.6264 186.504 35.9733C184.615 36.4744 183.421 36.9754 182.92 37.4765C182.38 37.9775 182.149 38.5556 182.149 39.2108C182.149 39.9431 182.418 40.5598 182.92 41.0223C183.421 41.4848 184.191 41.7161 185.155 41.7161C186.196 41.7161 187.159 41.4463 188.046 40.9452C188.932 40.4442 189.549 39.8275 189.934 39.0952C190.32 38.3629 190.474 37.4379 190.474 36.2431V34.74Z" fill="#0094D9"/>
<path d="M164.304 12.0003V20.3253H169.43V26.3764H164.342V36.6285C164.342 37.7462 164.458 38.4015 164.651 38.7869C165.306 39.9046 168.466 40.0587 169.468 39.7119V46.8806C167.04 47.4202 164.766 47.4588 162.646 47.4588C160.18 47.4588 158.368 47.1504 157.212 46.4952C156.056 45.84 155.208 45.1077 154.63 43.7973C154.09 42.4869 153.782 40.3285 153.782 37.3608V26.4149H149.851V20.3639H153.859V12.0388H164.304V12.0003Z" fill="#0094D9"/>
<path d="M122.678 38.2858H132.545C132.969 39.5192 133.547 40.4056 134.28 40.9067C135.012 41.4463 136.014 41.7161 137.286 41.7161C138.635 41.7161 140.099 40.6754 140.099 39.1723C140.099 37.1296 137.247 36.6285 135.821 36.3587C132.314 35.7035 129.847 35.1254 128.46 34.5858C127.072 34.0462 125.916 33.1212 124.991 31.8493C124.027 30.5775 123.565 29.1129 123.565 27.4556C123.565 25.6827 124.066 24.1024 125.068 22.8306C126.07 21.5201 127.458 20.5566 129.269 19.9399C131.042 19.2847 133.432 18.9764 136.438 18.9764C141.448 18.9764 149.85 20.5181 149.658 27.2629L140.061 27.2243C139.791 26.3379 139.406 25.7212 138.827 25.2972C138.018 24.7577 137.055 24.4879 135.937 24.4879C133.933 24.4879 132.468 27.0702 134.588 28.1108C137.825 29.7295 141.872 29.3827 145.38 30.8858C148.501 32.1962 150.621 34.4702 150.621 38.016C150.621 39.5963 150.159 41.0994 149.234 42.6025C148.309 44.1056 146.844 45.2619 144.879 46.1484C142.874 47.0348 140.176 47.4588 136.746 47.4588C131.928 47.4588 128.652 46.6494 126.571 45.2234C124.374 43.6817 122.524 41.0223 122.678 38.2858Z" fill="#0094D9"/>
<path d="M61.2432 20.7108H70.9557V25.066C72.4203 23.2931 74.1547 21.7129 75.6578 20.942C79.5891 18.9764 84.5995 19.4774 87.7214 22.6379C89.3787 24.3337 90.612 26.916 90.612 30.4619V47.4588H79.8974V32.7744C79.8974 31.1171 79.5891 29.9223 78.9339 29.2285C78.2787 28.5348 77.3922 28.1879 76.1974 28.1879C74.9255 28.1879 73.8463 28.6504 73.0755 29.6139C72.2661 30.5389 71.8807 32.2348 71.8807 34.6629V47.4973H61.2432V20.7108Z" fill="#0094D9"/>
<path d="M60.318 35.8577H39.7752C39.9679 37.515 40.3919 38.7098 41.0857 39.5192C43.5909 42.5254 47.2909 41.3692 49.3722 38.6327H59.5857C58.3909 41.5233 56.3482 44.1827 53.5732 45.6859C51.4149 46.8421 48.3315 47.4588 44.3232 47.4588C38.7732 47.4588 34.071 46.1484 31.1033 41.1379C29.7929 38.941 29.1377 36.3587 29.1377 33.391C29.1377 29.19 30.4481 25.7597 33.1075 23.1389C35.7669 20.5181 39.3898 19.1306 44.0534 19.2076C54.0357 19.4003 60.318 24.7577 60.318 34.6629V35.8577ZM49.5649 30.4618C49.3722 28.4577 48.8326 27.5327 47.9846 26.6847C47.1367 25.8368 46.019 25.3743 44.6315 25.3743C43.0128 25.3743 41.5867 26.0295 40.6232 27.34C40.0065 28.1493 39.6211 28.8431 39.4669 30.4618H49.5649Z" fill="#0094D9"/>
<path d="M0 10.5357H29.0605V18.4368H12.1021V25.8754H25.4761V34.2004H12.1021V47.4203H0V10.5357Z" fill="#0094D9"/>
<path d="M202.537 66.9609H198.953V61.2182C198.953 60.7557 198.876 60.4474 198.722 60.2932C198.568 60.1776 198.375 60.1005 198.182 60.1005C197.527 60.1005 197.219 60.563 197.219 61.4495V66.9609H193.634V57.8265H196.949V59.137C197.45 58.1349 198.336 57.6724 199.57 57.6724C200.225 57.6724 200.803 57.788 201.266 58.0578C201.728 58.3276 202.075 58.6359 202.268 59.0599C202.46 59.4838 202.576 60.1776 202.576 61.1797V66.9609H202.537ZM186.466 66.8453H186.08C185.463 66.8453 185.155 67.038 185.155 67.4234C185.155 67.7703 185.386 68.0016 185.849 68.1172C186.311 68.2328 186.967 68.2714 187.737 68.2714C188.508 68.2714 188.971 68.1943 189.163 68.0787C189.356 67.963 189.472 67.7703 189.472 67.5391C189.472 67.3849 189.433 67.2693 189.318 67.1537C189.241 67.038 189.009 66.9995 188.624 66.9609L186.466 66.8453ZM187.391 61.6422C188.084 61.6422 188.431 61.2568 188.431 60.5245C188.431 59.7536 188.084 59.4067 187.352 59.4067C186.658 59.4067 186.311 59.7922 186.311 60.563C186.311 61.3338 186.658 61.6422 187.391 61.6422ZM192.671 55.7453L192.594 58.2119H192.44C192.131 58.2119 191.9 58.1734 191.746 58.1734C191.168 58.1734 190.859 58.289 190.744 58.5203C191.437 59.0984 191.784 59.7536 191.784 60.563C191.784 61.488 191.399 62.2203 190.667 62.6828C189.934 63.1453 188.932 63.3766 187.66 63.3766H186.774C186.196 63.3766 185.887 63.5307 185.887 63.8391C185.887 64.1089 186.157 64.263 186.658 64.263L189.587 64.3786C190.667 64.4172 191.437 64.7255 191.938 65.2651C192.44 65.8047 192.709 66.4599 192.709 67.1922C192.709 68.0787 192.324 68.7724 191.592 69.3505C190.859 69.8901 189.395 70.1985 187.236 70.1985C183.922 70.1985 182.226 69.4276 182.226 67.8859C182.226 67.038 182.65 66.4599 183.536 66.1516C182.958 65.7661 182.688 65.2651 182.688 64.7255C182.688 63.8391 183.267 63.1453 184.461 62.6828C183.498 62.2588 182.997 61.5651 182.997 60.563C182.997 59.638 183.382 58.9442 184.192 58.4432C184.962 57.9422 186.08 57.6724 187.429 57.6724C188.046 57.6724 188.624 57.7495 189.163 57.8651C189.356 56.439 190.127 55.7067 191.437 55.7067C191.707 55.6682 192.093 55.7067 192.671 55.7453ZM181.224 66.9609H177.639V57.8265H181.224V66.9609ZM181.224 57.1328H177.639V54.2807H181.224V57.1328ZM167.079 64.3786L169.931 63.9932C170.085 64.6484 170.74 64.9953 171.858 64.9953C172.783 64.9953 173.246 64.8026 173.246 64.4557C173.246 64.3016 173.169 64.1859 172.976 64.1088C172.783 64.0318 172.359 63.9161 171.704 63.8391C169.854 63.5693 168.698 63.1838 168.235 62.6443C167.773 62.1047 167.542 61.488 167.542 60.7943C167.542 59.8693 167.927 59.0984 168.698 58.5203C169.469 57.9422 170.509 57.6338 171.781 57.6338C174.017 57.6338 175.404 58.4432 176.021 60.0234L173.323 60.5245C173.053 59.9849 172.552 59.7151 171.743 59.7151C171.357 59.7151 171.087 59.7536 170.895 59.8692C170.702 59.9849 170.625 60.062 170.625 60.1776C170.625 60.4859 170.933 60.6401 171.473 60.7172C172.976 60.8713 173.978 61.064 174.518 61.2182C175.057 61.3724 175.52 61.7193 175.905 62.1818C176.291 62.6443 176.483 63.1838 176.483 63.8391C176.483 64.8411 176.059 65.6505 175.211 66.2286C174.363 66.8068 173.207 67.1151 171.743 67.1151C169.199 67.1537 167.657 66.2286 167.079 64.3786ZM162.878 61.3338C162.878 60.7172 162.762 60.2932 162.493 60.1005C162.261 59.9078 161.953 59.7922 161.568 59.7922C160.72 59.7922 160.296 60.3318 160.296 61.3724H162.878V61.3338ZM163.109 63.6849L166.462 63.9161C166.27 64.8026 165.769 65.5734 164.959 66.2286C164.15 66.8839 163.032 67.1922 161.645 67.1922C160.103 67.1922 158.87 66.7297 157.945 65.8432C157.02 64.9568 156.557 63.8391 156.557 62.5286C156.557 61.2182 157.02 60.0234 157.906 59.0599C158.793 58.0963 160.026 57.6338 161.529 57.6338C163.032 57.6338 164.188 58.0963 165.075 58.9828C165.961 59.8692 166.424 61.064 166.424 62.6057V63.1453H160.296C160.296 63.7234 160.411 64.1474 160.604 64.4172C160.797 64.687 161.144 64.8411 161.683 64.8411C162.531 64.8026 162.994 64.4557 163.109 63.6849ZM148.463 64.1474H149.427C150.044 64.1474 150.583 63.8391 151.007 63.2224C151.431 62.6057 151.662 61.7963 151.662 60.7557C151.662 59.8693 151.47 59.0984 151.084 58.4432C150.699 57.788 150.159 57.4797 149.427 57.4797H148.463V64.1474ZM144.686 66.9609V54.6661H149.427C151.47 54.6661 153.05 55.2828 154.052 56.5161C155.093 57.7495 155.594 59.137 155.594 60.7557C155.594 62.6057 155.054 64.0703 153.936 65.2266C152.819 66.3828 151.392 66.9609 149.658 66.9609H144.686ZM139.059 57.8265L135.475 67.7318C135.205 68.4641 134.82 69.0807 134.28 69.5047C133.779 69.9287 132.97 70.1214 131.89 70.1214C131.621 70.1214 131.042 70.0828 130.079 70.0443V67.5005C130.541 67.5776 130.965 67.6162 131.389 67.6162C132.43 67.6162 132.931 67.3849 132.931 66.9224C132.931 66.7682 132.892 66.5755 132.777 66.3057L129.501 57.8265H133.355L134.858 62.7213L136.438 57.8265H139.059ZM123.45 63.5693C123.45 64.4557 123.797 64.9182 124.49 64.9182C124.876 64.9182 125.146 64.7641 125.338 64.4172C125.531 64.1089 125.647 63.4151 125.647 62.413C125.647 61.2953 125.531 60.6015 125.3 60.3317C125.068 60.062 124.799 59.9078 124.452 59.9078C124.182 59.9078 123.951 60.0234 123.758 60.2161C123.565 60.4088 123.45 60.7172 123.45 61.1026V63.5693ZM121.947 66.9609H119.942V54.6661H123.488V58.8672C123.989 58.0192 124.76 57.5953 125.839 57.5953C126.61 57.5953 127.227 57.788 127.766 58.1734C128.306 58.5588 128.691 59.137 128.961 59.8692C129.231 60.6015 129.347 61.3724 129.347 62.1818C129.347 63.6463 129 64.8411 128.344 65.7661C127.689 66.6526 126.687 67.1151 125.377 67.1151C124.066 67.1151 123.103 66.6141 122.448 65.6505C122.216 66.0745 122.062 66.4984 121.947 66.9609ZM111.694 66.9609H108.264V57.8265H111.232V59.7151C111.579 58.3276 112.35 57.6724 113.622 57.6724C113.737 57.6724 113.93 57.6724 114.161 57.7109V60.9099C113.891 60.8328 113.699 60.8328 113.467 60.8328C112.273 60.8328 111.694 61.488 111.694 62.837V66.9609ZM103.292 61.3338C103.292 60.7172 103.177 60.2932 102.907 60.1005C102.676 59.9078 102.367 59.7922 101.982 59.7922C101.134 59.7922 100.71 60.3318 100.71 61.3724H103.292V61.3338ZM103.524 63.6849L106.877 63.9161C106.684 64.8026 106.183 65.5734 105.374 66.2286C104.564 66.8839 103.446 67.1922 102.059 67.1922C100.517 67.1922 99.2839 66.7297 98.3589 65.8432C97.4339 64.9568 96.9714 63.8391 96.9714 62.5286C96.9714 61.2182 97.4339 60.0234 98.3204 59.0599C99.2454 58.1349 100.44 57.6338 101.943 57.6338C103.446 57.6338 104.603 58.0963 105.489 58.9828C106.376 59.8692 106.838 61.064 106.838 62.6057V63.1453H100.71C100.71 63.7234 100.826 64.1474 101.018 64.4172C101.211 64.687 101.558 64.8411 102.097 64.8411C102.907 64.8026 103.369 64.4557 103.524 63.6849ZM96.2777 57.8265V60.139H94.4662V63.5307C94.4662 63.9932 94.5433 64.263 94.736 64.3401C94.8902 64.4172 95.0829 64.4557 95.2756 64.4557C95.5454 64.4557 95.8923 64.4172 96.3162 64.3016V66.8453C95.6225 66.9995 94.9287 67.038 94.235 67.038C93.1173 67.038 92.3079 66.8068 91.8068 66.3443C91.3058 65.8818 91.036 65.1109 91.036 64.0703V60.1005H89.6485V57.788H91.036L91.0745 54.8203L94.5048 54.7817V57.8265H96.2777ZM89.4172 57.8265V60.139H87.6058V63.5307C87.6058 63.9932 87.6829 64.263 87.8756 64.3401C88.0297 64.4172 88.2224 64.4557 88.4151 64.4557C88.6849 64.4557 89.0318 64.4172 89.4558 64.3016V66.8453C88.762 66.9995 88.0683 67.038 87.3745 67.038C86.2568 67.038 85.4474 66.8068 84.9464 66.3443C84.4453 65.8818 84.1755 65.1109 84.1755 64.0703V60.1005H82.788V57.788H84.1755L84.2141 54.8203L87.6058 54.7817V57.8265H89.4172ZM78.7797 61.3338C78.7797 60.7172 78.6641 60.2932 78.3943 60.1005C78.163 59.9078 77.8547 59.7922 77.4693 59.7922C76.6214 59.7922 76.1974 60.3318 76.1974 61.3724H78.7797V61.3338ZM79.0109 63.6849L82.3641 63.9161C82.1714 64.8026 81.6703 65.5734 80.861 66.2286C80.0516 66.8839 78.9339 67.1922 77.5464 67.1922C76.0047 67.1922 74.7713 66.7297 73.8463 65.8432C72.9213 64.9568 72.4588 63.8391 72.4588 62.5286C72.4588 61.2182 72.9213 60.0234 73.8078 59.0599C74.6943 58.1349 75.9276 57.6338 77.4307 57.6338C78.9339 57.6338 80.0901 58.0963 80.9766 58.9828C81.863 59.8692 82.3255 61.064 82.3255 62.6057V63.1453H76.1974C76.1974 63.7234 76.313 64.1474 76.5057 64.4172C76.6984 64.687 77.0453 64.8411 77.5849 64.8411C78.4328 64.8026 78.8568 64.4557 79.0109 63.6849ZM64.7119 64.2245H66.5619C67.0244 64.2245 67.3713 64.1089 67.564 63.8776C67.7567 63.6464 67.8724 63.4151 67.8724 63.1068C67.8724 62.7984 67.7567 62.5672 67.564 62.3359C67.3713 62.1047 66.9859 61.989 66.4078 61.989H64.7119V64.2245ZM64.7119 59.4067H66.4463C66.8703 59.4067 67.1786 59.2911 67.3713 59.0599C67.564 58.8286 67.6411 58.5974 67.6411 58.3661C67.6411 57.6724 67.2171 57.3255 66.3692 57.3255H64.6734V59.4067H64.7119ZM61.2432 66.9609V54.6661H67.4869C68.7974 54.6661 69.7224 54.9744 70.339 55.6296C70.9172 56.2849 71.2255 57.0172 71.2255 57.8651C71.2255 58.4817 71.0713 59.0213 70.7245 59.5224C70.3776 60.0234 69.8765 60.3703 69.1828 60.563C70.763 60.9484 71.5724 61.912 71.5724 63.4151C71.5724 64.3401 71.3026 65.1495 70.7245 65.8432C70.1849 66.5755 68.9515 66.9224 67.1401 66.9224H61.2432V66.9609Z" fill="#ED1C24"/>
</svg>
