<svg width="232" height="71" viewBox="0 0 232 71" fill="none" xmlns="http://www.w3.org/2000/svg">
<path d="M197.014 9.1675L184.552 15.1787L190.881 28.3008L203.344 22.2896L197.014 9.1675Z" fill="white" fill-opacity="0.6"/>
<path d="M216.012 -0.000459338L203.55 6.01074L209.879 19.1328L222.342 13.1216L216.012 -0.000459338Z" fill="white" fill-opacity="0.6"/>
<path d="M205.884 27.5952L193.422 33.6064L199.751 46.7285L212.214 40.7173L205.884 27.5952Z" fill="white" fill-opacity="0.6"/>
<path d="M224.89 18.4253L212.428 24.4365L218.757 37.5586L231.22 31.5474L224.89 18.4253Z" fill="white" fill-opacity="0.6"/>
<path fill-rule="evenodd" clip-rule="evenodd" d="M199.492 7.99206L200.957 7.25977L208.241 22.2911L223.272 15.0452L223.966 16.5098L208.935 23.7942L216.181 38.8255L214.716 39.5193L207.47 24.488L192.516 31.6953L191.822 30.2307L206.738 23.0234L199.492 7.99206Z" fill="white"/>
<path d="M122.756 35.8582H102.213C102.405 37.5155 102.829 38.7103 103.523 39.5197C106.028 42.5259 109.728 41.3697 111.81 38.6332H122.023C120.828 41.5238 118.786 44.1832 116.011 45.6864C113.852 46.8426 110.769 47.4593 106.761 47.4593C101.211 47.4593 96.5085 46.1489 93.5408 41.1384C92.2304 38.9415 91.5752 36.3592 91.5752 33.3915C91.5752 29.1905 92.8856 25.7602 95.545 23.1394C98.2044 20.5185 101.827 19.131 106.491 19.2081C116.473 19.4008 122.756 24.7581 122.756 34.6634V35.8582ZM112.002 30.4623C111.81 28.4582 111.27 27.5332 110.422 26.6852C109.574 25.8373 108.457 25.3748 107.069 25.3748C105.45 25.3748 104.024 26.03 103.061 27.3404C102.444 28.1498 102.059 28.8436 101.904 30.4623H112.002Z" fill="white"/>
<path d="M183.035 27.9954L173.053 28.111C172.667 26.8006 173.053 24.7964 174.093 23.3704C176.676 19.7089 182.033 19.0537 186.157 19.0537C189.24 19.0537 191.746 19.2464 193.634 19.5933C195.523 19.9402 197.103 20.6725 198.336 21.7902C199.223 22.561 199.916 23.6402 200.417 25.0277C200.919 26.4537 201.188 27.7642 201.188 29.0746V41.0611C201.188 42.333 201.265 43.3351 201.42 44.0673C201.574 44.7996 201.921 45.7247 202.46 46.8424H192.208C191.591 45.7247 191.283 44.7996 191.09 43.5278C189.741 44.8382 188.932 45.8017 187.583 46.3413C185.772 47.1122 183.613 47.459 181.224 47.459C178.025 47.459 175.558 46.7267 173.901 45.2236C172.243 43.7205 171.396 41.8705 171.396 39.6736C171.396 31.1173 180.568 31.8111 186.735 30.1152C189.086 29.46 190.474 29.3058 190.397 27.61C190.32 25.2975 184.384 23.91 183.035 27.9954ZM190.474 34.7402C189.202 35.2027 187.853 35.6267 186.504 35.9736C184.615 36.4746 183.421 36.9757 182.92 37.4767C182.38 37.9777 182.149 38.5559 182.149 39.2111C182.149 39.9434 182.418 40.56 182.92 41.0225C183.421 41.4851 184.191 41.7163 185.155 41.7163C186.196 41.7163 187.159 41.4465 188.046 40.9455C188.932 40.4444 189.549 39.8278 189.934 39.0955C190.32 38.3632 190.474 37.4382 190.474 36.2434V34.7402Z" fill="white"/>
<path d="M164.304 12V20.325H169.43V26.3761H164.342V36.6282C164.342 37.7459 164.458 38.4011 164.651 38.7866C165.306 39.9043 168.466 40.0584 169.468 39.7116V46.8803C167.04 47.4199 164.766 47.4585 162.646 47.4585C160.18 47.4585 158.368 47.1501 157.212 46.4949C156.056 45.8397 155.208 45.1074 154.63 43.797C154.09 42.4866 153.782 40.3282 153.782 37.3605V26.4146H149.851V20.3636H153.859V12.0385H164.304V12Z" fill="white"/>
<path d="M122.678 38.286H132.545C132.969 39.5194 133.547 40.4058 134.28 40.9069C135.012 41.4464 136.014 41.7162 137.286 41.7162C138.635 41.7162 140.099 40.6756 140.099 39.1725C140.099 37.1298 137.247 36.6287 135.821 36.3589C132.314 35.7037 129.847 35.1256 128.46 34.586C127.072 34.0464 125.916 33.1214 124.991 31.8495C124.027 30.5777 123.565 29.1131 123.565 27.4558C123.565 25.6828 124.066 24.1026 125.068 22.8307C126.07 21.5203 127.458 20.5568 129.269 19.9401C131.042 19.2849 133.432 18.9766 136.438 18.9766C141.448 18.9766 149.85 20.5182 149.658 27.2631L140.061 27.2245C139.791 26.3381 139.406 25.7214 138.827 25.2974C138.018 24.7578 137.055 24.488 135.937 24.488C133.933 24.488 132.468 27.0703 134.588 28.111C137.825 29.7297 141.872 29.3829 145.38 30.886C148.501 32.1964 150.621 34.4704 150.621 38.0162C150.621 39.5964 150.159 41.0996 149.234 42.6027C148.309 44.1058 146.844 45.2621 144.879 46.1485C142.874 47.035 140.176 47.459 136.746 47.459C131.928 47.459 128.652 46.6496 126.571 45.2235C124.374 43.6819 122.524 41.0225 122.678 38.286Z" fill="white"/>
<path d="M61.2432 20.7109H70.9557V25.0661C72.4203 23.2932 74.1547 21.713 75.6578 20.9422C79.5891 18.9765 84.5995 19.4776 87.7214 22.638C89.3787 24.3338 90.612 26.9161 90.612 30.462V47.4589H79.8974V32.7745C79.8974 31.1172 79.5891 29.9224 78.9339 29.2286C78.2787 28.5349 77.3922 28.188 76.1974 28.188C74.9255 28.188 73.8463 28.6505 73.0755 29.6141C72.2661 30.5391 71.8807 32.2349 71.8807 34.663V47.4975H61.2432V20.7109Z" fill="white"/>
<path d="M60.318 35.8582H39.7752C39.9679 37.5155 40.3919 38.7103 41.0857 39.5197C43.5909 42.5259 47.2909 41.3697 49.3722 38.6332H59.5857C58.3909 41.5238 56.3482 44.1832 53.5732 45.6864C51.4149 46.8426 48.3315 47.4593 44.3232 47.4593C38.7732 47.4593 34.071 46.1489 31.1033 41.1384C29.7929 38.9415 29.1377 36.3592 29.1377 33.3915C29.1377 29.1905 30.4481 25.7602 33.1075 23.1394C35.7669 20.5185 39.3898 19.131 44.0534 19.2081C54.0357 19.4008 60.318 24.7581 60.318 34.6634V35.8582ZM49.5649 30.4623C49.3722 28.4582 48.8326 27.5332 47.9846 26.6852C47.1367 25.8373 46.019 25.3748 44.6315 25.3748C43.0128 25.3748 41.5867 26.03 40.6232 27.3404C40.0065 28.1498 39.6211 28.8436 39.4669 30.4623H49.5649Z" fill="white"/>
<path d="M0 10.5361H29.0605V18.4372H12.1021V25.8758H25.4761V34.2008H12.1021V47.4207H0V10.5361Z" fill="white"/>
<path d="M202.537 66.9605H198.953V61.2178C198.953 60.7553 198.876 60.447 198.722 60.2928C198.568 60.1772 198.375 60.1001 198.182 60.1001C197.527 60.1001 197.219 60.5626 197.219 61.4491V66.9605H193.634V57.8261H196.949V59.1365C197.45 58.1345 198.336 57.672 199.57 57.672C200.225 57.672 200.803 57.7876 201.266 58.0574C201.728 58.3272 202.075 58.6355 202.268 59.0595C202.46 59.4834 202.576 60.1772 202.576 61.1793V66.9605H202.537ZM186.466 66.8449H186.08C185.463 66.8449 185.155 67.0376 185.155 67.423C185.155 67.7699 185.386 68.0012 185.849 68.1168C186.311 68.2324 186.967 68.271 187.737 68.271C188.508 68.271 188.971 68.1939 189.163 68.0782C189.356 67.9626 189.472 67.7699 189.472 67.5387C189.472 67.3845 189.433 67.2689 189.318 67.1532C189.241 67.0376 189.009 66.9991 188.624 66.9605L186.466 66.8449ZM187.391 61.6418C188.084 61.6418 188.431 61.2563 188.431 60.524C188.431 59.7532 188.084 59.4063 187.352 59.4063C186.658 59.4063 186.311 59.7918 186.311 60.5626C186.311 61.3334 186.658 61.6418 187.391 61.6418ZM192.671 55.7449L192.594 58.2115H192.44C192.131 58.2115 191.9 58.173 191.746 58.173C191.168 58.173 190.859 58.2886 190.744 58.5199C191.437 59.098 191.784 59.7532 191.784 60.5626C191.784 61.4876 191.399 62.2199 190.667 62.6824C189.934 63.1449 188.932 63.3761 187.66 63.3761H186.774C186.196 63.3761 185.887 63.5303 185.887 63.8386C185.887 64.1084 186.157 64.2626 186.658 64.2626L189.587 64.3782C190.667 64.4168 191.437 64.7251 191.938 65.2647C192.44 65.8043 192.709 66.4595 192.709 67.1918C192.709 68.0782 192.324 68.772 191.592 69.3501C190.859 69.8897 189.395 70.198 187.236 70.198C183.922 70.198 182.226 69.4272 182.226 67.8855C182.226 67.0376 182.65 66.4595 183.536 66.1512C182.958 65.7657 182.688 65.2647 182.688 64.7251C182.688 63.8386 183.267 63.1449 184.461 62.6824C183.498 62.2584 182.997 61.5647 182.997 60.5626C182.997 59.6376 183.382 58.9438 184.192 58.4428C184.962 57.9417 186.08 57.672 187.429 57.672C188.046 57.672 188.624 57.749 189.163 57.8647C189.356 56.4386 190.127 55.7063 191.437 55.7063C191.707 55.6678 192.093 55.7063 192.671 55.7449ZM181.224 66.9605H177.639V57.8261H181.224V66.9605ZM181.224 57.1324H177.639V54.2803H181.224V57.1324ZM167.079 64.3782L169.931 63.9928C170.085 64.648 170.74 64.9949 171.858 64.9949C172.783 64.9949 173.246 64.8022 173.246 64.4553C173.246 64.3011 173.169 64.1855 172.976 64.1084C172.783 64.0314 172.359 63.9157 171.704 63.8386C169.854 63.5689 168.698 63.1834 168.235 62.6438C167.773 62.1043 167.542 61.4876 167.542 60.7938C167.542 59.8688 167.927 59.098 168.698 58.5199C169.469 57.9417 170.509 57.6334 171.781 57.6334C174.017 57.6334 175.404 58.4428 176.021 60.023L173.323 60.524C173.053 59.9845 172.552 59.7147 171.743 59.7147C171.357 59.7147 171.087 59.7532 170.895 59.8688C170.702 59.9845 170.625 60.0615 170.625 60.1772C170.625 60.4855 170.933 60.6397 171.473 60.7168C172.976 60.8709 173.978 61.0636 174.518 61.2178C175.057 61.372 175.52 61.7188 175.905 62.1813C176.291 62.6438 176.483 63.1834 176.483 63.8386C176.483 64.8407 176.059 65.6501 175.211 66.2282C174.363 66.8064 173.207 67.1147 171.743 67.1147C169.199 67.1532 167.657 66.2282 167.079 64.3782ZM162.878 61.3334C162.878 60.7168 162.762 60.2928 162.493 60.1001C162.261 59.9074 161.953 59.7918 161.568 59.7918C160.72 59.7918 160.296 60.3313 160.296 61.372H162.878V61.3334ZM163.109 63.6845L166.462 63.9157C166.27 64.8022 165.769 65.573 164.959 66.2282C164.15 66.8834 163.032 67.1918 161.645 67.1918C160.103 67.1918 158.87 66.7293 157.945 65.8428C157.02 64.9564 156.557 63.8386 156.557 62.5282C156.557 61.2178 157.02 60.023 157.906 59.0595C158.793 58.0959 160.026 57.6334 161.529 57.6334C163.032 57.6334 164.188 58.0959 165.075 58.9824C165.961 59.8688 166.424 61.0636 166.424 62.6053V63.1449H160.296C160.296 63.723 160.411 64.147 160.604 64.4168C160.797 64.6866 161.144 64.8407 161.683 64.8407C162.531 64.8022 162.994 64.4553 163.109 63.6845ZM148.463 64.147H149.427C150.044 64.147 150.583 63.8386 151.007 63.222C151.431 62.6053 151.662 61.7959 151.662 60.7553C151.662 59.8688 151.47 59.098 151.084 58.4428C150.699 57.7876 150.159 57.4792 149.427 57.4792H148.463V64.147ZM144.686 66.9605V54.6657H149.427C151.47 54.6657 153.05 55.2824 154.052 56.5157C155.093 57.749 155.594 59.1365 155.594 60.7553C155.594 62.6053 155.054 64.0699 153.936 65.2262C152.819 66.3824 151.392 66.9605 149.658 66.9605H144.686ZM139.059 57.8261L135.475 67.7314C135.205 68.4637 134.82 69.0803 134.28 69.5043C133.779 69.9283 132.97 70.121 131.89 70.121C131.621 70.121 131.042 70.0824 130.079 70.0439V67.5001C130.541 67.5772 130.965 67.6157 131.389 67.6157C132.43 67.6157 132.931 67.3845 132.931 66.922C132.931 66.7678 132.892 66.5751 132.777 66.3053L129.501 57.8261H133.355L134.858 62.7209L136.438 57.8261H139.059ZM123.45 63.5689C123.45 64.4553 123.797 64.9178 124.49 64.9178C124.876 64.9178 125.146 64.7636 125.338 64.4168C125.531 64.1084 125.647 63.4147 125.647 62.4126C125.647 61.2949 125.531 60.6011 125.3 60.3313C125.068 60.0615 124.799 59.9074 124.452 59.9074C124.182 59.9074 123.951 60.023 123.758 60.2157C123.565 60.4084 123.45 60.7168 123.45 61.1022V63.5689ZM121.947 66.9605H119.942V54.6657H123.488V58.8668C123.989 58.0188 124.76 57.5949 125.839 57.5949C126.61 57.5949 127.227 57.7876 127.766 58.173C128.306 58.5584 128.691 59.1365 128.961 59.8688C129.231 60.6011 129.347 61.372 129.347 62.1813C129.347 63.6459 129 64.8407 128.344 65.7657C127.689 66.6522 126.687 67.1147 125.377 67.1147C124.066 67.1147 123.103 66.6137 122.448 65.6501C122.216 66.0741 122.062 66.498 121.947 66.9605ZM111.694 66.9605H108.264V57.8261H111.232V59.7147C111.579 58.3272 112.35 57.672 113.622 57.672C113.737 57.672 113.93 57.672 114.161 57.7105V60.9095C113.891 60.8324 113.699 60.8324 113.467 60.8324C112.273 60.8324 111.694 61.4876 111.694 62.8366V66.9605ZM103.292 61.3334C103.292 60.7168 103.177 60.2928 102.907 60.1001C102.676 59.9074 102.367 59.7918 101.982 59.7918C101.134 59.7918 100.71 60.3313 100.71 61.372H103.292V61.3334ZM103.524 63.6845L106.877 63.9157C106.684 64.8022 106.183 65.573 105.374 66.2282C104.564 66.8834 103.446 67.1918 102.059 67.1918C100.517 67.1918 99.2839 66.7293 98.3589 65.8428C97.4339 64.9564 96.9714 63.8386 96.9714 62.5282C96.9714 61.2178 97.4339 60.023 98.3204 59.0595C99.2454 58.1345 100.44 57.6334 101.943 57.6334C103.446 57.6334 104.603 58.0959 105.489 58.9824C106.376 59.8688 106.838 61.0636 106.838 62.6053V63.1449H100.71C100.71 63.723 100.826 64.147 101.018 64.4168C101.211 64.6866 101.558 64.8407 102.097 64.8407C102.907 64.8022 103.369 64.4553 103.524 63.6845ZM96.2777 57.8261V60.1386H94.4662V63.5303C94.4662 63.9928 94.5433 64.2626 94.736 64.3397C94.8902 64.4168 95.0829 64.4553 95.2756 64.4553C95.5454 64.4553 95.8923 64.4168 96.3162 64.3011V66.8449C95.6225 66.9991 94.9287 67.0376 94.235 67.0376C93.1173 67.0376 92.3079 66.8064 91.8068 66.3439C91.3058 65.8814 91.036 65.1105 91.036 64.0699V60.1001H89.6485V57.7876H91.036L91.0745 54.8199L94.5048 54.7813V57.8261H96.2777ZM89.4172 57.8261V60.1386H87.6058V63.5303C87.6058 63.9928 87.6829 64.2626 87.8756 64.3397C88.0297 64.4168 88.2224 64.4553 88.4151 64.4553C88.6849 64.4553 89.0318 64.4168 89.4558 64.3011V66.8449C88.762 66.9991 88.0683 67.0376 87.3745 67.0376C86.2568 67.0376 85.4474 66.8064 84.9464 66.3439C84.4453 65.8814 84.1755 65.1105 84.1755 64.0699V60.1001H82.788V57.7876H84.1755L84.2141 54.8199L87.6058 54.7813V57.8261H89.4172ZM78.7797 61.3334C78.7797 60.7168 78.6641 60.2928 78.3943 60.1001C78.163 59.9074 77.8547 59.7918 77.4693 59.7918C76.6214 59.7918 76.1974 60.3313 76.1974 61.372H78.7797V61.3334ZM79.0109 63.6845L82.3641 63.9157C82.1714 64.8022 81.6703 65.573 80.861 66.2282C80.0516 66.8834 78.9339 67.1918 77.5464 67.1918C76.0047 67.1918 74.7713 66.7293 73.8463 65.8428C72.9213 64.9564 72.4588 63.8386 72.4588 62.5282C72.4588 61.2178 72.9213 60.023 73.8078 59.0595C74.6943 58.1345 75.9276 57.6334 77.4307 57.6334C78.9339 57.6334 80.0901 58.0959 80.9766 58.9824C81.863 59.8688 82.3255 61.0636 82.3255 62.6053V63.1449H76.1974C76.1974 63.723 76.313 64.147 76.5057 64.4168C76.6984 64.6866 77.0453 64.8407 77.5849 64.8407C78.4328 64.8022 78.8568 64.4553 79.0109 63.6845ZM64.7119 64.2241H66.5619C67.0244 64.2241 67.3713 64.1084 67.564 63.8772C67.7567 63.6459 67.8724 63.4147 67.8724 63.1064C67.8724 62.798 67.7567 62.5668 67.564 62.3355C67.3713 62.1043 66.9859 61.9886 66.4078 61.9886H64.7119V64.2241ZM64.7119 59.4063H66.4463C66.8703 59.4063 67.1786 59.2907 67.3713 59.0595C67.564 58.8282 67.6411 58.597 67.6411 58.3657C67.6411 57.672 67.2171 57.3251 66.3692 57.3251H64.6734V59.4063H64.7119ZM61.2432 66.9605V54.6657H67.4869C68.7974 54.6657 69.7224 54.974 70.339 55.6292C70.9172 56.2844 71.2255 57.0167 71.2255 57.8647C71.2255 58.4813 71.0713 59.0209 70.7245 59.522C70.3776 60.023 69.8765 60.3699 69.1828 60.5626C70.763 60.948 71.5724 61.9116 71.5724 63.4147C71.5724 64.3397 71.3026 65.1491 70.7245 65.8428C70.1849 66.5751 68.9515 66.922 67.1401 66.922H61.2432V66.9605Z" fill="white"/>
</svg>
