<svg width="25" height="24" viewBox="0 0 25 24" fill="none" xmlns="http://www.w3.org/2000/svg">
<path d="M12.5 0C5.59668 0 0 5.3728 0 12C0 18.6272 5.59668 24 12.5 24C19.4033 24 25 18.6272 25 12C25 5.3728 19.4033 0 12.5 0ZM17.2617 13.7311C15.6574 15.6417 13.0561 15.7683 11.8557 14.5956C11.763 14.5059 11.6892 14.4003 11.5987 14.2932C11.5852 14.3366 11.5731 14.3728 11.5633 14.4097C10.9876 16.5763 10.9236 17.0581 10.3313 18.0644C10.0487 18.5426 9.73067 18.9961 9.37952 19.4295C9.33958 19.4787 9.30265 19.5416 9.22353 19.5264C9.13687 19.5083 9.13009 19.4338 9.1203 19.3673C9.02535 18.7089 8.97335 18.0485 8.99595 17.3837C9.0261 16.5177 9.13764 16.2204 10.3004 11.5262C10.317 11.4545 10.2981 11.3952 10.2732 11.3308C9.99518 10.6096 9.94017 9.87823 10.1828 9.13673C10.7088 7.53581 12.6002 7.41283 12.931 8.73451C13.1345 9.55124 12.5957 10.6204 12.182 12.2011C11.8399 13.5054 13.4382 14.4321 14.8051 13.4801C16.0651 12.6026 16.5549 10.4982 16.4615 9.00723C16.2783 6.034 12.8828 5.39161 10.7276 6.34869C8.25747 7.44538 7.69607 10.3839 8.81134 11.7273C8.953 11.898 9.06153 12.0029 9.01481 12.1758C8.94322 12.4449 8.87991 12.7155 8.8023 12.9831C8.74503 13.1821 8.57096 13.2544 8.36147 13.1727C7.95003 13.0135 7.6079 12.7618 7.32984 12.4312C6.38262 11.3055 6.11135 9.07813 7.36376 7.19291C8.75106 5.10441 11.3312 4.25946 13.6876 4.51555C16.5014 4.823 18.2805 6.66844 18.6136 8.76272C18.7658 9.7169 18.6566 12.0687 17.2617 13.7311Z" fill="#9DDCF9"/>
</svg>
