<svg width="21" height="21" viewBox="0 0 21 21" fill="none" xmlns="http://www.w3.org/2000/svg">
<path d="M8.30584 0.25C3.86679 0.25 0.25 3.86679 0.25 8.30584C0.25 12.7449 3.86679 16.3617 8.30584 16.3617C10.2253 16.3617 11.9893 15.6839 13.3755 14.5561L18.8256 20.0062C19.1507 20.3313 19.6812 20.3313 20.0062 20.0062C20.3313 19.6812 20.3313 19.159 20.0062 18.834L14.5561 13.3838C15.6839 11.9976 16.3617 10.2281 16.3617 8.30584C16.3617 3.86679 12.7449 0.25 8.30584 0.25ZM8.30584 1.91672C11.8448 1.91672 14.6949 4.76682 14.6949 8.30584C14.6949 11.8448 11.8448 14.6949 8.30584 14.6949C4.76682 14.6949 1.91672 11.8448 1.91672 8.30584C1.91672 4.76682 4.76682 1.91672 8.30584 1.91672Z" fill="#0094DA" stroke="#0094DA" stroke-width="0.5"/>
</svg>
