<svg width="25" height="25" viewBox="0 0 25 25" fill="none" xmlns="http://www.w3.org/2000/svg">
<path d="M12.4145 11.2392L9.12672 6.53613H7.37207L11.4468 12.364L11.9588 13.0961V13.0968L15.4466 18.0851H17.2005L12.9265 11.972L12.4145 11.2392Z" fill="#9DDCF9"/>
<path d="M12.2915 0C5.5033 0 0 5.5033 0 12.2915C0 19.0796 5.50256 24.5829 12.2915 24.5829C19.0796 24.5829 24.5829 19.0796 24.5829 12.2915C24.5829 5.5033 19.0796 0 12.2915 0ZM14.9094 18.9063L11.3801 13.7697L6.96082 18.9063H5.81896L10.8732 13.0317L5.81896 5.67669H9.67357L13.0154 10.5405L17.1998 5.67669H18.3416L13.5222 11.2785L18.764 18.9063H14.9094Z" fill="#9DDCF9"/>
</svg>
