<svg width="25" height="25" viewBox="0 0 25 25" fill="none" xmlns="http://www.w3.org/2000/svg">
<path d="M12.5456 5.91113C9.28155 5.91113 6.62585 8.56683 6.62585 11.8309C6.62585 12.909 6.92521 13.9701 7.49133 14.9L7.64471 15.152L7.05414 17.3594L9.27414 16.7644L9.52459 16.9133C10.4434 17.4609 11.4882 17.7499 12.5463 17.7499C15.8104 17.7499 18.4661 15.0942 18.4661 11.8301C18.4653 8.56683 15.8096 5.91113 12.5456 5.91113ZM16.023 14.0672C15.8022 14.6022 15.2554 14.9452 14.7004 15.0505C14.1706 15.1512 13.7326 14.9823 13.2421 14.82C12.8042 14.6755 12.3818 14.4643 11.9891 14.2243C11.2037 13.7434 10.5257 13.0994 9.9803 12.3592C9.81357 12.1332 9.65945 11.8976 9.51718 11.6545C9.32897 11.3329 9.16077 10.9943 9.07333 10.632C9.03702 10.4815 9.01776 10.3252 9.01627 10.1696C9.00961 9.62051 9.2193 9.06625 9.65426 8.71206C9.9062 8.50755 10.2782 8.41789 10.5605 8.5772C10.868 8.75059 11.0266 9.18851 11.1696 9.49528C11.2815 9.73536 11.4074 10.051 11.3615 10.32C11.3156 10.5897 11.1021 10.8165 10.9325 11.0165C10.8176 11.1514 10.8006 11.2662 10.8962 11.4122C11.4586 12.3496 12.2396 13.0305 13.2592 13.4366C13.3977 13.4922 13.5059 13.4751 13.5956 13.3632C13.7712 13.1461 13.9453 12.7215 14.2165 12.6104C14.5707 12.4659 14.9612 12.666 15.262 12.846C15.5421 13.0135 16.0097 13.2187 16.0853 13.5648C16.1208 13.7322 16.0882 13.9086 16.023 14.0672Z" fill="#9DDCF9"/>
<path d="M12.2915 0.000152588C5.5033 0.000152588 0 5.50345 0 12.2916C0 19.0798 5.5033 24.5831 12.2915 24.5831C19.0796 24.5831 24.5829 19.0798 24.5829 12.2916C24.5829 5.50345 19.0796 0.000152588 12.2915 0.000152588ZM12.5456 19.1317C11.3371 19.1317 10.1441 18.8264 9.07559 18.2469L5.10169 19.3117L6.1613 15.3586C5.5611 14.276 5.24544 13.0637 5.24544 11.8322C5.24544 7.80718 8.51985 4.53276 12.5449 4.53276C16.5699 4.53276 19.8443 7.80718 19.8443 11.8322C19.8451 15.8565 16.5707 19.1317 12.5456 19.1317Z" fill="#9DDCF9"/>
</svg>
