<svg width="25" height="25" viewBox="0 0 25 25" fill="none" xmlns="http://www.w3.org/2000/svg">
<path d="M15.0841 12.1889L11.2124 10.0823C11.0539 9.99191 10.5107 10.1068 10.5107 10.289V14.3963C10.5107 14.5764 11.0494 14.6912 11.208 14.6053L15.2523 12.6046C15.4168 12.5164 15.2464 12.2816 15.0841 12.1889Z" fill="#9DDCF9"/>
<path d="M12.2915 0C5.50331 0 0 5.5033 0 12.2915C0 19.0796 5.50331 24.5829 12.2915 24.5829C19.0797 24.5829 24.583 19.0796 24.583 12.2915C24.583 5.5033 19.0804 0 12.2915 0ZM20.5564 14.3899C20.5564 16.338 18.9774 17.917 17.0293 17.917H8.01007C6.06201 17.917 4.48297 16.338 4.48297 14.3899V10.193C4.48297 8.24495 6.06201 6.66591 8.01007 6.66591H17.0293C18.9774 6.66591 20.5564 8.24495 20.5564 10.193V14.3899Z" fill="#9DDCF9"/>
</svg>
