<svg width="22" height="27" viewBox="0 0 22 27" fill="none" xmlns="http://www.w3.org/2000/svg">
<path d="M1.28711 0.198364H20.5352C21.135 0.198364 21.624 0.688048 21.624 1.29016V20.59C21.6239 21.192 21.135 21.6818 20.5352 21.6818H16.8047L16.9561 21.9718L17.7236 23.4435L17.7266 23.4474C17.9727 23.8918 18.0212 24.4235 17.8594 24.9054C17.6973 25.3874 17.3374 25.7821 16.873 25.9865C16.6425 26.0879 16.3942 26.1378 16.1465 26.1378C15.896 26.1378 15.6458 26.0863 15.4131 25.9825C14.9496 25.7759 14.5914 25.3804 14.4316 24.8976L14.4307 24.8927L13.3262 21.8126L13.2783 21.6818H1.28711C0.687382 21.6817 0.198336 21.1919 0.198242 20.59V1.29016C0.198242 0.688099 0.687324 0.198447 1.28711 0.198364ZM13.8418 16.7042L12.1123 17.465L11.9434 17.5402L12.0049 17.714L14.5635 24.8478C14.5639 24.849 14.5643 24.8502 14.5645 24.8507C14.7113 25.2971 15.0412 25.6624 15.4697 25.8536C15.9026 26.0467 16.3825 26.0484 16.8164 25.8575C17.2506 25.6664 17.5742 25.3108 17.7256 24.8605C17.8753 24.4148 17.8301 23.9236 17.6016 23.5128V23.5118L17.6006 23.5109H17.5996L14.0977 16.7941L14.0117 16.63L13.8418 16.7042ZM1.28711 0.338989C0.763484 0.339072 0.338867 0.766379 0.338867 1.29016V20.59C0.338932 21.1137 0.763587 21.5411 1.28711 21.5411H13.2285L13.1328 21.2755L11.8857 17.797L11.8135 17.5968L11.6191 17.6827L7.8252 19.3517C7.69209 19.4101 7.5452 19.4132 7.41016 19.3605C7.27456 19.3075 7.16888 19.2051 7.11035 19.0714L6.37598 17.3956C6.36044 17.3601 6.37685 17.3186 6.41211 17.3029L6.60645 17.2169L6.78809 17.1378L6.70801 16.9562L6.42676 16.3126C6.22094 15.842 6.40924 15.2957 6.8457 15.048L6.93652 15.0031L7.67188 14.6808L8.00098 14.5363L7.7041 14.3351C7.03101 13.8778 6.34816 14.0904 6.02637 14.1876C5.97984 14.2017 5.92463 14.1782 5.90234 14.131C5.88052 14.0846 5.89354 14.0335 5.93164 14.004C6.33847 13.6901 7.02051 12.9672 6.66895 11.8585C6.65651 11.8189 6.67368 11.7775 6.70898 11.7589H6.70996C6.74536 11.7406 6.78906 11.7496 6.81445 11.7823C7.43517 12.59 8.26099 12.5818 8.78418 12.464L8.98828 12.4083C9.03388 12.3939 9.08272 12.4125 9.1084 12.4572C9.1342 12.5018 9.12229 12.5597 9.08398 12.59C8.8126 12.8044 8.22404 13.2635 8.25586 14.129L8.2666 14.421L8.53418 14.3038L10.7227 13.34L10.8408 13.2872V0.338989H1.28711ZM11.1797 0.338989V0.537231H10.9814V13.2257L11.2598 13.1027L15.5391 11.2179C15.7818 11.1112 16.0501 11.1051 16.2969 11.2013C16.5444 11.2979 16.739 11.4847 16.8457 11.7286L17.127 12.3712L17.207 12.5529L17.3887 12.4728L17.582 12.3878L17.585 12.3868C17.5959 12.3818 17.6148 12.3796 17.6357 12.3878C17.6565 12.396 17.6682 12.4099 17.6729 12.421L17.6748 12.424L18.4082 14.1007C18.5285 14.3755 18.4026 14.6971 18.1289 14.8175L14.335 16.4874L14.1406 16.5724L14.2383 16.7609L16.6758 21.4337L16.7314 21.5411H20.5352C21.0588 21.5411 21.4833 21.1137 21.4834 20.59V1.29016C21.4834 0.766319 21.0588 0.338989 20.5352 0.338989H11.1797ZM17.21 12.7042L6.71484 17.3234L6.5332 17.4034L6.61328 17.5851L7.2373 19.0109V19.0118C7.32144 19.215 7.56555 19.3125 7.76758 19.2218L7.76855 19.2228L18.0723 14.6896C18.2763 14.5998 18.3683 14.3608 18.2793 14.1573L17.6533 12.7277L17.5098 12.7892L17.4717 12.6085H17.168L17.21 12.7042ZM16.7168 11.7853C16.5495 11.386 16.0767 11.1798 15.6719 11.3165L15.5918 11.3478L8.47559 14.4835L8.31152 14.5548L8.36621 14.7257C8.37276 14.746 8.38205 14.773 8.3916 14.7999L8.39355 14.8058C8.4026 14.8292 8.39947 14.8438 8.39453 14.8546C8.38791 14.8688 8.37303 14.8862 8.34961 14.8986C8.32614 14.9109 8.30341 14.9129 8.28809 14.9103C8.27658 14.9082 8.26268 14.9026 8.24805 14.881L8.24512 14.8771L8.21289 14.8331V14.5968L7.93555 14.7189L6.99316 15.132C6.56305 15.3212 6.36735 15.8252 6.55566 16.256L6.83691 16.8986L6.91699 17.0812L7.09863 17.0011L16.8965 12.6896L17.0781 12.6095L16.998 12.4288L16.7168 11.7853ZM6.90723 12.5128C6.89509 12.9563 6.72642 13.3196 6.52344 13.5988L6.2793 13.9337L6.69336 13.9132C6.72605 13.9116 6.7594 13.9103 6.79297 13.9103C7.10249 13.9103 7.45316 13.9839 7.79883 14.2257L7.93555 14.3214L8.05371 14.2023L8.11133 14.1437L8.11035 14.0616C8.10827 13.5953 8.27832 13.2425 8.48047 12.9796L8.73242 12.6525L8.32031 12.6603C7.97763 12.6666 7.58491 12.5968 7.21484 12.3527L6.91699 12.1564L6.90723 12.5128Z" stroke="#0094D9" stroke-width="0.396773"/>
<path d="M6.3418 1.66809C6.37167 1.64339 6.41564 1.64717 6.44043 1.67688C6.46534 1.7068 6.46151 1.75163 6.43164 1.77649L1.58594 5.80969C1.57282 5.82052 1.55692 5.82532 1.54102 5.82532C1.52044 5.82521 1.50108 5.81647 1.4873 5.79993C1.46261 5.77003 1.46633 5.72611 1.49609 5.70129L6.3418 1.66809Z" stroke="#0094D9" stroke-width="0.396773"/>
<path d="M3.91919 1.23682C3.94923 1.21222 3.99417 1.21746 4.0188 1.24756C4.04308 1.2776 4.03882 1.32167 4.00903 1.34619L1.45532 3.43604C1.44219 3.44679 1.42621 3.45166 1.4104 3.45166C1.38966 3.45156 1.37039 3.44289 1.35669 3.42627H1.35571C1.33128 3.39617 1.33648 3.35217 1.36646 3.32764L3.91919 1.23682Z" stroke="#0094D9" stroke-width="0.396773"/>
<path d="M17.1415 5.08398C17.1882 5.10032 17.2154 5.14935 17.2069 5.19434C17.1539 5.47525 17.1224 5.79146 17.2206 6.10059C17.3214 6.41763 17.5493 6.70027 17.9589 6.93262V6.93359H17.9608C17.9966 6.95463 18.0106 6.99531 17.996 7.0332C17.981 7.07152 17.9423 7.09248 17.9012 7.08301C17.4424 6.97553 17.0827 7.03018 16.7928 7.19629C16.5106 7.35807 16.3176 7.61249 16.1649 7.85645L16.163 7.86035C16.1494 7.88323 16.1343 7.89241 16.119 7.89648C16.1004 7.90141 16.0739 7.90047 16.0468 7.88965C16.0197 7.87882 16.0008 7.86151 15.9911 7.8457C15.9871 7.83928 15.9838 7.83207 15.9823 7.82324L15.9843 7.79102L15.9852 7.78516C16.0671 7.37712 16.1042 6.55787 15.2938 6.0625V6.06152C15.2603 6.04104 15.2462 5.99971 15.2606 5.96289C15.2749 5.92649 15.3132 5.90529 15.3524 5.91309C16.284 6.09978 16.8107 5.47869 17.0262 5.125C17.0441 5.0957 17.0742 5.07836 17.1073 5.07812L17.1415 5.08398ZM16.6991 5.71875C16.5103 5.87491 16.2717 6.00934 15.9774 6.06348L15.6639 6.12109L15.8544 6.37695C16.0334 6.61744 16.117 6.87959 16.1493 7.12402L16.1981 7.49121L16.4774 7.24707C16.6566 7.09046 16.8906 6.95515 17.1981 6.90625L17.5331 6.85254L17.3231 6.58691C17.1296 6.34263 17.049 6.08507 17.0233 5.84961L16.9833 5.4834L16.6991 5.71875Z" stroke="#0094D9" stroke-width="0.396773"/>
<path d="M15.4886 22.8235C15.5239 22.8081 15.5656 22.8243 15.5814 22.8597L16.1947 24.261C16.2102 24.2966 16.1941 24.3383 16.1586 24.3538C16.1492 24.3579 16.1394 24.3597 16.1302 24.3597C16.103 24.3596 16.0773 24.3436 16.0658 24.3177L15.4525 22.9163C15.4371 22.8809 15.4533 22.8392 15.4886 22.8235Z" stroke="#0094D9" stroke-width="0.396773"/>
</svg>
