<svg width="22" height="22" viewBox="0 0 22 22" fill="none" xmlns="http://www.w3.org/2000/svg">
<mask id="mask0_444_655" style="mask-type:luminance" maskUnits="userSpaceOnUse" x="0" y="-1" width="22" height="23">
<path d="M21.6241 21.6238V0.197998H0.198275V21.6238H21.6241Z" fill="white" stroke="white" stroke-width="0.396773"/>
</mask>
<g mask="url(#mask0_444_655)">
<path d="M13.256 9.76293C13.256 10.3081 12.814 10.7502 12.2687 10.7502H11.2997" stroke="#0094D9" stroke-width="0.396773" stroke-miterlimit="10" stroke-linecap="round" stroke-linejoin="round"/>
<path d="M17.2787 1.91272H20.0702" stroke="#0094D9" stroke-width="0.396773" stroke-miterlimit="10" stroke-linecap="round" stroke-linejoin="round"/>
<path d="M15.6933 1.9129H16.0326" stroke="#0094D9" stroke-width="0.396773" stroke-miterlimit="10" stroke-linecap="round" stroke-linejoin="round"/>
<path d="M15.6933 3.41614H20.0699" stroke="#0094D9" stroke-width="0.396773" stroke-miterlimit="10" stroke-linecap="round" stroke-linejoin="round"/>
<path d="M1.97135 18.9134L2.03617 20.1078" stroke="#0094D9" stroke-width="0.396773" stroke-miterlimit="10" stroke-linecap="round" stroke-linejoin="round"/>
<path d="M15.0855 20.1078L15.4025 14.2665C15.4331 13.704 14.9852 13.2312 14.422 13.2312H2.69911C2.13586 13.2312 1.68803 13.704 1.71855 14.2665L1.88989 17.4232" stroke="#0094D9" stroke-width="0.396773" stroke-miterlimit="10" stroke-linecap="round" stroke-linejoin="round"/>
<path d="M16.1148 20.1085H1.00664C0.626702 20.1085 0.318758 20.4165 0.318758 20.7964C0.318758 21.1763 0.626702 21.4843 1.00664 21.4843H16.1148C16.4947 21.4843 16.8027 21.1763 16.8027 20.7964C16.8027 20.4165 16.4947 20.1085 16.1148 20.1085Z" stroke="#0094D9" stroke-width="0.396773" stroke-miterlimit="10" stroke-linecap="round" stroke-linejoin="round"/>
<path d="M16.5637 20.2747C16.5682 20.2311 16.5705 20.1867 16.5705 20.1419V18.554C16.5705 17.3415 16.1111 16.2203 15.3437 15.3728" stroke="#0094D9" stroke-width="0.396773" stroke-miterlimit="10" stroke-linecap="round" stroke-linejoin="round"/>
<path d="M1.77948 15.3726C1.01207 16.2201 0.552645 17.3414 0.552645 18.5538V20.1418C0.552645 20.1866 0.554989 20.2309 0.559422 20.2745" stroke="#0094D9" stroke-width="0.396773" stroke-miterlimit="10" stroke-linecap="round" stroke-linejoin="round"/>
<path d="M9.43053 20.1078V20.0695C9.43053 19.5058 9.64176 18.9638 10.0189 18.5448C10.0217 18.5417 10.0246 18.5385 10.0274 18.5353C10.3358 18.1903 10.5234 17.7349 10.5234 17.2356C10.5234 16.5081 10.1251 15.8735 9.53465 15.5381C9.42264 15.4744 9.28352 15.5544 9.28352 15.6833V17.1349C9.28352 17.3782 9.08627 17.5754 8.84298 17.5754H8.30138C8.05805 17.5754 7.86084 17.3782 7.86084 17.1349V15.6833C7.86084 15.5544 7.72168 15.4744 7.60967 15.5381C7.01927 15.8735 6.621 16.5081 6.621 17.2356C6.621 17.7349 6.8085 18.1903 7.117 18.5353C7.11981 18.5385 7.12262 18.5417 7.12544 18.5448C7.5026 18.9638 7.71384 19.5058 7.71384 20.0695V20.1078" stroke="#0094D9" stroke-width="0.396773" stroke-miterlimit="10" stroke-linecap="round" stroke-linejoin="round"/>
<path d="M11.2566 10.4671C11.6573 9.92395 11.8986 9.25589 11.9095 8.5317V6.41099C10.9055 5.9014 10.4961 5.05637 10.3309 4.54239C10.2833 4.39398 10.0821 4.3751 10.0064 4.51136C9.27889 5.82063 7.83055 6.41099 6.16257 6.41099C6.13103 6.41099 5.72548 6.41099 5.21231 6.41099V8.5317C5.23997 10.358 6.72808 11.8301 8.56097 11.8301C9.25566 11.8301 9.90062 11.6183 10.4355 11.2562" stroke="#0094D9" stroke-width="0.396773" stroke-miterlimit="10" stroke-linecap="round" stroke-linejoin="round"/>
<path d="M10.7473 11.2563H9.93766C9.62873 11.2563 9.37833 11.0059 9.37833 10.697C9.37833 10.3881 9.62873 10.1376 9.93766 10.1376H10.7473C11.0562 10.1376 11.3066 10.3881 11.3066 10.697C11.3066 11.0059 11.0562 11.2563 10.7473 11.2563Z" stroke="#0094D9" stroke-width="0.396773" stroke-miterlimit="10" stroke-linecap="round" stroke-linejoin="round"/>
<path d="M11.8568 9.07086H12.9442C13.3135 9.07086 13.6128 8.77153 13.6128 8.40225V7.07981C13.6128 6.71058 13.3135 6.4112 12.9442 6.4112H11.9091" stroke="#0094D9" stroke-width="0.396773" stroke-miterlimit="10" stroke-linecap="round" stroke-linejoin="round"/>
<path d="M5.21284 6.41095H4.17768C3.80844 6.41095 3.50907 6.71029 3.50907 7.07957V8.402C3.50907 8.77128 3.80844 9.07062 4.17768 9.07062H5.26506" stroke="#0094D9" stroke-width="0.396773" stroke-miterlimit="10" stroke-linecap="round" stroke-linejoin="round"/>
<path d="M10.8257 13.2317C10.4927 13.0989 10.2648 12.7754 10.2648 12.4058V11.3645" stroke="#0094D9" stroke-width="0.396773" stroke-miterlimit="10" stroke-linecap="round" stroke-linejoin="round"/>
<path d="M6.85745 11.3646V12.4059C6.85745 12.7755 6.62963 13.099 6.29654 13.2318" stroke="#0094D9" stroke-width="0.396773" stroke-miterlimit="10" stroke-linecap="round" stroke-linejoin="round"/>
<path d="M13.2574 13.2318C13.2571 12.0737 13.2568 10.3877 13.2565 8.99366" stroke="#0094D9" stroke-width="0.396773" stroke-miterlimit="10" stroke-linecap="round" stroke-linejoin="round"/>
<path d="M3.86523 8.9936C3.86489 10.3877 3.8645 12.0737 3.86429 13.2317" stroke="#0094D9" stroke-width="0.396773" stroke-miterlimit="10" stroke-linecap="round" stroke-linejoin="round"/>
<path d="M21.5017 1.98702V1.26803C21.5017 0.754216 21.0852 0.33767 20.5714 0.33767H15.1908C14.6769 0.33767 14.2604 0.754216 14.2604 1.26803V3.95906C14.2604 4.47287 14.6769 4.88942 15.1908 4.88942C15.4908 4.88942 15.7341 5.1327 15.7341 5.43276V7.09695C15.7341 7.30822 16.0123 7.38529 16.121 7.20406L17.3508 5.15333C17.4489 4.98962 17.6258 4.88942 17.8168 4.88942H20.5714C21.0852 4.88942 21.5017 4.47287 21.5017 3.95906V3.48272" stroke="#0094D9" stroke-width="0.396773" stroke-miterlimit="10" stroke-linecap="round" stroke-linejoin="round"/>
<path d="M13.2556 6.48798C13.2452 3.90405 11.1476 1.81254 8.56122 1.81254C5.97486 1.81254 3.87721 3.90405 3.86685 6.48798" stroke="#0094D9" stroke-width="0.396773" stroke-miterlimit="10" stroke-linecap="round" stroke-linejoin="round"/>
</g>
</svg>
