<svg width="22" height="20" viewBox="0 0 22 20" fill="none" xmlns="http://www.w3.org/2000/svg">
<path d="M16.3657 11.4784C16.4035 11.4784 16.4396 11.4937 16.4663 11.5204C16.493 11.5471 16.5083 11.5832 16.5083 11.621V16.0682C16.5084 16.2871 16.4215 16.4971 16.2671 16.6522C16.1126 16.8073 15.903 16.8955 15.6841 16.8964H6.13818C5.91914 16.8956 5.70878 16.8074 5.5542 16.6522C5.39979 16.4971 5.31302 16.2871 5.31299 16.0682V11.621C5.31299 11.5832 5.32827 11.5471 5.35498 11.5204C5.38169 11.4937 5.4178 11.4784 5.45557 11.4784C5.49332 11.4784 5.52945 11.4937 5.55615 11.5204C5.58284 11.5471 5.59814 11.5832 5.59814 11.621V16.0682C5.59827 16.211 5.6545 16.3481 5.75537 16.4491C5.85648 16.5502 5.9942 16.6073 6.13721 16.6073H15.6841C15.8271 16.6073 15.9648 16.5502 16.0659 16.4491C16.1668 16.3481 16.223 16.211 16.2231 16.0682V11.621C16.2231 11.5832 16.2385 11.5471 16.2651 11.5204C16.2918 11.4937 16.328 11.4784 16.3657 11.4784Z" stroke="#0094D9" stroke-width="0.396774"/>
<path d="M4.77429 7.71579H17.0487C17.0864 7.71586 17.1227 7.73114 17.1493 7.75778C17.1759 7.78447 17.1913 7.82067 17.1913 7.85836V9.22653C17.1914 9.62663 17.0323 10.0105 16.7499 10.2939C16.4675 10.5772 16.0844 10.737 15.6844 10.7382H6.13757L5.98914 10.7304C5.64391 10.6951 5.31922 10.5419 5.07214 10.2939C4.78993 10.0106 4.63155 9.62647 4.63171 9.22653V7.85836C4.63171 7.82059 4.647 7.78449 4.67371 7.75778C4.70041 7.73107 4.73653 7.71579 4.77429 7.71579ZM4.91589 9.22653C4.91578 9.55057 5.04461 9.86123 5.27332 10.0908C5.50191 10.3202 5.81177 10.4499 6.13562 10.4511H15.6854C16.0094 10.4501 16.32 10.3203 16.5487 10.0908C16.7772 9.86123 16.9054 9.55047 16.9052 9.22653V8.00192H4.91589V9.22653Z" stroke="#0094D9" stroke-width="0.396774"/>
<path d="M9.54675 12.8452H12.2733C12.292 12.8453 12.3108 12.8488 12.328 12.856C12.3452 12.8632 12.3607 12.874 12.3739 12.8872C12.3871 12.9005 12.398 12.9168 12.4052 12.9341C12.4121 12.9513 12.416 12.9702 12.4159 12.9888V15.7261C12.4158 15.7638 12.4005 15.8 12.3739 15.8267C12.3473 15.8533 12.311 15.8686 12.2733 15.8687C12.2357 15.8687 12.1994 15.8532 12.1727 15.8267C12.1461 15.8 12.1308 15.7638 12.1307 15.7261V13.1323H11.0526V15.7261C11.0525 15.7638 11.0373 15.8 11.0106 15.8267C10.984 15.8533 10.9477 15.8686 10.91 15.8687C10.8724 15.8687 10.8361 15.8533 10.8094 15.8267C10.7828 15.8 10.7675 15.7638 10.7675 15.7261V13.1323H9.68933V15.7241C9.68933 15.7618 9.67393 15.798 9.64734 15.8247C9.62064 15.8514 9.5845 15.8667 9.54675 15.8667C9.50899 15.8667 9.47287 15.8514 9.44617 15.8247C9.41956 15.798 9.40417 15.7618 9.40417 15.7241V12.9878C9.40417 12.95 9.41946 12.9139 9.44617 12.8872C9.47287 12.8605 9.50899 12.8452 9.54675 12.8452Z" stroke="#0094D9" stroke-width="0.396774"/>
<path d="M10.9106 0.198242C11.2427 0.198242 11.5716 0.263601 11.8784 0.390625C12.1853 0.517739 12.4648 0.704576 12.6997 0.939453C12.9344 1.17425 13.1205 1.45305 13.2476 1.75977C13.3746 2.06657 13.4399 2.39546 13.4399 2.72754C13.4399 3.57727 12.8796 4.51454 12.269 5.27441C11.6669 6.02377 11.0514 6.55781 11.0044 6.59766L11.0034 6.59863C10.9776 6.62078 10.9446 6.63281 10.9106 6.63281L10.8618 6.62402C10.8463 6.61827 10.8306 6.60964 10.8179 6.59863C10.7646 6.55256 10.1517 6.01934 9.55225 5.27344C8.94152 4.51351 8.38135 3.57654 8.38135 2.72754C8.38138 2.39548 8.44667 2.06656 8.57373 1.75977C8.70084 1.45288 8.88769 1.17433 9.12256 0.939453C9.35742 0.704584 9.63601 0.517736 9.94287 0.390625C10.2497 0.263558 10.5786 0.198259 10.9106 0.198242ZM10.9097 0.475586C10.3143 0.47768 9.74396 0.71598 9.32373 1.1377C8.90345 1.55954 8.66735 2.13109 8.66748 2.72656C8.66748 3.36243 9.02994 4.06061 9.45459 4.66406C9.88497 5.27566 10.4057 5.82614 10.7749 6.17383L10.9106 6.30176L11.0464 6.17383C11.4162 5.82668 11.9375 5.27671 12.3677 4.66504C12.7922 4.06136 13.1538 3.36238 13.1538 2.72656C13.154 2.13106 12.9179 1.55956 12.4976 1.1377C12.0773 0.715979 11.507 0.477524 10.9116 0.475586H10.9097Z" stroke="#0094D9" stroke-width="0.396774"/>
<path d="M10.7433 1.5729C10.904 1.54068 11.0713 1.55622 11.2228 1.6188C11.3743 1.68138 11.5037 1.78823 11.5948 1.92447C11.6858 2.06062 11.7345 2.22066 11.7345 2.38443C11.7346 2.6035 11.6479 2.81418 11.4933 2.96939C11.3388 3.12442 11.1291 3.21172 10.9103 3.21255H10.9093C10.7455 3.21312 10.5848 3.16537 10.4484 3.07486C10.3119 2.98429 10.2058 2.85488 10.1427 2.70376C10.0795 2.55257 10.0624 2.38604 10.0939 2.22525C10.1254 2.06453 10.2039 1.91654 10.3195 1.80044C10.435 1.68441 10.5827 1.60518 10.7433 1.5729ZM10.9103 1.84439C10.8039 1.84444 10.7 1.87615 10.6115 1.93521C10.5228 1.99446 10.453 2.07887 10.4122 2.1774C10.3715 2.27586 10.3612 2.38441 10.382 2.48892C10.4028 2.59334 10.4542 2.68899 10.5294 2.76431C10.6048 2.83972 10.7012 2.89194 10.8058 2.91275C10.9102 2.93342 11.0189 2.92225 11.1173 2.8815C11.2155 2.84071 11.2994 2.77167 11.3585 2.68326C11.4178 2.59459 11.4493 2.49009 11.4493 2.38345C11.4493 2.24063 11.393 2.10366 11.2921 2.00259C11.191 1.90147 11.0533 1.84439 10.9103 1.84439Z" stroke="#0094D9" stroke-width="0.396774"/>
<path d="M17.3125 13.8574C17.3445 13.8372 17.383 13.8307 17.4199 13.8389C18.8148 14.1545 19.8799 14.5528 20.5908 15.0039C21.3052 15.4573 21.624 15.9368 21.624 16.4101C21.624 16.8718 21.3327 17.3117 20.7471 17.7197C20.1635 18.1262 19.3199 18.4768 18.2969 18.7627C16.2527 19.3339 13.5436 19.6328 10.9111 19.6328C8.27864 19.6328 5.56965 19.3339 3.52539 18.7627C2.50198 18.4767 1.65782 18.1263 1.07422 17.7197C0.488589 17.3117 0.198242 16.8718 0.198242 16.4101C0.198303 15.9367 0.516986 15.4573 1.23145 15.0039C1.94232 14.5528 3.0069 14.1545 4.40137 13.8389C4.43851 13.8305 4.47761 13.837 4.50977 13.8574C4.54186 13.8778 4.56492 13.9101 4.57324 13.9473C4.58154 13.9844 4.57407 14.0235 4.55371 14.0556C4.54362 14.0715 4.53068 14.085 4.51562 14.0957L4.46387 14.1191C3.29182 14.3844 2.31581 14.7263 1.62793 15.1035C1.2844 15.2919 1.00439 15.4942 0.807617 15.706C0.61186 15.9168 0.483444 16.1544 0.483398 16.4101C0.483398 16.8424 0.826782 17.2274 1.32422 17.5508C1.83497 17.8828 2.56905 18.1911 3.48047 18.4551C5.30616 18.9837 7.88318 19.3457 10.9111 19.3457C13.9389 19.3457 16.5152 18.9828 18.3408 18.4541C19.2524 18.1901 19.9872 17.8828 20.498 17.5508C20.9954 17.2274 21.3389 16.8422 21.3389 16.4101C21.3388 16.1541 21.2105 15.916 21.0146 15.7051C20.8179 15.4932 20.5377 15.2918 20.1943 15.1035C19.5065 14.7265 18.5305 14.3844 17.3584 14.1191H17.3574C17.3204 14.1107 17.2879 14.0877 17.2676 14.0556C17.2472 14.0235 17.2407 13.9844 17.249 13.9473C17.2574 13.9101 17.2803 13.8778 17.3125 13.8574Z" stroke="#0094D9" stroke-width="0.396774"/>
<path d="M13.4658 4.97781H15.6777L15.7734 4.9866C15.8693 5.00144 15.962 5.03414 16.0469 5.08231C16.1594 5.14624 16.2551 5.23621 16.3252 5.345L17.1699 6.75809C17.1893 6.79068 17.1946 6.82968 17.1855 6.86649C17.1763 6.90353 17.1528 6.93559 17.1201 6.95535C17.0984 6.96851 17.0733 6.97587 17.0479 6.97586C17.0233 6.9759 16.999 6.96938 16.9775 6.95731C16.9561 6.94515 16.9375 6.92771 16.9248 6.90652L16.0781 5.48953L16.0713 5.47781L16.0635 5.46805L15.9912 5.39285C15.9123 5.32515 15.8145 5.281 15.71 5.26688L15.6973 5.26492H13.4658C13.4278 5.26487 13.3911 5.24982 13.3643 5.22293C13.3375 5.19602 13.3223 5.15936 13.3223 5.12137C13.3223 5.08335 13.3374 5.04669 13.3643 5.01981C13.3911 4.99292 13.4278 4.97786 13.4658 4.97781Z" stroke="#0094D9" stroke-width="0.396774"/>
<path d="M8.35559 4.97781C8.39353 4.97792 8.43032 4.99297 8.45715 5.01981C8.48397 5.04668 8.49909 5.0834 8.49915 5.12137C8.49915 5.15931 8.48389 5.19603 8.45715 5.22293C8.43032 5.24977 8.39353 5.26482 8.35559 5.26492H6.12415L6.11145 5.26688C5.97244 5.28573 5.84529 5.35732 5.75793 5.46707L5.75012 5.47781L5.74329 5.48953L4.89563 6.90652C4.88299 6.92755 4.86521 6.94521 4.84387 6.95731C4.82246 6.96942 4.79816 6.97588 4.77356 6.97586H4.77258C4.74751 6.97587 4.72299 6.96889 4.70129 6.95633C4.67952 6.94365 4.66099 6.92551 4.64856 6.90359C4.6362 6.88167 4.62966 6.85649 4.63 6.83133C4.63043 6.80605 4.63738 6.78067 4.65051 6.75906L4.65149 6.75809L5.49524 5.345L5.49622 5.34598C5.56634 5.23684 5.66175 5.14639 5.77454 5.08231C5.85935 5.03416 5.95212 5.00142 6.04797 4.9866L6.14465 4.97781H8.35559Z" stroke="#0094D9" stroke-width="0.396774"/>
</svg>
