<svg width="22" height="22" viewBox="0 0 22 22" fill="none" xmlns="http://www.w3.org/2000/svg">
<path d="M18.6739 3.07266C18.7021 3.07278 18.7247 3.09615 18.7247 3.12442V4.59415C18.7245 4.62225 18.702 4.64481 18.6739 4.64493C18.6457 4.64493 18.6223 4.62232 18.6221 4.59415V3.12442C18.6221 3.09608 18.6456 3.07266 18.6739 3.07266Z" stroke="#0094D9" stroke-width="0.396773"/>
<path d="M18.6739 1.49788C18.7021 1.49799 18.7247 1.52136 18.7247 1.54964V1.83186C18.7245 1.86 18.702 1.88253 18.6739 1.88264C18.6457 1.88264 18.6223 1.86007 18.6221 1.83186V1.54964C18.6221 1.52129 18.6456 1.49788 18.6739 1.49788Z" stroke="#0094D9" stroke-width="0.396773"/>
<path d="M0.250193 7.76682C0.278399 7.76693 0.300974 7.7903 0.300974 7.81857V8.14767C0.300859 8.17585 0.278327 8.19834 0.250193 8.19846C0.22196 8.19846 0.198549 8.17592 0.198435 8.14767V7.81857C0.198435 7.79023 0.22189 7.76682 0.250193 7.76682Z" stroke="#0094D9" stroke-width="0.396773"/>
<path d="M0.250193 9.32178C0.278399 9.32189 0.300974 9.34526 0.300974 9.37354V15.019C0.300966 15.0473 0.278394 15.0707 0.250193 15.0708C0.222175 15.0708 0.19862 15.0477 0.198435 15.019V9.37354C0.198435 9.34519 0.22189 9.32178 0.250193 9.32178Z" stroke="#0094D9" stroke-width="0.396773"/>
<path d="M4.29939 4.53885H7.14118C7.38513 4.53887 7.5838 4.73771 7.58357 4.98123V7.82401C7.58335 8.06766 7.38482 8.26539 7.14118 8.26541H4.29939C4.056 8.26541 3.85722 8.0676 3.857 7.82401V4.98123C3.857 4.73739 4.0556 4.53885 4.29939 4.53885ZM4.29939 4.64139C4.11228 4.64148 3.96052 4.79413 3.96052 4.98123V7.82401C3.96073 8.01156 4.11272 8.16278 4.29939 8.16287H7.14118C7.32823 8.16287 7.48081 8.01098 7.48103 7.82401V4.98123C7.48103 4.79344 7.32806 4.64139 7.14118 4.64139H4.29939Z" stroke="#0094D9" stroke-width="0.396773"/>
<path d="M4.29939 10.2202H7.14118C7.38513 10.2203 7.5838 10.4191 7.58357 10.6626V13.5044C7.58357 13.7484 7.38482 13.9468 7.14118 13.9468H4.29939C4.056 13.9468 3.857 13.7483 3.857 13.5044V10.6626C3.857 10.4188 4.0556 10.2202 4.29939 10.2202ZM4.29939 10.3228C4.11228 10.3229 3.96052 10.4755 3.96052 10.6626V13.5044C3.96052 13.6916 4.11198 13.8442 4.29939 13.8443H7.14118C7.32897 13.8443 7.48103 13.691 7.48103 13.5044V10.6626C7.48103 10.4748 7.32806 10.3228 7.14118 10.3228H4.29939Z" stroke="#0094D9" stroke-width="0.396773"/>
<path d="M4.29939 15.9007H7.14118C7.38491 15.9007 7.58378 16.0997 7.58357 16.3431V19.1859C7.58335 19.4297 7.38469 19.6282 7.14118 19.6283H4.29939C4.05613 19.6283 3.85722 19.4296 3.857 19.1859V16.3431C3.85712 16.0992 4.05581 15.9007 4.29939 15.9007ZM4.29939 16.0033C4.11175 16.0034 3.96064 16.1567 3.96052 16.3431V19.1859C3.96073 19.3728 4.11211 19.5247 4.29939 19.5247H7.14118C7.32884 19.5247 7.48081 19.3723 7.48103 19.1859V16.3431C7.48091 16.156 7.3286 16.0033 7.14118 16.0033H4.29939Z" stroke="#0094D9" stroke-width="0.396773"/>
<path d="M9.42097 5.79507H10.6407C10.669 5.79507 10.6925 5.81849 10.6925 5.84683C10.6923 5.87509 10.6689 5.89761 10.6407 5.89761H9.42097C9.39273 5.89761 9.36931 5.87509 9.36921 5.84683C9.36921 5.81849 9.39267 5.79507 9.42097 5.79507Z" stroke="#0094D9" stroke-width="0.396773"/>
<path d="M12.1704 5.79507H13.9409C13.9692 5.79507 13.9926 5.81849 13.9926 5.84683C13.9925 5.87509 13.9691 5.89761 13.9409 5.89761H12.1704C12.1421 5.89761 12.1187 5.87509 12.1186 5.84683C12.1186 5.81849 12.1421 5.79507 12.1704 5.79507Z" stroke="#0094D9" stroke-width="0.396773"/>
<path d="M9.42097 6.90666H10.6407C10.669 6.90666 10.6925 6.93008 10.6925 6.95842C10.6923 6.98668 10.6689 7.0092 10.6407 7.0092H9.42097C9.39273 7.0092 9.36931 6.98668 9.36921 6.95842C9.36921 6.93008 9.39267 6.90666 9.42097 6.90666Z" stroke="#0094D9" stroke-width="0.396773"/>
<path d="M13.5023 6.90666H13.9407C13.969 6.90666 13.9925 6.93008 13.9925 6.95842C13.9924 6.98668 13.969 7.0092 13.9407 7.0092H13.5023C13.474 7.0092 13.4506 6.98668 13.4505 6.95842C13.4505 6.93008 13.474 6.90666 13.5023 6.90666Z" stroke="#0094D9" stroke-width="0.396773"/>
<path d="M9.42097 11.476H10.6407C10.669 11.476 10.6925 11.4994 10.6925 11.5278C10.6923 11.556 10.6689 11.5786 10.6407 11.5786H9.42097C9.39273 11.5786 9.36931 11.556 9.36921 11.5278C9.36921 11.4994 9.39267 11.476 9.42097 11.476Z" stroke="#0094D9" stroke-width="0.396773"/>
<path d="M12.1704 11.476H14.2749C14.3029 11.4763 14.3256 11.4996 14.3256 11.5278C14.3255 11.5559 14.3029 11.5783 14.2749 11.5786H12.1704C12.1421 11.5786 12.1187 11.556 12.1186 11.5278C12.1186 11.4994 12.1421 11.476 12.1704 11.476Z" stroke="#0094D9" stroke-width="0.396773"/>
<path d="M9.42097 12.5876H10.3077C10.336 12.5876 10.3594 12.611 10.3594 12.6394C10.3593 12.6676 10.3359 12.6901 10.3077 12.6901H9.42097C9.39273 12.6901 9.36931 12.6676 9.36921 12.6394C9.36921 12.611 9.39267 12.5876 9.42097 12.5876Z" stroke="#0094D9" stroke-width="0.396773"/>
<path d="M12.1704 12.5876H12.9946C13.0227 12.5878 13.0454 12.6112 13.0454 12.6394C13.0453 12.6675 13.0226 12.6899 12.9946 12.6901H12.1704C12.1421 12.6901 12.1187 12.6676 12.1186 12.6394C12.1186 12.611 12.1421 12.5876 12.1704 12.5876Z" stroke="#0094D9" stroke-width="0.396773"/>
<path d="M9.42097 17.157H10.6407C10.669 17.157 10.6925 17.1804 10.6925 17.2087C10.6923 17.237 10.6689 17.2595 10.6407 17.2595H9.42097C9.39273 17.2595 9.36931 17.237 9.36921 17.2087C9.36921 17.1804 9.39267 17.157 9.42097 17.157Z" stroke="#0094D9" stroke-width="0.396773"/>
<path d="M11.837 17.157H12.0176C12.046 17.157 12.0694 17.1804 12.0694 17.2087C12.0693 17.237 12.0459 17.2595 12.0176 17.2595H11.837C11.8087 17.2595 11.7853 17.237 11.7852 17.2087C11.7852 17.1804 11.8087 17.157 11.837 17.157Z" stroke="#0094D9" stroke-width="0.396773"/>
<path d="M9.42097 18.269H10.3077C10.336 18.269 10.3594 18.2924 10.3594 18.3207C10.3593 18.349 10.3359 18.3715 10.3077 18.3715H9.42097C9.39273 18.3715 9.36931 18.349 9.36921 18.3207C9.36921 18.2924 9.39267 18.269 9.42097 18.269Z" stroke="#0094D9" stroke-width="0.396773"/>
<path d="M11.7136 18.269H11.8376C11.8657 18.2692 11.8884 18.2925 11.8884 18.3207C11.8883 18.3489 11.8657 18.3713 11.8376 18.3715H11.7136C11.6853 18.3715 11.6619 18.349 11.6618 18.3207C11.6618 18.2924 11.6853 18.269 11.7136 18.269Z" stroke="#0094D9" stroke-width="0.396773"/>
<path d="M6.16609 6.10455C6.18747 6.08751 6.22017 6.09125 6.23835 6.11432C6.25562 6.13612 6.25195 6.16888 6.22956 6.18658L5.58113 6.69928C5.56013 6.71595 5.52826 6.71312 5.50984 6.69147L5.20515 6.33307C5.18676 6.31138 5.18942 6.27923 5.21101 6.2608L5.21003 6.25983C5.227 6.2457 5.24995 6.24488 5.26765 6.25397L5.28327 6.26666L5.43269 6.44147L5.55671 6.58795L5.70613 6.46881L6.16609 6.10553V6.10455Z" stroke="#0094D9" stroke-width="0.396773"/>
<path d="M6.16609 11.7869C6.1883 11.7693 6.22075 11.7724 6.23835 11.7947V11.7957C6.25543 11.8175 6.25188 11.8493 6.22956 11.867L5.58113 12.3797V12.3807C5.56015 12.3973 5.52827 12.3944 5.50984 12.3728L5.20515 12.0135H5.20417C5.18661 11.992 5.18934 11.9605 5.21003 11.9422C5.23216 11.9235 5.26493 11.9259 5.28327 11.9471L5.43269 12.1228L5.55671 12.2684L5.70613 12.1502L6.16609 11.7869Z" stroke="#0094D9" stroke-width="0.396773"/>
<path d="M19.1785 13.5542V13.5551C19.203 13.5706 19.2102 13.6026 19.1951 13.6264L19.0457 13.8637C19.0306 13.8874 18.9989 13.8942 18.9754 13.8794C18.951 13.8639 18.9438 13.8319 18.9588 13.8081L19.1082 13.5717C19.1232 13.548 19.1548 13.54 19.1785 13.5542Z" stroke="#0094D9" stroke-width="0.396773"/>
<path d="M20.7416 11.0684C20.7661 11.0838 20.7733 11.1158 20.7582 11.1397L19.728 12.7784C19.7128 12.8021 19.6814 12.8089 19.6577 12.794C19.6335 12.7786 19.6263 12.7474 19.6411 12.7237L20.6713 11.085C20.6829 11.0665 20.7038 11.0583 20.7231 11.0616L20.7416 11.0684Z" stroke="#0094D9" stroke-width="0.396773"/>
<path d="M2.34175 0.198395H16.3574C16.8089 0.198638 17.1745 0.563496 17.1748 1.00894V8.61246H17.2412C17.3373 8.76698 17.5349 8.72701 17.5371 8.72379L17.538 8.72281V8.72183C17.5383 8.72137 17.5397 8.71992 17.541 8.71793L17.5712 8.67007V8.6691C17.5766 8.66057 17.5833 8.65117 17.5898 8.64078C17.63 8.57689 17.691 8.47826 17.7675 8.3566C17.9207 8.11295 18.1335 7.77508 18.3505 7.42984C18.7846 6.73933 19.2377 6.01924 19.2724 5.96402C19.4293 5.71444 19.7609 5.63831 20.0117 5.79507V5.79605L21.373 6.65152C21.623 6.80849 21.6998 7.13919 21.5419 7.39078H21.541C16.2292 15.8393 18.0891 12.8821 17.205 14.2882L17.1748 14.3371V20.6447C17.1746 21.0928 16.8083 21.4579 16.3574 21.4582H2.34175C1.89566 21.458 1.53137 21.094 1.5312 20.6447V1.00894C1.53144 0.562238 1.89511 0.198589 2.34175 0.198395ZM2.34175 0.300934C1.95637 0.301133 1.63398 0.623582 1.63374 1.00894V20.6447C1.63391 21.0359 1.95016 21.3554 2.34175 21.3556H16.3574C16.7501 21.3554 17.0711 21.0383 17.0712 20.6447V14.5002L16.7041 15.0832L15.6982 16.6837C15.6568 16.7495 15.5828 16.8293 15.499 16.8849C15.3433 16.9885 14.1358 17.7459 13.2763 18.2892C13.2338 18.314 13.1886 18.3191 13.1474 18.3068L13.1064 18.2882L13.0732 18.2599C13.0443 18.2275 13.0301 18.1839 13.0351 18.1378L13.1796 16.8752L13.33 15.5412C13.3386 15.4657 13.3649 15.3885 13.4052 15.3097C13.405 15.3102 13.4174 15.2902 13.4492 15.2384C13.4783 15.1909 13.5197 15.1241 13.5712 15.0412C13.6744 14.8752 13.8179 14.644 13.9892 14.3703C14.3319 13.8226 14.784 13.1036 15.2343 12.3869C16.132 10.9579 17.0251 9.53814 17.041 9.51285L17.0712 9.46402V1.00894C17.071 0.616538 16.7486 0.301176 16.3574 0.300934H12.7734V2.19742C12.7732 2.48638 12.5374 2.72183 12.248 2.72183H6.45796C6.16912 2.72165 5.93369 2.48632 5.93354 2.19742V0.300934H2.34175ZM13.4267 15.6164L13.2822 16.881V16.882L13.1728 17.8507L13.2529 17.8595C13.2777 17.9439 13.3421 18.0333 13.4687 18.0451C13.4703 18.0441 13.472 18.0425 13.4726 18.0421H13.4736L13.4746 18.0412L13.4794 18.0373H13.4804L13.4785 18.0392C13.481 18.0376 13.4853 18.0351 13.4912 18.0314C13.4988 18.0266 13.5088 18.0198 13.5214 18.0119L13.5566 17.9904V17.9894C13.6049 17.959 13.6729 17.9164 13.7539 17.8654C13.9279 17.7558 14.1637 17.6077 14.4013 17.4582C14.639 17.3085 14.879 17.1579 15.0615 17.0431C15.1527 16.9857 15.23 16.9372 15.2851 16.9025C15.3123 16.8854 15.3339 16.8713 15.3496 16.8615C15.3574 16.8565 15.3646 16.8526 15.3691 16.8498C15.3712 16.8484 15.3727 16.8466 15.374 16.8459C15.3751 16.8452 15.3759 16.8449 15.3759 16.8449L15.6474 16.6779L15.3779 16.508L13.7294 15.4709L13.4619 15.3029L13.4267 15.6164ZM18.3281 7.65836C16.3794 10.758 14.4656 13.8016 13.665 15.0753L13.5595 15.2433L13.7275 15.3488L15.4863 16.4543L15.6542 16.5607L15.7597 16.3927C18.955 11.3111 20.0022 9.64612 20.3095 9.15738C20.3425 9.10501 20.3671 9.0663 20.3847 9.03824L20.4228 8.97672L20.4218 8.97574H20.4238L20.5292 8.80875L20.3613 8.7023L19.6933 8.28238L19.5253 8.17691L19.4199 8.34488L17.3964 11.5627C17.3812 11.5865 17.3489 11.5932 17.3251 11.5783H17.3261C17.3077 11.5666 17.2993 11.5463 17.3027 11.5265L17.3095 11.508L19.333 8.29019L19.4384 8.12222L19.2705 8.01675L18.6015 7.59586L18.4335 7.49039L18.3281 7.65836ZM19.958 5.88297C19.7696 5.76347 19.4884 5.81448 19.3593 6.01968L18.5947 7.2355L18.4882 7.40347L18.6562 7.50992L20.416 8.61539L20.5839 8.72086L20.6894 8.55289L21.4541 7.33609H21.455C21.5831 7.13139 21.5187 6.86516 21.3173 6.73843V6.73746L19.957 5.88297H19.958ZM6.03608 2.19742C6.03623 2.42978 6.22487 2.61911 6.45796 2.61929H12.248C12.4809 2.61929 12.6707 2.43027 12.6708 2.19742V0.30191H6.03608V2.19742Z" stroke="#0094D9" stroke-width="0.396773"/>
</svg>
