<svg width="19" height="19" viewBox="0 0 19 19" fill="none" xmlns="http://www.w3.org/2000/svg">
<path d="M1.79016 6.35334L4.30606 3.83743" stroke="#0094D9" stroke-width="0.59516" stroke-miterlimit="10" stroke-linecap="round" stroke-linejoin="round"/>
<path d="M3.1698 7.73333L4.17616 6.72697" stroke="#0094D9" stroke-width="0.59516" stroke-miterlimit="10" stroke-linecap="round" stroke-linejoin="round"/>
<path d="M10.8134 15.3769L11.8197 14.3705" stroke="#0094D9" stroke-width="0.59516" stroke-miterlimit="10" stroke-linecap="round" stroke-linejoin="round"/>
<path d="M12.2524 16.8156L14.7683 14.2989" stroke="#0094D9" stroke-width="0.59516" stroke-miterlimit="10" stroke-linecap="round" stroke-linejoin="round"/>
<path d="M2.43891 12.1614C2.38859 12.2117 0.393822 17.2888 0.393822 17.2888C0.222946 17.7013 0.682659 18.207 1.1293 18.0243C1.1293 18.0243 6.23284 16.0553 6.28332 16.0049" stroke="#0094D9" stroke-width="0.59516" stroke-miterlimit="10" stroke-linecap="round" stroke-linejoin="round"/>
<path d="M1.17102 15.3208L3.10894 17.2587" stroke="#0094D9" stroke-width="0.59516" stroke-miterlimit="10" stroke-linecap="round" stroke-linejoin="round"/>
<path d="M17.3678 2.72539L15.5799 0.93748C15.0417 0.399258 14.1691 0.399258 13.6309 0.93748L2.42358 12.1448L6.29965 16.0209L17.3678 4.95261C17.9829 4.33761 17.9829 3.34046 17.3678 2.72539Z" stroke="#0094D9" stroke-width="0.59516" stroke-miterlimit="10" stroke-linecap="round" stroke-linejoin="round"/>
<path d="M8.58371 3.97599L4.90545 0.297577L0.297607 4.90542L3.97587 8.5836" stroke="#0094D9" stroke-width="0.59516" stroke-miterlimit="10" stroke-linecap="round" stroke-linejoin="round"/>
<path d="M9.87048 14.4783L13.6676 18.2753L18.2753 13.6677L14.4783 9.87049" stroke="#0094D9" stroke-width="0.59516" stroke-miterlimit="10" stroke-linecap="round" stroke-linejoin="round"/>
<path d="M4.63953 14.3606L13.7755 5.22385" stroke="#0094D9" stroke-width="0.59516" stroke-miterlimit="10" stroke-linecap="round" stroke-linejoin="round"/>
</svg>
