<svg width="22" height="22" viewBox="0 0 22 22" fill="none" xmlns="http://www.w3.org/2000/svg">
<path d="M7.47522 12.6809H12.0973C12.1778 12.681 12.2438 12.7468 12.2438 12.8274C12.2437 12.9079 12.1778 12.9738 12.0973 12.9739H7.47522C7.39465 12.9739 7.32883 12.908 7.32874 12.8274C7.32874 12.7467 7.39462 12.6809 7.47522 12.6809Z" stroke="#0094D9" stroke-width="0.396773"/>
<path d="M10.7284 12.6809C10.8088 12.681 10.8739 12.7469 10.8739 12.8274V21.1233C10.8738 21.2037 10.8087 21.2687 10.7284 21.2688C10.6479 21.2688 10.582 21.2038 10.5819 21.1233V12.8274C10.5819 12.7467 10.6478 12.6809 10.7284 12.6809Z" stroke="#0094D9" stroke-width="0.396773"/>
<path d="M3.00464 0.198368C4.23632 0.198368 5.23706 1.199 5.23706 2.43079C5.23692 3.66244 4.23626 4.66224 3.00464 4.66224C1.77345 4.66205 0.773329 3.6623 0.773193 2.43079C0.773193 1.19914 1.77338 0.198556 3.00464 0.198368ZM3.00464 0.491337C1.93438 0.491525 1.06616 1.36022 1.06616 2.43079C1.0663 3.50104 1.93444 4.37005 3.00464 4.37024C4.07519 4.37024 4.94396 3.50118 4.94409 2.43079C4.94409 1.36012 4.0753 0.491337 3.00464 0.491337Z" stroke="#0094D9" stroke-width="0.396773"/>
<path d="M18.8175 0.198368C20.0487 0.198572 21.049 1.19911 21.049 2.43079C21.0488 3.66233 20.0487 4.66203 18.8175 4.66224C17.5859 4.66224 16.5852 3.66241 16.5851 2.43079C16.5851 1.19904 17.5858 0.198368 18.8175 0.198368ZM18.8175 0.491337C17.7468 0.491337 16.8781 1.36009 16.8781 2.43079C16.8782 3.50118 17.7469 4.37024 18.8175 4.37024C19.8877 4.37004 20.7558 3.50103 20.756 2.43079C20.756 1.36027 19.8878 0.491541 18.8175 0.491337Z" stroke="#0094D9" stroke-width="0.396773"/>
<path d="M4.44824 17.3821L4.27539 17.3597L1.78906 17.0384H1.78711C0.881707 16.9325 0.198324 16.1651 0.198242 15.2532C0.198242 15.2479 0.198135 15.2449 0.198242 15.2435L0.199219 15.2415V15.2376C0.19941 15.2351 0.199841 15.2315 0.200195 15.2269C0.20097 15.2167 0.201612 15.2008 0.203125 15.181C0.20615 15.1412 0.211057 15.0826 0.216797 15.0071C0.228301 14.8558 0.245001 14.6367 0.265625 14.3655C0.306884 13.8229 0.363303 13.0712 0.426758 12.2366C0.553655 10.5677 0.70632 8.56568 0.807617 7.23271C0.839134 6.81793 1.048 6.43649 1.38086 6.18681C1.71361 5.93748 2.13806 5.84398 2.54492 5.92998L2.54688 5.93095C2.55267 5.93212 2.55857 5.93341 2.56543 5.93486C2.5715 5.93614 2.57881 5.93634 2.58594 5.93779V5.93876C2.97416 6.02098 3.31159 6.25923 3.51855 6.59794L5.18652 9.32744L5.27344 9.47001L5.42871 9.40849L8.33203 8.24833C9.0716 7.9529 9.91144 8.31338 10.207 9.05302C10.5025 9.79264 10.1426 10.6331 9.40332 10.929L5.21289 12.6038C4.83388 12.7552 4.4238 12.7351 4.07422 12.5745L3.79297 12.4456V13.6517L3.96875 13.6712L6.45215 13.9583C7.35877 14.063 8.04297 14.8315 8.04297 15.7444V21.1233C8.04297 21.204 7.97711 21.2698 7.89648 21.2698C7.81602 21.2696 7.75098 21.2039 7.75098 21.1233V15.7444C7.75098 14.9802 7.17784 14.3371 6.41895 14.2493L3.62988 13.927C3.5561 13.9185 3.5 13.8558 3.5 13.7815V12.0511C3.50004 12.0039 3.52321 11.9609 3.55957 11.9339L3.59961 11.9124C3.65901 11.8924 3.72474 11.9126 3.7627 11.9622C4.07288 12.3688 4.62073 12.5257 5.10449 12.3323L9.29492 10.6575C9.88445 10.4216 10.1719 9.75115 9.93652 9.16142C9.70062 8.57137 9.03036 8.28441 8.44043 8.51982H8.43945L5.28125 9.78154L5.20215 9.79619C5.15024 9.79233 5.10468 9.76276 5.08203 9.71708L5.0752 9.70244L5.06543 9.68974L5.05078 9.66728C4.83988 9.3219 3.78903 7.60069 3.26953 6.75029H3.26855C3.10351 6.48062 2.83499 6.29045 2.52539 6.2249H2.52441L2.48438 6.21611C2.1599 6.14762 1.82213 6.2224 1.55664 6.42119C1.29123 6.61998 1.12395 6.9238 1.09863 7.25419V7.26005C1.09834 7.2639 1.09823 7.27007 1.09766 7.27763C1.09651 7.2927 1.09401 7.31496 1.0918 7.34404C1.08735 7.40256 1.08154 7.48874 1.07324 7.59794C1.05662 7.81658 1.0324 8.12939 1.00391 8.50419C0.946935 9.25369 0.870877 10.2529 0.794922 11.2522C0.718961 12.2516 0.642915 13.2515 0.585938 14.0013C0.557464 14.376 0.534196 14.6887 0.517578 14.9075C0.509268 15.0169 0.502499 15.1037 0.498047 15.1624C0.495847 15.1914 0.494309 15.2137 0.493164 15.2288C0.492589 15.2364 0.491505 15.2425 0.491211 15.2464V15.2532C0.491119 15.2549 0.490337 15.261 0.490234 15.2669V15.2688C0.49841 16.0261 1.0694 16.6613 1.82324 16.7483V16.7474L4.61328 17.1077C4.68636 17.1172 4.74121 17.1796 4.74121 17.2532V21.1233C4.74121 21.204 4.67532 21.2698 4.59473 21.2698C4.51412 21.2698 4.44824 21.204 4.44824 21.1233V17.3821Z" stroke="#0094D9" stroke-width="0.396773"/>
<path d="M2.38672 10.0021C2.45536 9.96035 2.54581 9.98218 2.58789 10.051L3.69434 11.8635C3.98714 12.3425 4.58328 12.5407 5.10449 12.3322C5.17893 12.3025 5.26394 12.3386 5.29395 12.4133V12.4142C5.31611 12.4699 5.30183 12.5314 5.26172 12.5715L5.21289 12.6037C4.55919 12.865 3.81224 12.6164 3.44531 12.0158L2.33789 10.2033C2.30646 10.1519 2.31039 10.0876 2.34375 10.0412L2.38672 10.0021Z" stroke="#0094D9" stroke-width="0.396773"/>
<path d="M19.6835 6.12326C19.6847 6.12336 19.6862 6.12395 19.6893 6.12424C19.6923 6.1245 19.6971 6.12387 19.702 6.12424V6.12521C20.5635 6.19007 21.2416 6.8879 21.2811 7.75119C21.3381 8.99903 21.4237 10.873 21.495 12.4348C21.5307 13.2156 21.5626 13.9184 21.5858 14.426C21.5974 14.6798 21.6067 14.885 21.6132 15.0266C21.6164 15.0974 21.6183 15.1524 21.62 15.1897C21.6208 15.2081 21.6215 15.2221 21.6219 15.2317C21.6222 15.2363 21.6228 15.24 21.6229 15.2424V15.2531C21.6229 16.1659 20.9388 16.9336 20.0321 17.0383L17.5985 17.3195L17.4247 17.3391L17.4227 17.5139L17.3729 21.1252C17.3718 21.2061 17.3051 21.2708 17.2245 21.2697C17.1441 21.2684 17.0799 21.2019 17.0809 21.1213L17.1346 17.2072C17.1354 17.152 17.1664 17.1035 17.2128 17.0793L17.2635 17.0637L19.9989 16.7483C20.708 16.6661 21.2541 16.0996 21.3231 15.4026L21.3309 15.2619V15.2512L20.9891 7.76388C20.9563 7.04882 20.3944 6.47038 19.6805 6.41623H19.6796C19.6741 6.41583 19.6647 6.41559 19.66 6.41525H19.661C19.1307 6.37519 18.6228 6.63555 18.3456 7.08908L16.5077 10.0969L16.285 10.2219L12.8798 10.7043C12.2509 10.7935 11.8122 11.3761 11.9012 12.0051C11.9902 12.6341 12.573 13.0724 13.202 12.9836L17.3055 12.4035C17.6065 12.361 17.8761 12.2008 18.0585 11.9621C18.0968 11.9122 18.1628 11.8924 18.2216 11.9123C18.2809 11.9324 18.3212 11.9884 18.3212 12.051V13.7815C18.3212 13.8377 18.2896 13.887 18.243 13.9113L18.1913 13.927L15.4032 14.2492C14.6441 14.3369 14.0712 14.98 14.0712 15.7444V21.1233C14.0712 21.2039 14.0053 21.2697 13.9247 21.2697C13.8442 21.2696 13.7792 21.2038 13.7792 21.1233V15.7444C13.7792 14.8314 14.4633 14.0629 15.37 13.9582L17.8534 13.6721L18.0292 13.6516V12.4455L17.7479 12.5754C17.6223 12.6333 17.487 12.6728 17.3466 12.6926L13.243 13.2736C12.5036 13.3779 11.8154 12.9004 11.6405 12.1906L11.6122 12.0461C11.5007 11.2573 12.0502 10.5259 12.8387 10.4143L16.1757 9.94259L16.2684 9.9299L16.3173 9.84982L18.0966 6.93674C18.431 6.38942 19.0438 6.07509 19.6835 6.12326Z" stroke="#0094D9" stroke-width="0.396773"/>
<path d="M8.3241 0.198368H13.1317C13.3533 0.198395 13.5659 0.286813 13.7225 0.443485C13.879 0.600102 13.9667 0.813003 13.9667 1.03431V3.80481C13.9667 4.02616 13.8791 4.23896 13.7225 4.39563C13.5659 4.55227 13.3533 4.64071 13.1317 4.64075H9.52722C9.42891 4.6408 9.33331 4.66731 9.24988 4.71692L9.17078 4.77356C8.91063 5.00044 8.4436 5.40771 8.11218 5.69641C8.0011 5.79324 7.84383 5.8159 7.70984 5.75501C7.57582 5.69401 7.48914 5.56068 7.48914 5.41321V1.03431C7.48914 0.573177 7.86288 0.198629 8.3241 0.198368ZM8.3241 0.491337C8.02425 0.491579 7.7821 0.734792 7.7821 1.03431V5.59681L8.11023 5.31067L8.97839 4.55384C9.13057 4.42133 9.32552 4.34786 9.52722 4.34778H13.1317C13.2396 4.34775 13.3448 4.31622 13.4335 4.25696L13.5155 4.1886C13.6173 4.08685 13.6747 3.94882 13.6747 3.80481V1.03431C13.6747 0.890304 13.6171 0.752204 13.5155 0.650517C13.4136 0.548307 13.2756 0.491374 13.1317 0.491337H8.3241Z" stroke="#0094D9" stroke-width="0.396773"/>
<path d="M9.19324 1.64401H12.3153C12.3959 1.64408 12.4618 1.7099 12.4618 1.7905C12.4617 1.87103 12.3958 1.93692 12.3153 1.93698H9.19324C9.11267 1.93698 9.04684 1.87107 9.04675 1.7905C9.04675 1.70986 9.11264 1.64401 9.19324 1.64401Z" stroke="#0094D9" stroke-width="0.396773"/>
<path d="M9.19324 2.9002H10.7284C10.8088 2.90033 10.8739 2.96618 10.8739 3.04668C10.8738 3.12708 10.8087 3.19304 10.7284 3.19317H9.19324C9.11262 3.19317 9.04681 3.12721 9.04675 3.04668C9.04675 2.96605 9.11264 2.9002 9.19324 2.9002Z" stroke="#0094D9" stroke-width="0.396773"/>
<path d="M19.4358 10.0021C19.5045 10.0445 19.5254 10.135 19.4836 10.2033L18.3772 12.0158C18.1522 12.3838 17.774 12.6322 17.3469 12.6926L16.3118 12.839C16.232 12.8503 16.1582 12.7944 16.1467 12.715C16.1354 12.6352 16.1908 12.5604 16.2708 12.549L17.3059 12.4025C17.6463 12.3543 17.9479 12.1568 18.1272 11.8635L19.2346 10.051C19.2662 9.99928 19.3247 9.97419 19.3811 9.9826L19.4358 10.0021Z" stroke="#0094D9" stroke-width="0.396773"/>
</svg>
