<svg width="76" height="76" viewBox="0 0 76 76" fill="none" xmlns="http://www.w3.org/2000/svg">
<path d="M69.6712 21.3762H60.8391C58.9355 21.3762 57.9836 21.3762 57.0861 21.1044C56.1886 20.8327 55.3966 20.3047 53.8125 19.2487C51.4367 17.6647 48.7262 15.8578 47.3797 15.4501C46.0334 15.0425 44.6055 15.0425 41.7499 15.0425C37.8667 15.0425 35.3636 15.0425 33.6178 15.7657C31.8719 16.4888 30.4989 17.8618 27.7529 20.6078L25.3364 23.0244C24.7175 23.6432 24.4081 23.9526 24.2171 24.2581C23.509 25.3905 23.5874 26.8455 24.4132 27.8952C24.636 28.1784 24.9769 28.4527 25.6587 29.0014C28.1789 31.0295 31.812 30.8271 34.094 28.5315L38.0026 24.5996H41.1694L60.1706 43.7139C61.9197 45.4734 61.9197 48.3258 60.1706 50.0853C58.4215 51.8448 55.5859 51.8448 53.8369 50.0853L52.2535 48.4923M42.7529 51.6782L45.9197 54.8637C47.6688 56.6233 50.5044 56.6233 52.2535 54.8637C54.0025 53.1046 54.0025 50.2518 52.2535 48.4923L42.7529 38.9354M36.4192 45.3445L42.7529 51.6782C44.5019 53.4374 44.5019 56.2901 42.7529 58.0496C41.0038 59.8088 38.1682 59.8088 36.4192 58.0496L31.6689 53.2708M6.33398 46.711H7.34402C9.96979 46.711 11.2827 46.711 12.4598 47.2056C13.6369 47.7006 14.5556 48.6383 16.3931 50.5141L25.3351 59.6425C27.0842 61.4017 29.9199 61.4017 31.6689 59.6425C33.4179 57.883 33.4179 55.0303 31.6689 53.2708L30.0854 51.6782" stroke="#442917" stroke-width="2" stroke-linecap="round" stroke-linejoin="round"/>
<path d="M69.6711 46.7112H61.7539" stroke="#442917" stroke-width="2" stroke-linecap="round"/>
<path d="M26.9186 21.3762H6.33398" stroke="#442917" stroke-width="2" stroke-linecap="round"/>
</svg>
