<svg width="76" height="76" viewBox="0 0 76 76" fill="none" xmlns="http://www.w3.org/2000/svg">
<path d="M45.9202 28.5016C45.9202 32.8741 42.3756 36.4188 38.0031 36.4188C33.6306 36.4188 30.0859 32.8741 30.0859 28.5016C30.0859 24.1291 33.6306 20.5845 38.0031 20.5845C42.3756 20.5845 45.9202 24.1291 45.9202 28.5016Z" fill="#EDE8D0" fill-opacity="0.909804" stroke="#442917" stroke-width="2"/>
<path d="M57.7077 53.8367C62.1239 60.134 64.2365 63.4877 62.9783 66.1871C62.8519 66.4579 62.704 66.7191 62.5362 66.9687C60.7168 69.671 56.0144 69.671 46.6097 69.671H29.396C19.9914 69.671 15.289 69.671 13.4695 66.9687C13.3015 66.7191 13.1537 66.4579 13.0276 66.1871C11.7692 63.4877 13.8817 60.134 18.2979 53.8367" stroke="#442917" stroke-width="2" stroke-linecap="round" stroke-linejoin="round"/>
<path d="M41.984 55.3998C40.9158 56.4284 39.4882 57.0035 38.0026 57.0035C36.5167 57.0035 35.0891 56.4284 34.0209 55.3998C24.2398 45.922 11.1318 35.3343 17.5242 19.9631C20.9804 11.6519 29.2771 6.33374 38.0026 6.33374C46.728 6.33374 55.0245 11.6519 58.4808 19.9631C64.8652 35.3149 51.7892 45.9546 41.984 55.3998Z" stroke="#442917" stroke-width="2"/>
</svg>
