<svg width="31" height="31" viewBox="0 0 31 31" fill="none" xmlns="http://www.w3.org/2000/svg">
<path d="M24.7242 26.2019C25.0981 23.7321 25.5235 19.9196 25.5235 15.3633C25.5235 7.23439 24.1687 1.4764 24.1687 1.4764L24.1009 1.1377H1.13672V1.4764C1.13672 1.4764 2.49154 7.23439 2.49154 15.3633C2.49154 23.4923 1.13672 29.2502 1.13672 29.2502V29.5889H28.1654L28.2332 29.2502C28.2332 29.2502 29.588 23.4923 29.588 15.3633C29.588 11.204 29.233 7.66658 28.8875 5.20216H24.8461M21.2084 21.46H6.30536M5.85556 5.20216C6.41586 9.2411 6.64062 13.3195 6.52755 17.3956H21.4306C21.5437 13.3195 21.3189 9.2411 20.7586 5.20216H5.85556Z" stroke="#BDBDBD" stroke-width="2.2761"/>
</svg>
