<svg width="31" height="31" viewBox="0 0 31 31" fill="none" xmlns="http://www.w3.org/2000/svg">
<path d="M26.593 13.1171L14.6136 1.1377L1.13672 14.6146H4.13158V25.0966C4.13158 25.8909 4.44711 26.6526 5.00875 27.2143C5.5704 27.7759 6.33215 28.0914 7.12644 28.0914H14.6136" stroke="#BDBDBD" stroke-width="2.2761" stroke-linecap="round" stroke-linejoin="round"/>
<path d="M10.1211 28.0917V19.1072C10.1211 18.3129 10.4366 17.5511 10.9983 16.9895C11.5599 16.4278 12.3217 16.1123 13.116 16.1123H16.1108C16.5975 16.1123 17.0557 16.2276 17.4615 16.4343M20.6031 29.5892C20.6031 29.5892 20.6031 26.5943 25.0954 23.5995" stroke="#BDBDBD" stroke-width="2.2761" stroke-linecap="round" stroke-linejoin="round"/>
<path d="M25.0939 28.091C23.9024 28.091 22.7598 27.6177 21.9173 26.7753C21.0749 25.9328 20.6016 24.7902 20.6016 23.5987C20.6016 22.4073 21.0749 21.2647 21.9173 20.4222C22.7598 19.5797 23.9024 19.1064 25.0939 19.1064H29.5861V23.5987C29.5861 24.7902 29.1129 25.9328 28.2704 26.7753C27.4279 27.6177 26.2853 28.091 25.0939 28.091Z" stroke="#BDBDBD" stroke-width="2.2761" stroke-linecap="round" stroke-linejoin="round"/>
</svg>
