<svg width="18" height="29" viewBox="0 0 18 29" fill="none" xmlns="http://www.w3.org/2000/svg">
<path d="M5.8975 15.7778L1.63971 27.5528C1.61119 27.6168 1.53989 27.7059 1.4258 27.8201L0.878174 28.3239C0.732141 28.4495 0.582685 28.481 0.429806 28.4181C0.276928 28.3553 0.183375 28.2513 0.149148 28.1063L0.0105312 27.3849C-0.0122865 27.3403 0.00197473 27.2227 0.0533145 27.0319L4.4172 15.0033C4.64766 15.2066 4.8861 15.3665 5.13253 15.483C5.3801 15.6018 5.63509 15.6989 5.8975 15.7743M8.5569 12.8511C7.37266 12.8511 6.36298 12.4342 5.52785 11.6003C4.69272 10.7664 4.2763 9.75544 4.27858 8.56742C4.27858 7.45366 4.62655 6.52153 5.32249 5.77102C6.01957 5.02052 6.81249 4.57273 7.70124 4.42765V0.856753C7.70124 0.613439 7.78281 0.409534 7.94595 0.24504C8.1091 0.0805453 8.31275 -0.0011305 8.5569 1.18172e-05C8.80105 0.00115414 9.0047 0.08283 9.16784 0.24504C9.33099 0.407249 9.41256 0.611154 9.41256 0.856753V4.42936C10.3013 4.57444 11.0942 5.02166 11.7913 5.77102C12.4872 6.52153 12.8352 7.45366 12.8352 8.56742C12.8352 9.7543 12.4188 10.7653 11.5859 11.6003C10.7531 12.4353 9.74342 12.8523 8.5569 12.8511ZM8.5569 11.1376C9.26083 11.1376 9.86492 10.8858 10.3692 10.382C10.8723 9.8771 11.1239 9.27224 11.1239 8.56742C11.1239 7.86261 10.8723 7.25775 10.3692 6.75285C9.86492 6.24908 9.26083 5.9972 8.5569 5.9972C7.85297 5.9972 7.24887 6.24908 6.7446 6.75285C6.24033 7.25661 5.98877 7.86147 5.98991 8.56742C5.99105 9.27338 6.24261 9.87824 6.7446 10.382C7.24887 10.8858 7.85297 11.1376 8.5569 11.1376ZM11.2163 15.7778C11.4787 15.7012 11.7337 15.6041 11.9813 15.4865C12.2277 15.3688 12.4553 15.2089 12.6641 15.0067L17.028 27.0336C17.0348 27.053 17.0491 27.1707 17.0708 27.3866L16.9338 28.1063C16.8985 28.2525 16.8044 28.357 16.6515 28.4198C16.4986 28.4827 16.3486 28.4513 16.2014 28.3256L15.6555 27.8218L15.4416 27.5545L11.2163 15.7778Z" fill="#BDBDBD"/>
</svg>
