<svg width="33" height="31" viewBox="0 0 33 31" fill="none" xmlns="http://www.w3.org/2000/svg">
<path d="M1.13672 12.368L14.7757 1.60122C15.1562 1.30099 15.6267 1.1377 16.1114 1.1377C16.5961 1.1377 17.0667 1.30099 17.4472 1.60122L22.85 5.86602V3.38321C22.85 2.98606 23.0078 2.60517 23.2886 2.32434C23.5695 2.04351 23.9504 1.88574 24.3475 1.88574H25.845C26.2421 1.88574 26.623 2.04351 26.9039 2.32434C27.1847 2.60517 27.3425 2.98606 27.3425 3.38321V9.41203L31.0861 12.368M28.0912 14.6142V20.6041C28.0912 24.839 28.0912 26.9579 26.7749 28.2727C25.4601 29.5889 23.3412 29.5889 19.1064 29.5889H13.1165C8.88164 29.5889 6.76272 29.5889 5.44794 28.2727C4.13166 26.9579 4.13166 24.839 4.13166 20.6041V14.6142" stroke="#BDBDBD" stroke-width="2.2761" stroke-linecap="round" stroke-linejoin="round"/>
<path d="M20.6059 20.6045C19.4079 21.5359 17.8356 22.102 16.1135 22.102C14.3914 22.102 12.8191 21.5359 11.6211 20.6045" stroke="#BDBDBD" stroke-width="2.2761" stroke-linecap="round" stroke-linejoin="round"/>
</svg>
