<svg width="23" height="29" viewBox="0 0 23 29" fill="none" xmlns="http://www.w3.org/2000/svg">
<path d="M9.95772 6.40137H8.53516V7.82393H9.95772V6.40137ZM11.3803 6.40137H12.8028V7.82393H11.3803V6.40137ZM15.648 6.40137H14.2254V7.82393H15.648V6.40137ZM8.53516 9.24649H9.95772V10.6691H8.53516V9.24649ZM12.8028 9.24649H11.3803V10.6691H12.8028V9.24649ZM14.2254 9.24649H15.648V10.6691H14.2254V9.24649ZM9.95772 12.0916H8.53516V13.5142H9.95772V12.0916ZM11.3803 12.0916H12.8028V13.5142H11.3803V12.0916ZM15.648 12.0916H14.2254V13.5142H15.648V12.0916ZM8.53516 14.9367H9.95772V16.3593H8.53516V14.9367ZM12.8028 14.9367H11.3803V16.3593H12.8028V14.9367ZM8.53516 17.7819H9.95772V19.2044H8.53516V17.7819ZM12.8028 17.7819H11.3803V19.2044H12.8028V17.7819ZM8.53516 20.627H9.95772V22.0496H8.53516V20.627ZM12.8028 20.627H11.3803V22.0496H12.8028V20.627ZM8.53516 23.4721H9.95772V24.8947H8.53516V23.4721ZM12.8028 23.4721H11.3803V24.8947H12.8028V23.4721ZM16.3593 18.4931H18.4931V17.0706H16.3593V18.4931ZM18.4931 21.3383H16.3593V19.9157H18.4931V21.3383ZM16.3593 24.1834H18.4931V22.7608H16.3593V24.1834Z" fill="#BDBDBD"/>
<path fill-rule="evenodd" clip-rule="evenodd" d="M6.40153 0L17.782 4.26769V14.2256H20.6272C20.8158 14.2256 20.9967 14.3006 21.1301 14.434C21.2635 14.5673 21.3384 14.7483 21.3384 14.9369V27.0287H22.0497C22.2384 27.0287 22.4193 27.1036 22.5527 27.237C22.6861 27.3704 22.761 27.5513 22.761 27.74C22.761 27.9286 22.6861 28.1095 22.5527 28.2429C22.4193 28.3763 22.2384 28.4513 22.0497 28.4513H0.711281C0.522638 28.4513 0.341721 28.3763 0.20833 28.2429C0.0749385 28.1095 0 27.9286 0 27.74C0 27.5513 0.0749385 27.3704 0.20833 27.237C0.341721 27.1036 0.522638 27.0287 0.711281 27.0287H1.42256V12.0918C1.42256 11.9031 1.4975 11.7222 1.63089 11.5888C1.76428 11.4554 1.9452 11.3805 2.13384 11.3805H3.55641V6.40153H4.97897V11.3805H6.40153V0ZM7.82409 2.05276L16.3595 5.25352V14.2256H14.2256C14.037 14.2256 13.8561 14.3006 13.7227 14.434C13.5893 14.5673 13.5143 14.7483 13.5143 14.9369V27.0287H7.82409V2.05276ZM2.84513 12.8031V27.0287H6.40153V12.8031H2.84513ZM19.9159 27.0287H18.4933V25.6061H16.3595V27.0287H14.9369V15.6482H19.9159V27.0287Z" fill="#BDBDBD"/>
</svg>
