<svg width="14" height="15" viewBox="0 0 14 15" fill="none" xmlns="http://www.w3.org/2000/svg">
<path fill-rule="evenodd" clip-rule="evenodd" d="M3.5 0C3.63261 0 3.75979 0.0526784 3.85355 0.146447C3.94732 0.240215 4 0.367392 4 0.5V1H10V0.5C10 0.367392 10.0527 0.240215 10.1464 0.146447C10.2402 0.0526784 10.3674 0 10.5 0C10.6326 0 10.7598 0.0526784 10.8536 0.146447C10.9473 0.240215 11 0.367392 11 0.5V1C12.66 1 14 2.34 14 4V12C14 13.66 12.66 15 11 15H3C1.34 15 0 13.66 0 12V4C0 2.34 1.34 1 3 1V0.5C3 0.367392 3.05268 0.240215 3.14645 0.146447C3.24021 0.0526784 3.36739 0 3.5 0ZM13 4V5H1V4C1 2.9 1.895 2 3 2V2.5C3 2.63261 3.05268 2.75979 3.14645 2.85355C3.24021 2.94732 3.36739 3 3.5 3C3.63261 3 3.75979 2.94732 3.85355 2.85355C3.94732 2.75979 4 2.63261 4 2.5V2H10V2.5C10 2.63261 10.0527 2.75979 10.1464 2.85355C10.2402 2.94732 10.3674 3 10.5 3C10.6326 3 10.7598 2.94732 10.8536 2.85355C10.9473 2.75979 11 2.63261 11 2.5V2C12.1 2 13 2.895 13 4ZM1 12V6H13V12C13 13.1 12.105 14 11 14H3C1.9 14 1 13.105 1 12Z" fill="#0094D9"/>
</svg>
