<svg width="20" height="20" viewBox="0 0 20 20" fill="none" xmlns="http://www.w3.org/2000/svg">
<path d="M9.50662 0C12.0279 0 14.446 1.00159 16.2288 2.78443C18.0117 4.56726 19.0132 6.98531 19.0132 9.50662C19.0132 12.0279 18.0117 14.446 16.2288 16.2288C14.446 18.0117 12.0279 19.0132 9.50662 19.0132C6.98531 19.0132 4.56726 18.0117 2.78443 16.2288C1.00159 14.446 0 12.0279 0 9.50662C0 6.98531 1.00159 4.56726 2.78443 2.78443C4.56726 1.00159 6.98531 0 9.50662 0ZM9.50662 1.0007C7.25071 1.0007 5.0872 1.89685 3.49203 3.49203C1.89685 5.0872 1.0007 7.25071 1.0007 9.50662C1.0007 11.7625 1.89685 13.9261 3.49203 15.5212C5.0872 17.1164 7.25071 18.0125 9.50662 18.0125C10.6236 18.0125 11.7297 17.7925 12.7617 17.3651C13.7937 16.9376 14.7314 16.3111 15.5212 15.5212C16.3111 14.7314 16.9376 13.7937 17.3651 12.7617C17.7925 11.7297 18.0125 10.6236 18.0125 9.50662C18.0125 7.25071 17.1164 5.0872 15.5212 3.49203C13.9261 1.89685 11.7625 1.0007 9.50662 1.0007ZM9.00627 4.00279H10.007V9.42657L14.7102 12.1385L14.2099 13.0091L9.00627 10.007V4.00279Z" fill="#0094D9"/>
</svg>
