<svg width="811" height="812" viewBox="0 0 811 812" fill="none" xmlns="http://www.w3.org/2000/svg">
<g opacity="0.4">
<path d="M480.569 707.39L264.065 811.819L154.108 583.856L370.613 479.427L480.569 707.39ZM810.753 548.093L594.248 652.521L484.292 424.559L700.797 320.129L810.753 548.093ZM326.461 387.261L109.956 491.69L0 263.727L216.505 159.298L326.461 387.261ZM656.515 227.963L440.011 332.393L330.054 104.43L546.559 0L656.515 227.963Z" fill="#F6F0D2" fill-opacity="0.909804"/>
<path fill-rule="evenodd" clip-rule="evenodd" d="M259.55 138.859L284.994 126.138L411.542 387.269L672.673 261.39L684.725 286.834L423.594 413.382L549.473 674.513L524.029 686.565L398.151 425.434L138.359 550.643L126.307 525.199L385.429 399.99L259.55 138.859Z" fill="#F6F0D2" fill-opacity="0.909804"/>
</g>
</svg>
